G04 #@! TF.GenerationSoftware,KiCad,Pcbnew,8.0.2*
G04 #@! TF.CreationDate,2024-05-04T10:06:42+05:30*
G04 #@! TF.ProjectId,macroglider,6d616372-6f67-46c6-9964-65722e6b6963,V1*
G04 #@! TF.SameCoordinates,Original*
G04 #@! TF.FileFunction,Legend,Bot*
G04 #@! TF.FilePolarity,Positive*
%FSLAX46Y46*%
G04 Gerber Fmt 4.6, Leading zero omitted, Abs format (unit mm)*
G04 Created by KiCad (PCBNEW 8.0.2) date 2024-05-04 10:06:42*
%MOMM*%
%LPD*%
G01*
G04 APERTURE LIST*
G04 Aperture macros list*
%AMRoundRect*
0 Rectangle with rounded corners*
0 $1 Rounding radius*
0 $2 $3 $4 $5 $6 $7 $8 $9 X,Y pos of 4 corners*
0 Add a 4 corners polygon primitive as box body*
4,1,4,$2,$3,$4,$5,$6,$7,$8,$9,$2,$3,0*
0 Add four circle primitives for the rounded corners*
1,1,$1+$1,$2,$3*
1,1,$1+$1,$4,$5*
1,1,$1+$1,$6,$7*
1,1,$1+$1,$8,$9*
0 Add four rect primitives between the rounded corners*
20,1,$1+$1,$2,$3,$4,$5,0*
20,1,$1+$1,$4,$5,$6,$7,0*
20,1,$1+$1,$6,$7,$8,$9,0*
20,1,$1+$1,$8,$9,$2,$3,0*%
G04 Aperture macros list end*
%ADD10C,0.150000*%
%ADD11C,0.120000*%
%ADD12R,1.700000X3.500000*%
%ADD13R,3.500000X1.700000*%
%ADD14C,1.600000*%
%ADD15C,2.700000*%
%ADD16RoundRect,0.200000X0.275000X-0.200000X0.275000X0.200000X-0.275000X0.200000X-0.275000X-0.200000X0*%
G04 APERTURE END LIST*
D10*
X120148431Y-95396435D02*
X120175368Y-95315623D01*
X120175368Y-95315623D02*
X120256180Y-95234811D01*
X120256180Y-95234811D02*
X120363930Y-95180936D01*
X120363930Y-95180936D02*
X120471680Y-95180936D01*
X120471680Y-95180936D02*
X120552492Y-95207873D01*
X120552492Y-95207873D02*
X120687179Y-95288685D01*
X120687179Y-95288685D02*
X120767991Y-95369498D01*
X120767991Y-95369498D02*
X120848803Y-95504185D01*
X120848803Y-95504185D02*
X120875741Y-95584997D01*
X120875741Y-95584997D02*
X120875741Y-95692746D01*
X120875741Y-95692746D02*
X120821866Y-95800496D01*
X120821866Y-95800496D02*
X120767991Y-95854371D01*
X120767991Y-95854371D02*
X120660241Y-95908246D01*
X120660241Y-95908246D02*
X120606367Y-95908246D01*
X120606367Y-95908246D02*
X120417805Y-95719684D01*
X120417805Y-95719684D02*
X120525554Y-95611934D01*
X120417805Y-96204557D02*
X119852119Y-95638872D01*
X119852119Y-95638872D02*
X120094556Y-96527806D01*
X120094556Y-96527806D02*
X119528871Y-95962120D01*
X119825182Y-96797180D02*
X119259497Y-96231494D01*
X119259497Y-96231494D02*
X119124810Y-96366181D01*
X119124810Y-96366181D02*
X119070935Y-96473931D01*
X119070935Y-96473931D02*
X119070935Y-96581680D01*
X119070935Y-96581680D02*
X119097872Y-96662493D01*
X119097872Y-96662493D02*
X119178685Y-96797180D01*
X119178685Y-96797180D02*
X119259497Y-96877992D01*
X119259497Y-96877992D02*
X119394184Y-96958804D01*
X119394184Y-96958804D02*
X119474996Y-96985741D01*
X119474996Y-96985741D02*
X119582746Y-96985741D01*
X119582746Y-96985741D02*
X119690495Y-96931867D01*
X119690495Y-96931867D02*
X119825182Y-96797180D01*
X95148431Y-68396435D02*
X95175368Y-68315623D01*
X95175368Y-68315623D02*
X95256180Y-68234811D01*
X95256180Y-68234811D02*
X95363930Y-68180936D01*
X95363930Y-68180936D02*
X95471680Y-68180936D01*
X95471680Y-68180936D02*
X95552492Y-68207873D01*
X95552492Y-68207873D02*
X95687179Y-68288685D01*
X95687179Y-68288685D02*
X95767991Y-68369498D01*
X95767991Y-68369498D02*
X95848803Y-68504185D01*
X95848803Y-68504185D02*
X95875741Y-68584997D01*
X95875741Y-68584997D02*
X95875741Y-68692746D01*
X95875741Y-68692746D02*
X95821866Y-68800496D01*
X95821866Y-68800496D02*
X95767991Y-68854371D01*
X95767991Y-68854371D02*
X95660241Y-68908246D01*
X95660241Y-68908246D02*
X95606367Y-68908246D01*
X95606367Y-68908246D02*
X95417805Y-68719684D01*
X95417805Y-68719684D02*
X95525554Y-68611934D01*
X95417805Y-69204557D02*
X94852119Y-68638872D01*
X94852119Y-68638872D02*
X95094556Y-69527806D01*
X95094556Y-69527806D02*
X94528871Y-68962120D01*
X94825182Y-69797180D02*
X94259497Y-69231494D01*
X94259497Y-69231494D02*
X94124810Y-69366181D01*
X94124810Y-69366181D02*
X94070935Y-69473931D01*
X94070935Y-69473931D02*
X94070935Y-69581680D01*
X94070935Y-69581680D02*
X94097872Y-69662493D01*
X94097872Y-69662493D02*
X94178685Y-69797180D01*
X94178685Y-69797180D02*
X94259497Y-69877992D01*
X94259497Y-69877992D02*
X94394184Y-69958804D01*
X94394184Y-69958804D02*
X94474996Y-69985741D01*
X94474996Y-69985741D02*
X94582746Y-69985741D01*
X94582746Y-69985741D02*
X94690495Y-69931867D01*
X94690495Y-69931867D02*
X94825182Y-69797180D01*
X102913710Y-96478651D02*
X102832898Y-96020716D01*
X103236959Y-96155403D02*
X102671274Y-95589717D01*
X102671274Y-95589717D02*
X102455775Y-95805216D01*
X102455775Y-95805216D02*
X102428837Y-95886029D01*
X102428837Y-95886029D02*
X102428837Y-95939903D01*
X102428837Y-95939903D02*
X102455775Y-96020716D01*
X102455775Y-96020716D02*
X102536587Y-96101528D01*
X102536587Y-96101528D02*
X102617399Y-96128465D01*
X102617399Y-96128465D02*
X102671274Y-96128465D01*
X102671274Y-96128465D02*
X102752086Y-96101528D01*
X102752086Y-96101528D02*
X102967585Y-95886029D01*
X102105588Y-96155403D02*
X102563524Y-96613338D01*
X102563524Y-96613338D02*
X102590462Y-96694151D01*
X102590462Y-96694151D02*
X102590462Y-96748025D01*
X102590462Y-96748025D02*
X102563524Y-96828838D01*
X102563524Y-96828838D02*
X102455775Y-96936587D01*
X102455775Y-96936587D02*
X102374962Y-96963525D01*
X102374962Y-96963525D02*
X102321088Y-96963525D01*
X102321088Y-96963525D02*
X102240275Y-96936587D01*
X102240275Y-96936587D02*
X101782340Y-96478651D01*
X102078651Y-97313711D02*
X101512966Y-96748025D01*
X101512966Y-96748025D02*
X101755402Y-97636959D01*
X101755402Y-97636959D02*
X101189717Y-97071274D01*
X104901494Y-68621372D02*
X104928431Y-68540560D01*
X104928431Y-68540560D02*
X105009243Y-68459748D01*
X105009243Y-68459748D02*
X105116993Y-68405873D01*
X105116993Y-68405873D02*
X105224742Y-68405873D01*
X105224742Y-68405873D02*
X105305555Y-68432810D01*
X105305555Y-68432810D02*
X105440242Y-68513623D01*
X105440242Y-68513623D02*
X105521054Y-68594435D01*
X105521054Y-68594435D02*
X105601866Y-68729122D01*
X105601866Y-68729122D02*
X105628803Y-68809934D01*
X105628803Y-68809934D02*
X105628803Y-68917684D01*
X105628803Y-68917684D02*
X105574929Y-69025433D01*
X105574929Y-69025433D02*
X105521054Y-69079308D01*
X105521054Y-69079308D02*
X105413304Y-69133183D01*
X105413304Y-69133183D02*
X105359429Y-69133183D01*
X105359429Y-69133183D02*
X105170868Y-68944621D01*
X105170868Y-68944621D02*
X105278617Y-68836871D01*
X105170868Y-69429494D02*
X104605182Y-68863809D01*
X104605182Y-68863809D02*
X104389683Y-69079308D01*
X104389683Y-69079308D02*
X104362746Y-69160120D01*
X104362746Y-69160120D02*
X104362746Y-69213995D01*
X104362746Y-69213995D02*
X104389683Y-69294807D01*
X104389683Y-69294807D02*
X104470495Y-69375619D01*
X104470495Y-69375619D02*
X104551307Y-69402557D01*
X104551307Y-69402557D02*
X104605182Y-69402557D01*
X104605182Y-69402557D02*
X104685994Y-69375619D01*
X104685994Y-69375619D02*
X104901494Y-69160120D01*
X104578245Y-70022117D02*
X104470495Y-70129867D01*
X104470495Y-70129867D02*
X104389683Y-70156804D01*
X104389683Y-70156804D02*
X104335808Y-70156804D01*
X104335808Y-70156804D02*
X104201121Y-70129867D01*
X104201121Y-70129867D02*
X104066434Y-70049054D01*
X104066434Y-70049054D02*
X103850935Y-69833555D01*
X103850935Y-69833555D02*
X103823998Y-69752743D01*
X103823998Y-69752743D02*
X103823998Y-69698868D01*
X103823998Y-69698868D02*
X103850935Y-69618056D01*
X103850935Y-69618056D02*
X103958685Y-69510306D01*
X103958685Y-69510306D02*
X104039497Y-69483369D01*
X104039497Y-69483369D02*
X104093372Y-69483369D01*
X104093372Y-69483369D02*
X104174184Y-69510306D01*
X104174184Y-69510306D02*
X104308871Y-69644993D01*
X104308871Y-69644993D02*
X104335808Y-69725806D01*
X104335808Y-69725806D02*
X104335808Y-69779680D01*
X104335808Y-69779680D02*
X104308871Y-69860493D01*
X104308871Y-69860493D02*
X104201121Y-69968242D01*
X104201121Y-69968242D02*
X104120309Y-69995180D01*
X104120309Y-69995180D02*
X104066434Y-69995180D01*
X104066434Y-69995180D02*
X103985622Y-69968242D01*
X99791494Y-68721372D02*
X99818431Y-68640560D01*
X99818431Y-68640560D02*
X99899243Y-68559748D01*
X99899243Y-68559748D02*
X100006993Y-68505873D01*
X100006993Y-68505873D02*
X100114742Y-68505873D01*
X100114742Y-68505873D02*
X100195555Y-68532810D01*
X100195555Y-68532810D02*
X100330242Y-68613623D01*
X100330242Y-68613623D02*
X100411054Y-68694435D01*
X100411054Y-68694435D02*
X100491866Y-68829122D01*
X100491866Y-68829122D02*
X100518803Y-68909934D01*
X100518803Y-68909934D02*
X100518803Y-69017684D01*
X100518803Y-69017684D02*
X100464929Y-69125433D01*
X100464929Y-69125433D02*
X100411054Y-69179308D01*
X100411054Y-69179308D02*
X100303304Y-69233183D01*
X100303304Y-69233183D02*
X100249429Y-69233183D01*
X100249429Y-69233183D02*
X100060868Y-69044621D01*
X100060868Y-69044621D02*
X100168617Y-68936871D01*
X100060868Y-69529494D02*
X99495182Y-68963809D01*
X99495182Y-68963809D02*
X99279683Y-69179308D01*
X99279683Y-69179308D02*
X99252746Y-69260120D01*
X99252746Y-69260120D02*
X99252746Y-69313995D01*
X99252746Y-69313995D02*
X99279683Y-69394807D01*
X99279683Y-69394807D02*
X99360495Y-69475619D01*
X99360495Y-69475619D02*
X99441307Y-69502557D01*
X99441307Y-69502557D02*
X99495182Y-69502557D01*
X99495182Y-69502557D02*
X99575994Y-69475619D01*
X99575994Y-69475619D02*
X99791494Y-69260120D01*
X98983372Y-69475619D02*
X98606248Y-69852743D01*
X98606248Y-69852743D02*
X99414370Y-70175992D01*
X112790868Y-95737998D02*
X112817805Y-95657185D01*
X112817805Y-95657185D02*
X112898618Y-95576373D01*
X112898618Y-95576373D02*
X113006367Y-95522498D01*
X113006367Y-95522498D02*
X113114117Y-95522498D01*
X113114117Y-95522498D02*
X113194929Y-95549436D01*
X113194929Y-95549436D02*
X113329616Y-95630248D01*
X113329616Y-95630248D02*
X113410428Y-95711060D01*
X113410428Y-95711060D02*
X113491241Y-95845747D01*
X113491241Y-95845747D02*
X113518178Y-95926560D01*
X113518178Y-95926560D02*
X113518178Y-96034309D01*
X113518178Y-96034309D02*
X113464303Y-96142059D01*
X113464303Y-96142059D02*
X113410428Y-96195934D01*
X113410428Y-96195934D02*
X113302679Y-96249808D01*
X113302679Y-96249808D02*
X113248804Y-96249808D01*
X113248804Y-96249808D02*
X113060242Y-96061247D01*
X113060242Y-96061247D02*
X113167992Y-95953497D01*
X113060242Y-96546120D02*
X112494557Y-95980434D01*
X112494557Y-95980434D02*
X112279057Y-96195934D01*
X112279057Y-96195934D02*
X112252120Y-96276746D01*
X112252120Y-96276746D02*
X112252120Y-96330621D01*
X112252120Y-96330621D02*
X112279057Y-96411433D01*
X112279057Y-96411433D02*
X112359870Y-96492245D01*
X112359870Y-96492245D02*
X112440682Y-96519182D01*
X112440682Y-96519182D02*
X112494557Y-96519182D01*
X112494557Y-96519182D02*
X112575369Y-96492245D01*
X112575369Y-96492245D02*
X112790868Y-96276746D01*
X112009683Y-96573057D02*
X111955809Y-96573057D01*
X111955809Y-96573057D02*
X111874996Y-96599995D01*
X111874996Y-96599995D02*
X111740309Y-96734682D01*
X111740309Y-96734682D02*
X111713372Y-96815494D01*
X111713372Y-96815494D02*
X111713372Y-96869369D01*
X111713372Y-96869369D02*
X111740309Y-96950181D01*
X111740309Y-96950181D02*
X111794184Y-97004056D01*
X111794184Y-97004056D02*
X111901934Y-97057930D01*
X111901934Y-97057930D02*
X112548431Y-97057930D01*
X112548431Y-97057930D02*
X112198245Y-97408117D01*
X111282373Y-97192618D02*
X111228499Y-97246492D01*
X111228499Y-97246492D02*
X111201561Y-97327305D01*
X111201561Y-97327305D02*
X111201561Y-97381179D01*
X111201561Y-97381179D02*
X111228499Y-97461992D01*
X111228499Y-97461992D02*
X111309311Y-97596679D01*
X111309311Y-97596679D02*
X111443998Y-97731366D01*
X111443998Y-97731366D02*
X111578685Y-97812178D01*
X111578685Y-97812178D02*
X111659497Y-97839115D01*
X111659497Y-97839115D02*
X111713372Y-97839115D01*
X111713372Y-97839115D02*
X111794184Y-97812178D01*
X111794184Y-97812178D02*
X111848059Y-97758303D01*
X111848059Y-97758303D02*
X111874996Y-97677491D01*
X111874996Y-97677491D02*
X111874996Y-97623616D01*
X111874996Y-97623616D02*
X111848059Y-97542804D01*
X111848059Y-97542804D02*
X111767247Y-97408117D01*
X111767247Y-97408117D02*
X111632560Y-97273430D01*
X111632560Y-97273430D02*
X111497873Y-97192618D01*
X111497873Y-97192618D02*
X111417060Y-97165680D01*
X111417060Y-97165680D02*
X111363186Y-97165680D01*
X111363186Y-97165680D02*
X111282373Y-97192618D01*
X115330868Y-95737998D02*
X115357805Y-95657185D01*
X115357805Y-95657185D02*
X115438618Y-95576373D01*
X115438618Y-95576373D02*
X115546367Y-95522498D01*
X115546367Y-95522498D02*
X115654117Y-95522498D01*
X115654117Y-95522498D02*
X115734929Y-95549436D01*
X115734929Y-95549436D02*
X115869616Y-95630248D01*
X115869616Y-95630248D02*
X115950428Y-95711060D01*
X115950428Y-95711060D02*
X116031241Y-95845747D01*
X116031241Y-95845747D02*
X116058178Y-95926560D01*
X116058178Y-95926560D02*
X116058178Y-96034309D01*
X116058178Y-96034309D02*
X116004303Y-96142059D01*
X116004303Y-96142059D02*
X115950428Y-96195934D01*
X115950428Y-96195934D02*
X115842679Y-96249808D01*
X115842679Y-96249808D02*
X115788804Y-96249808D01*
X115788804Y-96249808D02*
X115600242Y-96061247D01*
X115600242Y-96061247D02*
X115707992Y-95953497D01*
X115600242Y-96546120D02*
X115034557Y-95980434D01*
X115034557Y-95980434D02*
X114819057Y-96195934D01*
X114819057Y-96195934D02*
X114792120Y-96276746D01*
X114792120Y-96276746D02*
X114792120Y-96330621D01*
X114792120Y-96330621D02*
X114819057Y-96411433D01*
X114819057Y-96411433D02*
X114899870Y-96492245D01*
X114899870Y-96492245D02*
X114980682Y-96519182D01*
X114980682Y-96519182D02*
X115034557Y-96519182D01*
X115034557Y-96519182D02*
X115115369Y-96492245D01*
X115115369Y-96492245D02*
X115330868Y-96276746D01*
X114738245Y-97408117D02*
X115061494Y-97084868D01*
X114899870Y-97246492D02*
X114334184Y-96680807D01*
X114334184Y-96680807D02*
X114468871Y-96707744D01*
X114468871Y-96707744D02*
X114576621Y-96707744D01*
X114576621Y-96707744D02*
X114657433Y-96680807D01*
X114468871Y-97677491D02*
X114361121Y-97785240D01*
X114361121Y-97785240D02*
X114280309Y-97812178D01*
X114280309Y-97812178D02*
X114226434Y-97812178D01*
X114226434Y-97812178D02*
X114091747Y-97785240D01*
X114091747Y-97785240D02*
X113957060Y-97704428D01*
X113957060Y-97704428D02*
X113741561Y-97488929D01*
X113741561Y-97488929D02*
X113714624Y-97408117D01*
X113714624Y-97408117D02*
X113714624Y-97354242D01*
X113714624Y-97354242D02*
X113741561Y-97273430D01*
X113741561Y-97273430D02*
X113849311Y-97165680D01*
X113849311Y-97165680D02*
X113930123Y-97138743D01*
X113930123Y-97138743D02*
X113983998Y-97138743D01*
X113983998Y-97138743D02*
X114064810Y-97165680D01*
X114064810Y-97165680D02*
X114199497Y-97300367D01*
X114199497Y-97300367D02*
X114226434Y-97381179D01*
X114226434Y-97381179D02*
X114226434Y-97435054D01*
X114226434Y-97435054D02*
X114199497Y-97515866D01*
X114199497Y-97515866D02*
X114091747Y-97623616D01*
X114091747Y-97623616D02*
X114010935Y-97650553D01*
X114010935Y-97650553D02*
X113957060Y-97650553D01*
X113957060Y-97650553D02*
X113876248Y-97623616D01*
X77440585Y-95547406D02*
X77817709Y-96301653D01*
X77817709Y-96301653D02*
X77063462Y-95924529D01*
X76955712Y-96571027D02*
X76901838Y-96678776D01*
X76901838Y-96678776D02*
X76901838Y-96732651D01*
X76901838Y-96732651D02*
X76928775Y-96813463D01*
X76928775Y-96813463D02*
X77009587Y-96894276D01*
X77009587Y-96894276D02*
X77090399Y-96921213D01*
X77090399Y-96921213D02*
X77144274Y-96921213D01*
X77144274Y-96921213D02*
X77225086Y-96894276D01*
X77225086Y-96894276D02*
X77440586Y-96678776D01*
X77440586Y-96678776D02*
X76874900Y-96113091D01*
X76874900Y-96113091D02*
X76686338Y-96301653D01*
X76686338Y-96301653D02*
X76659401Y-96382465D01*
X76659401Y-96382465D02*
X76659401Y-96436340D01*
X76659401Y-96436340D02*
X76686338Y-96517152D01*
X76686338Y-96517152D02*
X76740213Y-96571027D01*
X76740213Y-96571027D02*
X76821025Y-96597964D01*
X76821025Y-96597964D02*
X76874900Y-96597964D01*
X76874900Y-96597964D02*
X76955712Y-96571027D01*
X76955712Y-96571027D02*
X77144274Y-96382465D01*
X76309215Y-96678776D02*
X76767151Y-97136712D01*
X76767151Y-97136712D02*
X76794088Y-97217524D01*
X76794088Y-97217524D02*
X76794088Y-97271399D01*
X76794088Y-97271399D02*
X76767151Y-97352211D01*
X76767151Y-97352211D02*
X76659401Y-97459961D01*
X76659401Y-97459961D02*
X76578589Y-97486898D01*
X76578589Y-97486898D02*
X76524714Y-97486898D01*
X76524714Y-97486898D02*
X76443902Y-97459961D01*
X76443902Y-97459961D02*
X75985966Y-97002025D01*
X76282277Y-97783210D02*
X76228403Y-97890959D01*
X76228403Y-97890959D02*
X76093716Y-98025646D01*
X76093716Y-98025646D02*
X76012903Y-98052584D01*
X76012903Y-98052584D02*
X75959029Y-98052584D01*
X75959029Y-98052584D02*
X75878216Y-98025646D01*
X75878216Y-98025646D02*
X75824342Y-97971771D01*
X75824342Y-97971771D02*
X75797404Y-97890959D01*
X75797404Y-97890959D02*
X75797404Y-97837084D01*
X75797404Y-97837084D02*
X75824342Y-97756272D01*
X75824342Y-97756272D02*
X75905154Y-97621585D01*
X75905154Y-97621585D02*
X75932091Y-97540773D01*
X75932091Y-97540773D02*
X75932091Y-97486898D01*
X75932091Y-97486898D02*
X75905154Y-97406086D01*
X75905154Y-97406086D02*
X75851279Y-97352211D01*
X75851279Y-97352211D02*
X75770467Y-97325274D01*
X75770467Y-97325274D02*
X75716592Y-97325274D01*
X75716592Y-97325274D02*
X75635780Y-97352211D01*
X75635780Y-97352211D02*
X75501093Y-97486898D01*
X75501093Y-97486898D02*
X75447218Y-97594648D01*
X117870868Y-95737998D02*
X117897805Y-95657185D01*
X117897805Y-95657185D02*
X117978618Y-95576373D01*
X117978618Y-95576373D02*
X118086367Y-95522498D01*
X118086367Y-95522498D02*
X118194117Y-95522498D01*
X118194117Y-95522498D02*
X118274929Y-95549436D01*
X118274929Y-95549436D02*
X118409616Y-95630248D01*
X118409616Y-95630248D02*
X118490428Y-95711060D01*
X118490428Y-95711060D02*
X118571241Y-95845747D01*
X118571241Y-95845747D02*
X118598178Y-95926560D01*
X118598178Y-95926560D02*
X118598178Y-96034309D01*
X118598178Y-96034309D02*
X118544303Y-96142059D01*
X118544303Y-96142059D02*
X118490428Y-96195934D01*
X118490428Y-96195934D02*
X118382679Y-96249808D01*
X118382679Y-96249808D02*
X118328804Y-96249808D01*
X118328804Y-96249808D02*
X118140242Y-96061247D01*
X118140242Y-96061247D02*
X118247992Y-95953497D01*
X118140242Y-96546120D02*
X117574557Y-95980434D01*
X117574557Y-95980434D02*
X117359057Y-96195934D01*
X117359057Y-96195934D02*
X117332120Y-96276746D01*
X117332120Y-96276746D02*
X117332120Y-96330621D01*
X117332120Y-96330621D02*
X117359057Y-96411433D01*
X117359057Y-96411433D02*
X117439870Y-96492245D01*
X117439870Y-96492245D02*
X117520682Y-96519182D01*
X117520682Y-96519182D02*
X117574557Y-96519182D01*
X117574557Y-96519182D02*
X117655369Y-96492245D01*
X117655369Y-96492245D02*
X117870868Y-96276746D01*
X117278245Y-97408117D02*
X117601494Y-97084868D01*
X117439870Y-97246492D02*
X116874184Y-96680807D01*
X116874184Y-96680807D02*
X117008871Y-96707744D01*
X117008871Y-96707744D02*
X117116621Y-96707744D01*
X117116621Y-96707744D02*
X117197433Y-96680807D01*
X116631747Y-97408117D02*
X116658685Y-97327305D01*
X116658685Y-97327305D02*
X116658685Y-97273430D01*
X116658685Y-97273430D02*
X116631747Y-97192618D01*
X116631747Y-97192618D02*
X116604810Y-97165680D01*
X116604810Y-97165680D02*
X116523998Y-97138743D01*
X116523998Y-97138743D02*
X116470123Y-97138743D01*
X116470123Y-97138743D02*
X116389311Y-97165680D01*
X116389311Y-97165680D02*
X116281561Y-97273430D01*
X116281561Y-97273430D02*
X116254624Y-97354242D01*
X116254624Y-97354242D02*
X116254624Y-97408117D01*
X116254624Y-97408117D02*
X116281561Y-97488929D01*
X116281561Y-97488929D02*
X116308499Y-97515866D01*
X116308499Y-97515866D02*
X116389311Y-97542804D01*
X116389311Y-97542804D02*
X116443186Y-97542804D01*
X116443186Y-97542804D02*
X116523998Y-97515866D01*
X116523998Y-97515866D02*
X116631747Y-97408117D01*
X116631747Y-97408117D02*
X116712560Y-97381179D01*
X116712560Y-97381179D02*
X116766434Y-97381179D01*
X116766434Y-97381179D02*
X116847247Y-97408117D01*
X116847247Y-97408117D02*
X116954996Y-97515866D01*
X116954996Y-97515866D02*
X116981934Y-97596679D01*
X116981934Y-97596679D02*
X116981934Y-97650553D01*
X116981934Y-97650553D02*
X116954996Y-97731366D01*
X116954996Y-97731366D02*
X116847247Y-97839115D01*
X116847247Y-97839115D02*
X116766434Y-97866053D01*
X116766434Y-97866053D02*
X116712560Y-97866053D01*
X116712560Y-97866053D02*
X116631747Y-97839115D01*
X116631747Y-97839115D02*
X116523998Y-97731366D01*
X116523998Y-97731366D02*
X116497060Y-97650553D01*
X116497060Y-97650553D02*
X116497060Y-97596679D01*
X116497060Y-97596679D02*
X116523998Y-97515866D01*
X125490868Y-68659998D02*
X125517805Y-68579185D01*
X125517805Y-68579185D02*
X125598618Y-68498373D01*
X125598618Y-68498373D02*
X125706367Y-68444498D01*
X125706367Y-68444498D02*
X125814117Y-68444498D01*
X125814117Y-68444498D02*
X125894929Y-68471436D01*
X125894929Y-68471436D02*
X126029616Y-68552248D01*
X126029616Y-68552248D02*
X126110428Y-68633060D01*
X126110428Y-68633060D02*
X126191241Y-68767747D01*
X126191241Y-68767747D02*
X126218178Y-68848560D01*
X126218178Y-68848560D02*
X126218178Y-68956309D01*
X126218178Y-68956309D02*
X126164303Y-69064059D01*
X126164303Y-69064059D02*
X126110428Y-69117934D01*
X126110428Y-69117934D02*
X126002679Y-69171808D01*
X126002679Y-69171808D02*
X125948804Y-69171808D01*
X125948804Y-69171808D02*
X125760242Y-68983247D01*
X125760242Y-68983247D02*
X125867992Y-68875497D01*
X125760242Y-69468120D02*
X125194557Y-68902434D01*
X125194557Y-68902434D02*
X124979057Y-69117934D01*
X124979057Y-69117934D02*
X124952120Y-69198746D01*
X124952120Y-69198746D02*
X124952120Y-69252621D01*
X124952120Y-69252621D02*
X124979057Y-69333433D01*
X124979057Y-69333433D02*
X125059870Y-69414245D01*
X125059870Y-69414245D02*
X125140682Y-69441182D01*
X125140682Y-69441182D02*
X125194557Y-69441182D01*
X125194557Y-69441182D02*
X125275369Y-69414245D01*
X125275369Y-69414245D02*
X125490868Y-69198746D01*
X124898245Y-70330117D02*
X125221494Y-70006868D01*
X125059870Y-70168492D02*
X124494184Y-69602807D01*
X124494184Y-69602807D02*
X124628871Y-69629744D01*
X124628871Y-69629744D02*
X124736621Y-69629744D01*
X124736621Y-69629744D02*
X124817433Y-69602807D01*
X123820749Y-70276242D02*
X124090123Y-70006868D01*
X124090123Y-70006868D02*
X124386434Y-70249305D01*
X124386434Y-70249305D02*
X124332560Y-70249305D01*
X124332560Y-70249305D02*
X124251747Y-70276242D01*
X124251747Y-70276242D02*
X124117060Y-70410929D01*
X124117060Y-70410929D02*
X124090123Y-70491741D01*
X124090123Y-70491741D02*
X124090123Y-70545616D01*
X124090123Y-70545616D02*
X124117060Y-70626428D01*
X124117060Y-70626428D02*
X124251747Y-70761115D01*
X124251747Y-70761115D02*
X124332560Y-70788053D01*
X124332560Y-70788053D02*
X124386434Y-70788053D01*
X124386434Y-70788053D02*
X124467247Y-70761115D01*
X124467247Y-70761115D02*
X124601934Y-70626428D01*
X124601934Y-70626428D02*
X124628871Y-70545616D01*
X124628871Y-70545616D02*
X124628871Y-70491741D01*
X115330868Y-68405998D02*
X115357805Y-68325185D01*
X115357805Y-68325185D02*
X115438618Y-68244373D01*
X115438618Y-68244373D02*
X115546367Y-68190498D01*
X115546367Y-68190498D02*
X115654117Y-68190498D01*
X115654117Y-68190498D02*
X115734929Y-68217436D01*
X115734929Y-68217436D02*
X115869616Y-68298248D01*
X115869616Y-68298248D02*
X115950428Y-68379060D01*
X115950428Y-68379060D02*
X116031241Y-68513747D01*
X116031241Y-68513747D02*
X116058178Y-68594560D01*
X116058178Y-68594560D02*
X116058178Y-68702309D01*
X116058178Y-68702309D02*
X116004303Y-68810059D01*
X116004303Y-68810059D02*
X115950428Y-68863934D01*
X115950428Y-68863934D02*
X115842679Y-68917808D01*
X115842679Y-68917808D02*
X115788804Y-68917808D01*
X115788804Y-68917808D02*
X115600242Y-68729247D01*
X115600242Y-68729247D02*
X115707992Y-68621497D01*
X115600242Y-69214120D02*
X115034557Y-68648434D01*
X115034557Y-68648434D02*
X114819057Y-68863934D01*
X114819057Y-68863934D02*
X114792120Y-68944746D01*
X114792120Y-68944746D02*
X114792120Y-68998621D01*
X114792120Y-68998621D02*
X114819057Y-69079433D01*
X114819057Y-69079433D02*
X114899870Y-69160245D01*
X114899870Y-69160245D02*
X114980682Y-69187182D01*
X114980682Y-69187182D02*
X115034557Y-69187182D01*
X115034557Y-69187182D02*
X115115369Y-69160245D01*
X115115369Y-69160245D02*
X115330868Y-68944746D01*
X114738245Y-70076117D02*
X115061494Y-69752868D01*
X114899870Y-69914492D02*
X114334184Y-69348807D01*
X114334184Y-69348807D02*
X114468871Y-69375744D01*
X114468871Y-69375744D02*
X114576621Y-69375744D01*
X114576621Y-69375744D02*
X114657433Y-69348807D01*
X114010935Y-69779805D02*
X113957060Y-69779805D01*
X113957060Y-69779805D02*
X113876248Y-69806743D01*
X113876248Y-69806743D02*
X113741561Y-69941430D01*
X113741561Y-69941430D02*
X113714624Y-70022242D01*
X113714624Y-70022242D02*
X113714624Y-70076117D01*
X113714624Y-70076117D02*
X113741561Y-70156929D01*
X113741561Y-70156929D02*
X113795436Y-70210804D01*
X113795436Y-70210804D02*
X113903186Y-70264679D01*
X113903186Y-70264679D02*
X114549683Y-70264679D01*
X114549683Y-70264679D02*
X114199497Y-70614865D01*
X92216868Y-95737998D02*
X92243805Y-95657185D01*
X92243805Y-95657185D02*
X92324618Y-95576373D01*
X92324618Y-95576373D02*
X92432367Y-95522498D01*
X92432367Y-95522498D02*
X92540117Y-95522498D01*
X92540117Y-95522498D02*
X92620929Y-95549436D01*
X92620929Y-95549436D02*
X92755616Y-95630248D01*
X92755616Y-95630248D02*
X92836428Y-95711060D01*
X92836428Y-95711060D02*
X92917241Y-95845747D01*
X92917241Y-95845747D02*
X92944178Y-95926560D01*
X92944178Y-95926560D02*
X92944178Y-96034309D01*
X92944178Y-96034309D02*
X92890303Y-96142059D01*
X92890303Y-96142059D02*
X92836428Y-96195934D01*
X92836428Y-96195934D02*
X92728679Y-96249808D01*
X92728679Y-96249808D02*
X92674804Y-96249808D01*
X92674804Y-96249808D02*
X92486242Y-96061247D01*
X92486242Y-96061247D02*
X92593992Y-95953497D01*
X92486242Y-96546120D02*
X91920557Y-95980434D01*
X91920557Y-95980434D02*
X91705057Y-96195934D01*
X91705057Y-96195934D02*
X91678120Y-96276746D01*
X91678120Y-96276746D02*
X91678120Y-96330621D01*
X91678120Y-96330621D02*
X91705057Y-96411433D01*
X91705057Y-96411433D02*
X91785870Y-96492245D01*
X91785870Y-96492245D02*
X91866682Y-96519182D01*
X91866682Y-96519182D02*
X91920557Y-96519182D01*
X91920557Y-96519182D02*
X92001369Y-96492245D01*
X92001369Y-96492245D02*
X92216868Y-96276746D01*
X91435683Y-96573057D02*
X91381809Y-96573057D01*
X91381809Y-96573057D02*
X91300996Y-96599995D01*
X91300996Y-96599995D02*
X91166309Y-96734682D01*
X91166309Y-96734682D02*
X91139372Y-96815494D01*
X91139372Y-96815494D02*
X91139372Y-96869369D01*
X91139372Y-96869369D02*
X91166309Y-96950181D01*
X91166309Y-96950181D02*
X91220184Y-97004056D01*
X91220184Y-97004056D02*
X91327934Y-97057930D01*
X91327934Y-97057930D02*
X91974431Y-97057930D01*
X91974431Y-97057930D02*
X91624245Y-97408117D01*
X90977747Y-97408117D02*
X91004685Y-97327305D01*
X91004685Y-97327305D02*
X91004685Y-97273430D01*
X91004685Y-97273430D02*
X90977747Y-97192618D01*
X90977747Y-97192618D02*
X90950810Y-97165680D01*
X90950810Y-97165680D02*
X90869998Y-97138743D01*
X90869998Y-97138743D02*
X90816123Y-97138743D01*
X90816123Y-97138743D02*
X90735311Y-97165680D01*
X90735311Y-97165680D02*
X90627561Y-97273430D01*
X90627561Y-97273430D02*
X90600624Y-97354242D01*
X90600624Y-97354242D02*
X90600624Y-97408117D01*
X90600624Y-97408117D02*
X90627561Y-97488929D01*
X90627561Y-97488929D02*
X90654499Y-97515866D01*
X90654499Y-97515866D02*
X90735311Y-97542804D01*
X90735311Y-97542804D02*
X90789186Y-97542804D01*
X90789186Y-97542804D02*
X90869998Y-97515866D01*
X90869998Y-97515866D02*
X90977747Y-97408117D01*
X90977747Y-97408117D02*
X91058560Y-97381179D01*
X91058560Y-97381179D02*
X91112434Y-97381179D01*
X91112434Y-97381179D02*
X91193247Y-97408117D01*
X91193247Y-97408117D02*
X91300996Y-97515866D01*
X91300996Y-97515866D02*
X91327934Y-97596679D01*
X91327934Y-97596679D02*
X91327934Y-97650553D01*
X91327934Y-97650553D02*
X91300996Y-97731366D01*
X91300996Y-97731366D02*
X91193247Y-97839115D01*
X91193247Y-97839115D02*
X91112434Y-97866053D01*
X91112434Y-97866053D02*
X91058560Y-97866053D01*
X91058560Y-97866053D02*
X90977747Y-97839115D01*
X90977747Y-97839115D02*
X90869998Y-97731366D01*
X90869998Y-97731366D02*
X90843060Y-97650553D01*
X90843060Y-97650553D02*
X90843060Y-97596679D01*
X90843060Y-97596679D02*
X90869998Y-97515866D01*
X80040242Y-95614749D02*
X80417366Y-96368996D01*
X80417366Y-96368996D02*
X79663118Y-95991873D01*
X80040242Y-96692245D02*
X79986367Y-96799995D01*
X79986367Y-96799995D02*
X79851680Y-96934682D01*
X79851680Y-96934682D02*
X79770868Y-96961619D01*
X79770868Y-96961619D02*
X79716993Y-96961619D01*
X79716993Y-96961619D02*
X79636181Y-96934682D01*
X79636181Y-96934682D02*
X79582306Y-96880807D01*
X79582306Y-96880807D02*
X79555369Y-96799995D01*
X79555369Y-96799995D02*
X79555369Y-96746120D01*
X79555369Y-96746120D02*
X79582306Y-96665308D01*
X79582306Y-96665308D02*
X79663118Y-96530621D01*
X79663118Y-96530621D02*
X79690056Y-96449808D01*
X79690056Y-96449808D02*
X79690056Y-96395934D01*
X79690056Y-96395934D02*
X79663118Y-96315121D01*
X79663118Y-96315121D02*
X79609244Y-96261247D01*
X79609244Y-96261247D02*
X79528431Y-96234309D01*
X79528431Y-96234309D02*
X79474557Y-96234309D01*
X79474557Y-96234309D02*
X79393744Y-96261247D01*
X79393744Y-96261247D02*
X79259057Y-96395934D01*
X79259057Y-96395934D02*
X79205183Y-96503683D01*
X79124370Y-97123244D02*
X79393744Y-97392618D01*
X79016621Y-96638370D02*
X79124370Y-97123244D01*
X79124370Y-97123244D02*
X78639497Y-97015494D01*
X79016621Y-97715866D02*
X78962746Y-97823616D01*
X78962746Y-97823616D02*
X78828059Y-97958303D01*
X78828059Y-97958303D02*
X78747247Y-97985240D01*
X78747247Y-97985240D02*
X78693372Y-97985240D01*
X78693372Y-97985240D02*
X78612560Y-97958303D01*
X78612560Y-97958303D02*
X78558685Y-97904428D01*
X78558685Y-97904428D02*
X78531748Y-97823616D01*
X78531748Y-97823616D02*
X78531748Y-97769741D01*
X78531748Y-97769741D02*
X78558685Y-97688929D01*
X78558685Y-97688929D02*
X78639497Y-97554242D01*
X78639497Y-97554242D02*
X78666435Y-97473430D01*
X78666435Y-97473430D02*
X78666435Y-97419555D01*
X78666435Y-97419555D02*
X78639497Y-97338743D01*
X78639497Y-97338743D02*
X78585622Y-97284868D01*
X78585622Y-97284868D02*
X78504810Y-97257930D01*
X78504810Y-97257930D02*
X78450935Y-97257930D01*
X78450935Y-97257930D02*
X78370123Y-97284868D01*
X78370123Y-97284868D02*
X78235436Y-97419555D01*
X78235436Y-97419555D02*
X78181561Y-97527304D01*
X82098431Y-69346435D02*
X82125368Y-69265623D01*
X82125368Y-69265623D02*
X82206180Y-69184811D01*
X82206180Y-69184811D02*
X82313930Y-69130936D01*
X82313930Y-69130936D02*
X82421680Y-69130936D01*
X82421680Y-69130936D02*
X82502492Y-69157873D01*
X82502492Y-69157873D02*
X82637179Y-69238685D01*
X82637179Y-69238685D02*
X82717991Y-69319498D01*
X82717991Y-69319498D02*
X82798803Y-69454185D01*
X82798803Y-69454185D02*
X82825741Y-69534997D01*
X82825741Y-69534997D02*
X82825741Y-69642746D01*
X82825741Y-69642746D02*
X82771866Y-69750496D01*
X82771866Y-69750496D02*
X82717991Y-69804371D01*
X82717991Y-69804371D02*
X82610241Y-69858246D01*
X82610241Y-69858246D02*
X82556367Y-69858246D01*
X82556367Y-69858246D02*
X82367805Y-69669684D01*
X82367805Y-69669684D02*
X82475554Y-69561934D01*
X82367805Y-70154557D02*
X81802119Y-69588872D01*
X81802119Y-69588872D02*
X82044556Y-70477806D01*
X82044556Y-70477806D02*
X81478871Y-69912120D01*
X81775182Y-70747180D02*
X81209497Y-70181494D01*
X81209497Y-70181494D02*
X81074810Y-70316181D01*
X81074810Y-70316181D02*
X81020935Y-70423931D01*
X81020935Y-70423931D02*
X81020935Y-70531680D01*
X81020935Y-70531680D02*
X81047872Y-70612493D01*
X81047872Y-70612493D02*
X81128685Y-70747180D01*
X81128685Y-70747180D02*
X81209497Y-70827992D01*
X81209497Y-70827992D02*
X81344184Y-70908804D01*
X81344184Y-70908804D02*
X81424996Y-70935741D01*
X81424996Y-70935741D02*
X81532746Y-70935741D01*
X81532746Y-70935741D02*
X81640495Y-70881867D01*
X81640495Y-70881867D02*
X81775182Y-70747180D01*
X110250868Y-68551998D02*
X110277805Y-68471185D01*
X110277805Y-68471185D02*
X110358618Y-68390373D01*
X110358618Y-68390373D02*
X110466367Y-68336498D01*
X110466367Y-68336498D02*
X110574117Y-68336498D01*
X110574117Y-68336498D02*
X110654929Y-68363436D01*
X110654929Y-68363436D02*
X110789616Y-68444248D01*
X110789616Y-68444248D02*
X110870428Y-68525060D01*
X110870428Y-68525060D02*
X110951241Y-68659747D01*
X110951241Y-68659747D02*
X110978178Y-68740560D01*
X110978178Y-68740560D02*
X110978178Y-68848309D01*
X110978178Y-68848309D02*
X110924303Y-68956059D01*
X110924303Y-68956059D02*
X110870428Y-69009934D01*
X110870428Y-69009934D02*
X110762679Y-69063808D01*
X110762679Y-69063808D02*
X110708804Y-69063808D01*
X110708804Y-69063808D02*
X110520242Y-68875247D01*
X110520242Y-68875247D02*
X110627992Y-68767497D01*
X110520242Y-69360120D02*
X109954557Y-68794434D01*
X109954557Y-68794434D02*
X109739057Y-69009934D01*
X109739057Y-69009934D02*
X109712120Y-69090746D01*
X109712120Y-69090746D02*
X109712120Y-69144621D01*
X109712120Y-69144621D02*
X109739057Y-69225433D01*
X109739057Y-69225433D02*
X109819870Y-69306245D01*
X109819870Y-69306245D02*
X109900682Y-69333182D01*
X109900682Y-69333182D02*
X109954557Y-69333182D01*
X109954557Y-69333182D02*
X110035369Y-69306245D01*
X110035369Y-69306245D02*
X110250868Y-69090746D01*
X109658245Y-70222117D02*
X109981494Y-69898868D01*
X109819870Y-70060492D02*
X109254184Y-69494807D01*
X109254184Y-69494807D02*
X109388871Y-69521744D01*
X109388871Y-69521744D02*
X109496621Y-69521744D01*
X109496621Y-69521744D02*
X109577433Y-69494807D01*
X108742373Y-70006618D02*
X108688499Y-70060492D01*
X108688499Y-70060492D02*
X108661561Y-70141305D01*
X108661561Y-70141305D02*
X108661561Y-70195179D01*
X108661561Y-70195179D02*
X108688499Y-70275992D01*
X108688499Y-70275992D02*
X108769311Y-70410679D01*
X108769311Y-70410679D02*
X108903998Y-70545366D01*
X108903998Y-70545366D02*
X109038685Y-70626178D01*
X109038685Y-70626178D02*
X109119497Y-70653115D01*
X109119497Y-70653115D02*
X109173372Y-70653115D01*
X109173372Y-70653115D02*
X109254184Y-70626178D01*
X109254184Y-70626178D02*
X109308059Y-70572303D01*
X109308059Y-70572303D02*
X109334996Y-70491491D01*
X109334996Y-70491491D02*
X109334996Y-70437616D01*
X109334996Y-70437616D02*
X109308059Y-70356804D01*
X109308059Y-70356804D02*
X109227247Y-70222117D01*
X109227247Y-70222117D02*
X109092560Y-70087430D01*
X109092560Y-70087430D02*
X108957873Y-70006618D01*
X108957873Y-70006618D02*
X108877060Y-69979680D01*
X108877060Y-69979680D02*
X108823186Y-69979680D01*
X108823186Y-69979680D02*
X108742373Y-70006618D01*
X105170868Y-95737998D02*
X105197805Y-95657185D01*
X105197805Y-95657185D02*
X105278618Y-95576373D01*
X105278618Y-95576373D02*
X105386367Y-95522498D01*
X105386367Y-95522498D02*
X105494117Y-95522498D01*
X105494117Y-95522498D02*
X105574929Y-95549436D01*
X105574929Y-95549436D02*
X105709616Y-95630248D01*
X105709616Y-95630248D02*
X105790428Y-95711060D01*
X105790428Y-95711060D02*
X105871241Y-95845747D01*
X105871241Y-95845747D02*
X105898178Y-95926560D01*
X105898178Y-95926560D02*
X105898178Y-96034309D01*
X105898178Y-96034309D02*
X105844303Y-96142059D01*
X105844303Y-96142059D02*
X105790428Y-96195934D01*
X105790428Y-96195934D02*
X105682679Y-96249808D01*
X105682679Y-96249808D02*
X105628804Y-96249808D01*
X105628804Y-96249808D02*
X105440242Y-96061247D01*
X105440242Y-96061247D02*
X105547992Y-95953497D01*
X105440242Y-96546120D02*
X104874557Y-95980434D01*
X104874557Y-95980434D02*
X104659057Y-96195934D01*
X104659057Y-96195934D02*
X104632120Y-96276746D01*
X104632120Y-96276746D02*
X104632120Y-96330621D01*
X104632120Y-96330621D02*
X104659057Y-96411433D01*
X104659057Y-96411433D02*
X104739870Y-96492245D01*
X104739870Y-96492245D02*
X104820682Y-96519182D01*
X104820682Y-96519182D02*
X104874557Y-96519182D01*
X104874557Y-96519182D02*
X104955369Y-96492245D01*
X104955369Y-96492245D02*
X105170868Y-96276746D01*
X104389683Y-96573057D02*
X104335809Y-96573057D01*
X104335809Y-96573057D02*
X104254996Y-96599995D01*
X104254996Y-96599995D02*
X104120309Y-96734682D01*
X104120309Y-96734682D02*
X104093372Y-96815494D01*
X104093372Y-96815494D02*
X104093372Y-96869369D01*
X104093372Y-96869369D02*
X104120309Y-96950181D01*
X104120309Y-96950181D02*
X104174184Y-97004056D01*
X104174184Y-97004056D02*
X104281934Y-97057930D01*
X104281934Y-97057930D02*
X104928431Y-97057930D01*
X104928431Y-97057930D02*
X104578245Y-97408117D01*
X103850935Y-97111805D02*
X103797060Y-97111805D01*
X103797060Y-97111805D02*
X103716248Y-97138743D01*
X103716248Y-97138743D02*
X103581561Y-97273430D01*
X103581561Y-97273430D02*
X103554624Y-97354242D01*
X103554624Y-97354242D02*
X103554624Y-97408117D01*
X103554624Y-97408117D02*
X103581561Y-97488929D01*
X103581561Y-97488929D02*
X103635436Y-97542804D01*
X103635436Y-97542804D02*
X103743186Y-97596679D01*
X103743186Y-97596679D02*
X104389683Y-97596679D01*
X104389683Y-97596679D02*
X104039497Y-97946865D01*
X89661494Y-68621372D02*
X89688431Y-68540560D01*
X89688431Y-68540560D02*
X89769243Y-68459748D01*
X89769243Y-68459748D02*
X89876993Y-68405873D01*
X89876993Y-68405873D02*
X89984742Y-68405873D01*
X89984742Y-68405873D02*
X90065555Y-68432810D01*
X90065555Y-68432810D02*
X90200242Y-68513623D01*
X90200242Y-68513623D02*
X90281054Y-68594435D01*
X90281054Y-68594435D02*
X90361866Y-68729122D01*
X90361866Y-68729122D02*
X90388803Y-68809934D01*
X90388803Y-68809934D02*
X90388803Y-68917684D01*
X90388803Y-68917684D02*
X90334929Y-69025433D01*
X90334929Y-69025433D02*
X90281054Y-69079308D01*
X90281054Y-69079308D02*
X90173304Y-69133183D01*
X90173304Y-69133183D02*
X90119429Y-69133183D01*
X90119429Y-69133183D02*
X89930868Y-68944621D01*
X89930868Y-68944621D02*
X90038617Y-68836871D01*
X89930868Y-69429494D02*
X89365182Y-68863809D01*
X89365182Y-68863809D02*
X89149683Y-69079308D01*
X89149683Y-69079308D02*
X89122746Y-69160120D01*
X89122746Y-69160120D02*
X89122746Y-69213995D01*
X89122746Y-69213995D02*
X89149683Y-69294807D01*
X89149683Y-69294807D02*
X89230495Y-69375619D01*
X89230495Y-69375619D02*
X89311307Y-69402557D01*
X89311307Y-69402557D02*
X89365182Y-69402557D01*
X89365182Y-69402557D02*
X89445994Y-69375619D01*
X89445994Y-69375619D02*
X89661494Y-69160120D01*
X88745622Y-69860493D02*
X89122746Y-70237616D01*
X88664810Y-69510306D02*
X89203558Y-69779680D01*
X89203558Y-69779680D02*
X88853372Y-70129867D01*
X107498431Y-95396435D02*
X107525368Y-95315623D01*
X107525368Y-95315623D02*
X107606180Y-95234811D01*
X107606180Y-95234811D02*
X107713930Y-95180936D01*
X107713930Y-95180936D02*
X107821680Y-95180936D01*
X107821680Y-95180936D02*
X107902492Y-95207873D01*
X107902492Y-95207873D02*
X108037179Y-95288685D01*
X108037179Y-95288685D02*
X108117991Y-95369498D01*
X108117991Y-95369498D02*
X108198803Y-95504185D01*
X108198803Y-95504185D02*
X108225741Y-95584997D01*
X108225741Y-95584997D02*
X108225741Y-95692746D01*
X108225741Y-95692746D02*
X108171866Y-95800496D01*
X108171866Y-95800496D02*
X108117991Y-95854371D01*
X108117991Y-95854371D02*
X108010241Y-95908246D01*
X108010241Y-95908246D02*
X107956367Y-95908246D01*
X107956367Y-95908246D02*
X107767805Y-95719684D01*
X107767805Y-95719684D02*
X107875554Y-95611934D01*
X107767805Y-96204557D02*
X107202119Y-95638872D01*
X107202119Y-95638872D02*
X107444556Y-96527806D01*
X107444556Y-96527806D02*
X106878871Y-95962120D01*
X107175182Y-96797180D02*
X106609497Y-96231494D01*
X106609497Y-96231494D02*
X106474810Y-96366181D01*
X106474810Y-96366181D02*
X106420935Y-96473931D01*
X106420935Y-96473931D02*
X106420935Y-96581680D01*
X106420935Y-96581680D02*
X106447872Y-96662493D01*
X106447872Y-96662493D02*
X106528685Y-96797180D01*
X106528685Y-96797180D02*
X106609497Y-96877992D01*
X106609497Y-96877992D02*
X106744184Y-96958804D01*
X106744184Y-96958804D02*
X106824996Y-96985741D01*
X106824996Y-96985741D02*
X106932746Y-96985741D01*
X106932746Y-96985741D02*
X107040495Y-96931867D01*
X107040495Y-96931867D02*
X107175182Y-96797180D01*
X100090868Y-95737998D02*
X100117805Y-95657185D01*
X100117805Y-95657185D02*
X100198618Y-95576373D01*
X100198618Y-95576373D02*
X100306367Y-95522498D01*
X100306367Y-95522498D02*
X100414117Y-95522498D01*
X100414117Y-95522498D02*
X100494929Y-95549436D01*
X100494929Y-95549436D02*
X100629616Y-95630248D01*
X100629616Y-95630248D02*
X100710428Y-95711060D01*
X100710428Y-95711060D02*
X100791241Y-95845747D01*
X100791241Y-95845747D02*
X100818178Y-95926560D01*
X100818178Y-95926560D02*
X100818178Y-96034309D01*
X100818178Y-96034309D02*
X100764303Y-96142059D01*
X100764303Y-96142059D02*
X100710428Y-96195934D01*
X100710428Y-96195934D02*
X100602679Y-96249808D01*
X100602679Y-96249808D02*
X100548804Y-96249808D01*
X100548804Y-96249808D02*
X100360242Y-96061247D01*
X100360242Y-96061247D02*
X100467992Y-95953497D01*
X100360242Y-96546120D02*
X99794557Y-95980434D01*
X99794557Y-95980434D02*
X99579057Y-96195934D01*
X99579057Y-96195934D02*
X99552120Y-96276746D01*
X99552120Y-96276746D02*
X99552120Y-96330621D01*
X99552120Y-96330621D02*
X99579057Y-96411433D01*
X99579057Y-96411433D02*
X99659870Y-96492245D01*
X99659870Y-96492245D02*
X99740682Y-96519182D01*
X99740682Y-96519182D02*
X99794557Y-96519182D01*
X99794557Y-96519182D02*
X99875369Y-96492245D01*
X99875369Y-96492245D02*
X100090868Y-96276746D01*
X99309683Y-96573057D02*
X99255809Y-96573057D01*
X99255809Y-96573057D02*
X99174996Y-96599995D01*
X99174996Y-96599995D02*
X99040309Y-96734682D01*
X99040309Y-96734682D02*
X99013372Y-96815494D01*
X99013372Y-96815494D02*
X99013372Y-96869369D01*
X99013372Y-96869369D02*
X99040309Y-96950181D01*
X99040309Y-96950181D02*
X99094184Y-97004056D01*
X99094184Y-97004056D02*
X99201934Y-97057930D01*
X99201934Y-97057930D02*
X99848431Y-97057930D01*
X99848431Y-97057930D02*
X99498245Y-97408117D01*
X98447686Y-97327305D02*
X98555436Y-97219555D01*
X98555436Y-97219555D02*
X98636248Y-97192618D01*
X98636248Y-97192618D02*
X98690123Y-97192618D01*
X98690123Y-97192618D02*
X98824810Y-97219555D01*
X98824810Y-97219555D02*
X98959497Y-97300367D01*
X98959497Y-97300367D02*
X99174996Y-97515866D01*
X99174996Y-97515866D02*
X99201934Y-97596679D01*
X99201934Y-97596679D02*
X99201934Y-97650553D01*
X99201934Y-97650553D02*
X99174996Y-97731366D01*
X99174996Y-97731366D02*
X99067247Y-97839115D01*
X99067247Y-97839115D02*
X98986434Y-97866053D01*
X98986434Y-97866053D02*
X98932560Y-97866053D01*
X98932560Y-97866053D02*
X98851747Y-97839115D01*
X98851747Y-97839115D02*
X98717060Y-97704428D01*
X98717060Y-97704428D02*
X98690123Y-97623616D01*
X98690123Y-97623616D02*
X98690123Y-97569741D01*
X98690123Y-97569741D02*
X98717060Y-97488929D01*
X98717060Y-97488929D02*
X98824810Y-97381179D01*
X98824810Y-97381179D02*
X98905622Y-97354242D01*
X98905622Y-97354242D02*
X98959497Y-97354242D01*
X98959497Y-97354242D02*
X99040309Y-97381179D01*
X95711240Y-95791873D02*
X95441866Y-96061247D01*
X95926739Y-95899623D02*
X95172492Y-95522499D01*
X95172492Y-95522499D02*
X95549615Y-96276746D01*
X94525994Y-96222871D02*
X94552932Y-96142059D01*
X94552932Y-96142059D02*
X94633744Y-96061247D01*
X94633744Y-96061247D02*
X94741494Y-96007372D01*
X94741494Y-96007372D02*
X94849243Y-96007372D01*
X94849243Y-96007372D02*
X94930055Y-96034310D01*
X94930055Y-96034310D02*
X95064742Y-96115122D01*
X95064742Y-96115122D02*
X95145555Y-96195934D01*
X95145555Y-96195934D02*
X95226367Y-96330621D01*
X95226367Y-96330621D02*
X95253304Y-96411433D01*
X95253304Y-96411433D02*
X95253304Y-96519183D01*
X95253304Y-96519183D02*
X95199429Y-96626932D01*
X95199429Y-96626932D02*
X95145555Y-96680807D01*
X95145555Y-96680807D02*
X95037805Y-96734682D01*
X95037805Y-96734682D02*
X94983930Y-96734682D01*
X94983930Y-96734682D02*
X94795368Y-96546120D01*
X94795368Y-96546120D02*
X94903118Y-96438371D01*
X94795368Y-97030993D02*
X94229683Y-96465308D01*
X94229683Y-96465308D02*
X94472120Y-97354242D01*
X94472120Y-97354242D02*
X93906434Y-96788557D01*
X94202746Y-97623616D02*
X93637060Y-97057931D01*
X93637060Y-97057931D02*
X93502373Y-97192618D01*
X93502373Y-97192618D02*
X93448498Y-97300367D01*
X93448498Y-97300367D02*
X93448498Y-97408117D01*
X93448498Y-97408117D02*
X93475436Y-97488929D01*
X93475436Y-97488929D02*
X93556248Y-97623616D01*
X93556248Y-97623616D02*
X93637060Y-97704428D01*
X93637060Y-97704428D02*
X93771747Y-97785241D01*
X93771747Y-97785241D02*
X93852560Y-97812178D01*
X93852560Y-97812178D02*
X93960309Y-97812178D01*
X93960309Y-97812178D02*
X94068059Y-97758303D01*
X94068059Y-97758303D02*
X94202746Y-97623616D01*
X84928584Y-95370407D02*
X84578398Y-95720593D01*
X84578398Y-95720593D02*
X84982459Y-95747531D01*
X84982459Y-95747531D02*
X84901646Y-95828343D01*
X84901646Y-95828343D02*
X84874709Y-95909155D01*
X84874709Y-95909155D02*
X84874709Y-95963030D01*
X84874709Y-95963030D02*
X84901646Y-96043842D01*
X84901646Y-96043842D02*
X85036333Y-96178529D01*
X85036333Y-96178529D02*
X85117146Y-96205467D01*
X85117146Y-96205467D02*
X85171020Y-96205467D01*
X85171020Y-96205467D02*
X85251833Y-96178529D01*
X85251833Y-96178529D02*
X85413457Y-96016905D01*
X85413457Y-96016905D02*
X85440394Y-95936093D01*
X85440394Y-95936093D02*
X85440394Y-95882218D01*
X84416773Y-95882218D02*
X84793897Y-96636465D01*
X84793897Y-96636465D02*
X84039649Y-96259342D01*
X83904963Y-96394028D02*
X83554776Y-96744215D01*
X83554776Y-96744215D02*
X83958837Y-96771152D01*
X83958837Y-96771152D02*
X83878025Y-96851964D01*
X83878025Y-96851964D02*
X83851088Y-96932776D01*
X83851088Y-96932776D02*
X83851088Y-96986651D01*
X83851088Y-96986651D02*
X83878025Y-97067464D01*
X83878025Y-97067464D02*
X84012712Y-97202151D01*
X84012712Y-97202151D02*
X84093524Y-97229088D01*
X84093524Y-97229088D02*
X84147399Y-97229088D01*
X84147399Y-97229088D02*
X84228211Y-97202151D01*
X84228211Y-97202151D02*
X84389836Y-97040526D01*
X84389836Y-97040526D02*
X84416773Y-96959714D01*
X84416773Y-96959714D02*
X84416773Y-96905839D01*
X84066587Y-97471525D02*
X83635588Y-97902523D01*
X83150715Y-97687024D02*
X82962153Y-97875586D01*
X83177652Y-98252709D02*
X83447026Y-97983335D01*
X83447026Y-97983335D02*
X82881341Y-97417650D01*
X82881341Y-97417650D02*
X82611967Y-97687024D01*
X82935215Y-98495146D02*
X82369530Y-97929461D01*
X82369530Y-97929461D02*
X82611967Y-98818395D01*
X82611967Y-98818395D02*
X82046281Y-98252710D01*
X125490868Y-95683998D02*
X125517805Y-95603185D01*
X125517805Y-95603185D02*
X125598618Y-95522373D01*
X125598618Y-95522373D02*
X125706367Y-95468498D01*
X125706367Y-95468498D02*
X125814117Y-95468498D01*
X125814117Y-95468498D02*
X125894929Y-95495436D01*
X125894929Y-95495436D02*
X126029616Y-95576248D01*
X126029616Y-95576248D02*
X126110428Y-95657060D01*
X126110428Y-95657060D02*
X126191241Y-95791747D01*
X126191241Y-95791747D02*
X126218178Y-95872560D01*
X126218178Y-95872560D02*
X126218178Y-95980309D01*
X126218178Y-95980309D02*
X126164303Y-96088059D01*
X126164303Y-96088059D02*
X126110428Y-96141934D01*
X126110428Y-96141934D02*
X126002679Y-96195808D01*
X126002679Y-96195808D02*
X125948804Y-96195808D01*
X125948804Y-96195808D02*
X125760242Y-96007247D01*
X125760242Y-96007247D02*
X125867992Y-95899497D01*
X125760242Y-96492120D02*
X125194557Y-95926434D01*
X125194557Y-95926434D02*
X124979057Y-96141934D01*
X124979057Y-96141934D02*
X124952120Y-96222746D01*
X124952120Y-96222746D02*
X124952120Y-96276621D01*
X124952120Y-96276621D02*
X124979057Y-96357433D01*
X124979057Y-96357433D02*
X125059870Y-96438245D01*
X125059870Y-96438245D02*
X125140682Y-96465182D01*
X125140682Y-96465182D02*
X125194557Y-96465182D01*
X125194557Y-96465182D02*
X125275369Y-96438245D01*
X125275369Y-96438245D02*
X125490868Y-96222746D01*
X124898245Y-97354117D02*
X125221494Y-97030868D01*
X125059870Y-97192492D02*
X124494184Y-96626807D01*
X124494184Y-96626807D02*
X124628871Y-96653744D01*
X124628871Y-96653744D02*
X124736621Y-96653744D01*
X124736621Y-96653744D02*
X124817433Y-96626807D01*
X123847686Y-97273305D02*
X123955436Y-97165555D01*
X123955436Y-97165555D02*
X124036248Y-97138618D01*
X124036248Y-97138618D02*
X124090123Y-97138618D01*
X124090123Y-97138618D02*
X124224810Y-97165555D01*
X124224810Y-97165555D02*
X124359497Y-97246367D01*
X124359497Y-97246367D02*
X124574996Y-97461866D01*
X124574996Y-97461866D02*
X124601934Y-97542679D01*
X124601934Y-97542679D02*
X124601934Y-97596553D01*
X124601934Y-97596553D02*
X124574996Y-97677366D01*
X124574996Y-97677366D02*
X124467247Y-97785115D01*
X124467247Y-97785115D02*
X124386434Y-97812053D01*
X124386434Y-97812053D02*
X124332560Y-97812053D01*
X124332560Y-97812053D02*
X124251747Y-97785115D01*
X124251747Y-97785115D02*
X124117060Y-97650428D01*
X124117060Y-97650428D02*
X124090123Y-97569616D01*
X124090123Y-97569616D02*
X124090123Y-97515741D01*
X124090123Y-97515741D02*
X124117060Y-97434929D01*
X124117060Y-97434929D02*
X124224810Y-97327179D01*
X124224810Y-97327179D02*
X124305622Y-97300242D01*
X124305622Y-97300242D02*
X124359497Y-97300242D01*
X124359497Y-97300242D02*
X124440309Y-97327179D01*
X102361494Y-68621372D02*
X102388431Y-68540560D01*
X102388431Y-68540560D02*
X102469243Y-68459748D01*
X102469243Y-68459748D02*
X102576993Y-68405873D01*
X102576993Y-68405873D02*
X102684742Y-68405873D01*
X102684742Y-68405873D02*
X102765555Y-68432810D01*
X102765555Y-68432810D02*
X102900242Y-68513623D01*
X102900242Y-68513623D02*
X102981054Y-68594435D01*
X102981054Y-68594435D02*
X103061866Y-68729122D01*
X103061866Y-68729122D02*
X103088803Y-68809934D01*
X103088803Y-68809934D02*
X103088803Y-68917684D01*
X103088803Y-68917684D02*
X103034929Y-69025433D01*
X103034929Y-69025433D02*
X102981054Y-69079308D01*
X102981054Y-69079308D02*
X102873304Y-69133183D01*
X102873304Y-69133183D02*
X102819429Y-69133183D01*
X102819429Y-69133183D02*
X102630868Y-68944621D01*
X102630868Y-68944621D02*
X102738617Y-68836871D01*
X102630868Y-69429494D02*
X102065182Y-68863809D01*
X102065182Y-68863809D02*
X101849683Y-69079308D01*
X101849683Y-69079308D02*
X101822746Y-69160120D01*
X101822746Y-69160120D02*
X101822746Y-69213995D01*
X101822746Y-69213995D02*
X101849683Y-69294807D01*
X101849683Y-69294807D02*
X101930495Y-69375619D01*
X101930495Y-69375619D02*
X102011307Y-69402557D01*
X102011307Y-69402557D02*
X102065182Y-69402557D01*
X102065182Y-69402557D02*
X102145994Y-69375619D01*
X102145994Y-69375619D02*
X102361494Y-69160120D01*
X101661121Y-69752743D02*
X101688059Y-69671931D01*
X101688059Y-69671931D02*
X101688059Y-69618056D01*
X101688059Y-69618056D02*
X101661121Y-69537244D01*
X101661121Y-69537244D02*
X101634184Y-69510306D01*
X101634184Y-69510306D02*
X101553372Y-69483369D01*
X101553372Y-69483369D02*
X101499497Y-69483369D01*
X101499497Y-69483369D02*
X101418685Y-69510306D01*
X101418685Y-69510306D02*
X101310935Y-69618056D01*
X101310935Y-69618056D02*
X101283998Y-69698868D01*
X101283998Y-69698868D02*
X101283998Y-69752743D01*
X101283998Y-69752743D02*
X101310935Y-69833555D01*
X101310935Y-69833555D02*
X101337872Y-69860493D01*
X101337872Y-69860493D02*
X101418685Y-69887430D01*
X101418685Y-69887430D02*
X101472559Y-69887430D01*
X101472559Y-69887430D02*
X101553372Y-69860493D01*
X101553372Y-69860493D02*
X101661121Y-69752743D01*
X101661121Y-69752743D02*
X101741933Y-69725806D01*
X101741933Y-69725806D02*
X101795808Y-69725806D01*
X101795808Y-69725806D02*
X101876620Y-69752743D01*
X101876620Y-69752743D02*
X101984370Y-69860493D01*
X101984370Y-69860493D02*
X102011307Y-69941305D01*
X102011307Y-69941305D02*
X102011307Y-69995180D01*
X102011307Y-69995180D02*
X101984370Y-70075992D01*
X101984370Y-70075992D02*
X101876620Y-70183741D01*
X101876620Y-70183741D02*
X101795808Y-70210679D01*
X101795808Y-70210679D02*
X101741933Y-70210679D01*
X101741933Y-70210679D02*
X101661121Y-70183741D01*
X101661121Y-70183741D02*
X101553372Y-70075992D01*
X101553372Y-70075992D02*
X101526434Y-69995180D01*
X101526434Y-69995180D02*
X101526434Y-69941305D01*
X101526434Y-69941305D02*
X101553372Y-69860493D01*
X84581494Y-68521372D02*
X84608431Y-68440560D01*
X84608431Y-68440560D02*
X84689243Y-68359748D01*
X84689243Y-68359748D02*
X84796993Y-68305873D01*
X84796993Y-68305873D02*
X84904742Y-68305873D01*
X84904742Y-68305873D02*
X84985555Y-68332810D01*
X84985555Y-68332810D02*
X85120242Y-68413623D01*
X85120242Y-68413623D02*
X85201054Y-68494435D01*
X85201054Y-68494435D02*
X85281866Y-68629122D01*
X85281866Y-68629122D02*
X85308803Y-68709934D01*
X85308803Y-68709934D02*
X85308803Y-68817684D01*
X85308803Y-68817684D02*
X85254929Y-68925433D01*
X85254929Y-68925433D02*
X85201054Y-68979308D01*
X85201054Y-68979308D02*
X85093304Y-69033183D01*
X85093304Y-69033183D02*
X85039429Y-69033183D01*
X85039429Y-69033183D02*
X84850868Y-68844621D01*
X84850868Y-68844621D02*
X84958617Y-68736871D01*
X84850868Y-69329494D02*
X84285182Y-68763809D01*
X84285182Y-68763809D02*
X84069683Y-68979308D01*
X84069683Y-68979308D02*
X84042746Y-69060120D01*
X84042746Y-69060120D02*
X84042746Y-69113995D01*
X84042746Y-69113995D02*
X84069683Y-69194807D01*
X84069683Y-69194807D02*
X84150495Y-69275619D01*
X84150495Y-69275619D02*
X84231307Y-69302557D01*
X84231307Y-69302557D02*
X84285182Y-69302557D01*
X84285182Y-69302557D02*
X84365994Y-69275619D01*
X84365994Y-69275619D02*
X84581494Y-69060120D01*
X83800309Y-69356432D02*
X83746434Y-69356432D01*
X83746434Y-69356432D02*
X83665622Y-69383369D01*
X83665622Y-69383369D02*
X83530935Y-69518056D01*
X83530935Y-69518056D02*
X83503998Y-69598868D01*
X83503998Y-69598868D02*
X83503998Y-69652743D01*
X83503998Y-69652743D02*
X83530935Y-69733555D01*
X83530935Y-69733555D02*
X83584810Y-69787430D01*
X83584810Y-69787430D02*
X83692559Y-69841305D01*
X83692559Y-69841305D02*
X84339057Y-69841305D01*
X84339057Y-69841305D02*
X83988871Y-70191491D01*
X90504049Y-95795064D02*
X90234675Y-96064438D01*
X90719549Y-95902813D02*
X89965301Y-95525690D01*
X89965301Y-95525690D02*
X90342425Y-96279937D01*
X90153863Y-96468499D02*
X89588178Y-95902813D01*
X89588178Y-95902813D02*
X89453491Y-96037500D01*
X89453491Y-96037500D02*
X89399616Y-96145250D01*
X89399616Y-96145250D02*
X89399616Y-96252999D01*
X89399616Y-96252999D02*
X89426553Y-96333812D01*
X89426553Y-96333812D02*
X89507366Y-96468499D01*
X89507366Y-96468499D02*
X89588178Y-96549311D01*
X89588178Y-96549311D02*
X89722865Y-96630123D01*
X89722865Y-96630123D02*
X89803677Y-96657060D01*
X89803677Y-96657060D02*
X89911427Y-96657060D01*
X89911427Y-96657060D02*
X90019176Y-96603186D01*
X90019176Y-96603186D02*
X90153863Y-96468499D01*
X89211054Y-97303558D02*
X89264929Y-97303558D01*
X89264929Y-97303558D02*
X89372679Y-97249683D01*
X89372679Y-97249683D02*
X89426553Y-97195808D01*
X89426553Y-97195808D02*
X89480428Y-97088059D01*
X89480428Y-97088059D02*
X89480428Y-96980309D01*
X89480428Y-96980309D02*
X89453491Y-96899497D01*
X89453491Y-96899497D02*
X89372679Y-96764810D01*
X89372679Y-96764810D02*
X89291866Y-96683998D01*
X89291866Y-96683998D02*
X89157179Y-96603186D01*
X89157179Y-96603186D02*
X89076367Y-96576248D01*
X89076367Y-96576248D02*
X88968618Y-96576248D01*
X88968618Y-96576248D02*
X88860868Y-96630123D01*
X88860868Y-96630123D02*
X88806993Y-96683998D01*
X88806993Y-96683998D02*
X88753118Y-96791747D01*
X88753118Y-96791747D02*
X88753118Y-96845622D01*
X89211054Y-97519057D02*
X88780056Y-97950056D01*
X88106621Y-97384370D02*
X88483744Y-98138618D01*
X88483744Y-98138618D02*
X87729497Y-97761494D01*
X87783372Y-98838990D02*
X87702560Y-98381054D01*
X88106621Y-98515741D02*
X87540935Y-97950056D01*
X87540935Y-97950056D02*
X87325436Y-98165555D01*
X87325436Y-98165555D02*
X87298499Y-98246367D01*
X87298499Y-98246367D02*
X87298499Y-98300242D01*
X87298499Y-98300242D02*
X87325436Y-98381054D01*
X87325436Y-98381054D02*
X87406248Y-98461866D01*
X87406248Y-98461866D02*
X87487061Y-98488804D01*
X87487061Y-98488804D02*
X87540935Y-98488804D01*
X87540935Y-98488804D02*
X87621748Y-98461866D01*
X87621748Y-98461866D02*
X87837247Y-98246367D01*
X87244624Y-98785115D02*
X87056062Y-98973677D01*
X87271561Y-99350800D02*
X87540935Y-99081426D01*
X87540935Y-99081426D02*
X86975250Y-98515741D01*
X86975250Y-98515741D02*
X86705876Y-98785115D01*
X86544251Y-99485488D02*
X86732813Y-99296926D01*
X87029125Y-99593237D02*
X86463439Y-99027552D01*
X86463439Y-99027552D02*
X86194065Y-99296926D01*
X92201494Y-68621372D02*
X92228431Y-68540560D01*
X92228431Y-68540560D02*
X92309243Y-68459748D01*
X92309243Y-68459748D02*
X92416993Y-68405873D01*
X92416993Y-68405873D02*
X92524742Y-68405873D01*
X92524742Y-68405873D02*
X92605555Y-68432810D01*
X92605555Y-68432810D02*
X92740242Y-68513623D01*
X92740242Y-68513623D02*
X92821054Y-68594435D01*
X92821054Y-68594435D02*
X92901866Y-68729122D01*
X92901866Y-68729122D02*
X92928803Y-68809934D01*
X92928803Y-68809934D02*
X92928803Y-68917684D01*
X92928803Y-68917684D02*
X92874929Y-69025433D01*
X92874929Y-69025433D02*
X92821054Y-69079308D01*
X92821054Y-69079308D02*
X92713304Y-69133183D01*
X92713304Y-69133183D02*
X92659429Y-69133183D01*
X92659429Y-69133183D02*
X92470868Y-68944621D01*
X92470868Y-68944621D02*
X92578617Y-68836871D01*
X92470868Y-69429494D02*
X91905182Y-68863809D01*
X91905182Y-68863809D02*
X91689683Y-69079308D01*
X91689683Y-69079308D02*
X91662746Y-69160120D01*
X91662746Y-69160120D02*
X91662746Y-69213995D01*
X91662746Y-69213995D02*
X91689683Y-69294807D01*
X91689683Y-69294807D02*
X91770495Y-69375619D01*
X91770495Y-69375619D02*
X91851307Y-69402557D01*
X91851307Y-69402557D02*
X91905182Y-69402557D01*
X91905182Y-69402557D02*
X91985994Y-69375619D01*
X91985994Y-69375619D02*
X92201494Y-69160120D01*
X91070123Y-69698868D02*
X91339497Y-69429494D01*
X91339497Y-69429494D02*
X91635808Y-69671931D01*
X91635808Y-69671931D02*
X91581933Y-69671931D01*
X91581933Y-69671931D02*
X91501121Y-69698868D01*
X91501121Y-69698868D02*
X91366434Y-69833555D01*
X91366434Y-69833555D02*
X91339497Y-69914367D01*
X91339497Y-69914367D02*
X91339497Y-69968242D01*
X91339497Y-69968242D02*
X91366434Y-70049054D01*
X91366434Y-70049054D02*
X91501121Y-70183741D01*
X91501121Y-70183741D02*
X91581933Y-70210679D01*
X91581933Y-70210679D02*
X91635808Y-70210679D01*
X91635808Y-70210679D02*
X91716620Y-70183741D01*
X91716620Y-70183741D02*
X91851307Y-70049054D01*
X91851307Y-70049054D02*
X91878245Y-69968242D01*
X91878245Y-69968242D02*
X91878245Y-69914367D01*
X127494200Y-86574761D02*
X127532295Y-86689047D01*
X127532295Y-86689047D02*
X127532295Y-86879523D01*
X127532295Y-86879523D02*
X127494200Y-86955714D01*
X127494200Y-86955714D02*
X127456104Y-86993809D01*
X127456104Y-86993809D02*
X127379914Y-87031904D01*
X127379914Y-87031904D02*
X127303723Y-87031904D01*
X127303723Y-87031904D02*
X127227533Y-86993809D01*
X127227533Y-86993809D02*
X127189438Y-86955714D01*
X127189438Y-86955714D02*
X127151342Y-86879523D01*
X127151342Y-86879523D02*
X127113247Y-86727142D01*
X127113247Y-86727142D02*
X127075152Y-86650952D01*
X127075152Y-86650952D02*
X127037057Y-86612857D01*
X127037057Y-86612857D02*
X126960866Y-86574761D01*
X126960866Y-86574761D02*
X126884676Y-86574761D01*
X126884676Y-86574761D02*
X126808485Y-86612857D01*
X126808485Y-86612857D02*
X126770390Y-86650952D01*
X126770390Y-86650952D02*
X126732295Y-86727142D01*
X126732295Y-86727142D02*
X126732295Y-86917619D01*
X126732295Y-86917619D02*
X126770390Y-87031904D01*
X126732295Y-87298571D02*
X127532295Y-87489047D01*
X127532295Y-87489047D02*
X126960866Y-87641428D01*
X126960866Y-87641428D02*
X127532295Y-87793809D01*
X127532295Y-87793809D02*
X126732295Y-87984286D01*
X127532295Y-88289048D02*
X126732295Y-88289048D01*
X126732295Y-88289048D02*
X126732295Y-88479524D01*
X126732295Y-88479524D02*
X126770390Y-88593810D01*
X126770390Y-88593810D02*
X126846580Y-88670000D01*
X126846580Y-88670000D02*
X126922771Y-88708095D01*
X126922771Y-88708095D02*
X127075152Y-88746191D01*
X127075152Y-88746191D02*
X127189438Y-88746191D01*
X127189438Y-88746191D02*
X127341819Y-88708095D01*
X127341819Y-88708095D02*
X127418009Y-88670000D01*
X127418009Y-88670000D02*
X127494200Y-88593810D01*
X127494200Y-88593810D02*
X127532295Y-88479524D01*
X127532295Y-88479524D02*
X127532295Y-88289048D01*
X127532295Y-89089048D02*
X126732295Y-89089048D01*
X126732295Y-89622381D02*
X126732295Y-89774762D01*
X126732295Y-89774762D02*
X126770390Y-89850952D01*
X126770390Y-89850952D02*
X126846580Y-89927143D01*
X126846580Y-89927143D02*
X126998961Y-89965238D01*
X126998961Y-89965238D02*
X127265628Y-89965238D01*
X127265628Y-89965238D02*
X127418009Y-89927143D01*
X127418009Y-89927143D02*
X127494200Y-89850952D01*
X127494200Y-89850952D02*
X127532295Y-89774762D01*
X127532295Y-89774762D02*
X127532295Y-89622381D01*
X127532295Y-89622381D02*
X127494200Y-89546190D01*
X127494200Y-89546190D02*
X127418009Y-89470000D01*
X127418009Y-89470000D02*
X127265628Y-89431904D01*
X127265628Y-89431904D02*
X126998961Y-89431904D01*
X126998961Y-89431904D02*
X126846580Y-89470000D01*
X126846580Y-89470000D02*
X126770390Y-89546190D01*
X126770390Y-89546190D02*
X126732295Y-89622381D01*
X117870868Y-68551998D02*
X117897805Y-68471185D01*
X117897805Y-68471185D02*
X117978618Y-68390373D01*
X117978618Y-68390373D02*
X118086367Y-68336498D01*
X118086367Y-68336498D02*
X118194117Y-68336498D01*
X118194117Y-68336498D02*
X118274929Y-68363436D01*
X118274929Y-68363436D02*
X118409616Y-68444248D01*
X118409616Y-68444248D02*
X118490428Y-68525060D01*
X118490428Y-68525060D02*
X118571241Y-68659747D01*
X118571241Y-68659747D02*
X118598178Y-68740560D01*
X118598178Y-68740560D02*
X118598178Y-68848309D01*
X118598178Y-68848309D02*
X118544303Y-68956059D01*
X118544303Y-68956059D02*
X118490428Y-69009934D01*
X118490428Y-69009934D02*
X118382679Y-69063808D01*
X118382679Y-69063808D02*
X118328804Y-69063808D01*
X118328804Y-69063808D02*
X118140242Y-68875247D01*
X118140242Y-68875247D02*
X118247992Y-68767497D01*
X118140242Y-69360120D02*
X117574557Y-68794434D01*
X117574557Y-68794434D02*
X117359057Y-69009934D01*
X117359057Y-69009934D02*
X117332120Y-69090746D01*
X117332120Y-69090746D02*
X117332120Y-69144621D01*
X117332120Y-69144621D02*
X117359057Y-69225433D01*
X117359057Y-69225433D02*
X117439870Y-69306245D01*
X117439870Y-69306245D02*
X117520682Y-69333182D01*
X117520682Y-69333182D02*
X117574557Y-69333182D01*
X117574557Y-69333182D02*
X117655369Y-69306245D01*
X117655369Y-69306245D02*
X117870868Y-69090746D01*
X117278245Y-70222117D02*
X117601494Y-69898868D01*
X117439870Y-70060492D02*
X116874184Y-69494807D01*
X116874184Y-69494807D02*
X117008871Y-69521744D01*
X117008871Y-69521744D02*
X117116621Y-69521744D01*
X117116621Y-69521744D02*
X117197433Y-69494807D01*
X116523998Y-69844993D02*
X116173812Y-70195179D01*
X116173812Y-70195179D02*
X116577873Y-70222117D01*
X116577873Y-70222117D02*
X116497060Y-70302929D01*
X116497060Y-70302929D02*
X116470123Y-70383741D01*
X116470123Y-70383741D02*
X116470123Y-70437616D01*
X116470123Y-70437616D02*
X116497060Y-70518428D01*
X116497060Y-70518428D02*
X116631747Y-70653115D01*
X116631747Y-70653115D02*
X116712560Y-70680053D01*
X116712560Y-70680053D02*
X116766434Y-70680053D01*
X116766434Y-70680053D02*
X116847247Y-70653115D01*
X116847247Y-70653115D02*
X117008871Y-70491491D01*
X117008871Y-70491491D02*
X117035808Y-70410679D01*
X117035808Y-70410679D02*
X117035808Y-70356804D01*
X122950868Y-68505998D02*
X122977805Y-68425185D01*
X122977805Y-68425185D02*
X123058618Y-68344373D01*
X123058618Y-68344373D02*
X123166367Y-68290498D01*
X123166367Y-68290498D02*
X123274117Y-68290498D01*
X123274117Y-68290498D02*
X123354929Y-68317436D01*
X123354929Y-68317436D02*
X123489616Y-68398248D01*
X123489616Y-68398248D02*
X123570428Y-68479060D01*
X123570428Y-68479060D02*
X123651241Y-68613747D01*
X123651241Y-68613747D02*
X123678178Y-68694560D01*
X123678178Y-68694560D02*
X123678178Y-68802309D01*
X123678178Y-68802309D02*
X123624303Y-68910059D01*
X123624303Y-68910059D02*
X123570428Y-68963934D01*
X123570428Y-68963934D02*
X123462679Y-69017808D01*
X123462679Y-69017808D02*
X123408804Y-69017808D01*
X123408804Y-69017808D02*
X123220242Y-68829247D01*
X123220242Y-68829247D02*
X123327992Y-68721497D01*
X123220242Y-69314120D02*
X122654557Y-68748434D01*
X122654557Y-68748434D02*
X122439057Y-68963934D01*
X122439057Y-68963934D02*
X122412120Y-69044746D01*
X122412120Y-69044746D02*
X122412120Y-69098621D01*
X122412120Y-69098621D02*
X122439057Y-69179433D01*
X122439057Y-69179433D02*
X122519870Y-69260245D01*
X122519870Y-69260245D02*
X122600682Y-69287182D01*
X122600682Y-69287182D02*
X122654557Y-69287182D01*
X122654557Y-69287182D02*
X122735369Y-69260245D01*
X122735369Y-69260245D02*
X122950868Y-69044746D01*
X122358245Y-70176117D02*
X122681494Y-69852868D01*
X122519870Y-70014492D02*
X121954184Y-69448807D01*
X121954184Y-69448807D02*
X122088871Y-69475744D01*
X122088871Y-69475744D02*
X122196621Y-69475744D01*
X122196621Y-69475744D02*
X122277433Y-69448807D01*
X121496248Y-70283866D02*
X121873372Y-70660990D01*
X121415436Y-69933680D02*
X121954184Y-70203054D01*
X121954184Y-70203054D02*
X121603998Y-70553240D01*
X112790868Y-68405998D02*
X112817805Y-68325185D01*
X112817805Y-68325185D02*
X112898618Y-68244373D01*
X112898618Y-68244373D02*
X113006367Y-68190498D01*
X113006367Y-68190498D02*
X113114117Y-68190498D01*
X113114117Y-68190498D02*
X113194929Y-68217436D01*
X113194929Y-68217436D02*
X113329616Y-68298248D01*
X113329616Y-68298248D02*
X113410428Y-68379060D01*
X113410428Y-68379060D02*
X113491241Y-68513747D01*
X113491241Y-68513747D02*
X113518178Y-68594560D01*
X113518178Y-68594560D02*
X113518178Y-68702309D01*
X113518178Y-68702309D02*
X113464303Y-68810059D01*
X113464303Y-68810059D02*
X113410428Y-68863934D01*
X113410428Y-68863934D02*
X113302679Y-68917808D01*
X113302679Y-68917808D02*
X113248804Y-68917808D01*
X113248804Y-68917808D02*
X113060242Y-68729247D01*
X113060242Y-68729247D02*
X113167992Y-68621497D01*
X113060242Y-69214120D02*
X112494557Y-68648434D01*
X112494557Y-68648434D02*
X112279057Y-68863934D01*
X112279057Y-68863934D02*
X112252120Y-68944746D01*
X112252120Y-68944746D02*
X112252120Y-68998621D01*
X112252120Y-68998621D02*
X112279057Y-69079433D01*
X112279057Y-69079433D02*
X112359870Y-69160245D01*
X112359870Y-69160245D02*
X112440682Y-69187182D01*
X112440682Y-69187182D02*
X112494557Y-69187182D01*
X112494557Y-69187182D02*
X112575369Y-69160245D01*
X112575369Y-69160245D02*
X112790868Y-68944746D01*
X112198245Y-70076117D02*
X112521494Y-69752868D01*
X112359870Y-69914492D02*
X111794184Y-69348807D01*
X111794184Y-69348807D02*
X111928871Y-69375744D01*
X111928871Y-69375744D02*
X112036621Y-69375744D01*
X112036621Y-69375744D02*
X112117433Y-69348807D01*
X111659497Y-70614865D02*
X111982746Y-70291616D01*
X111821121Y-70453240D02*
X111255436Y-69887555D01*
X111255436Y-69887555D02*
X111390123Y-69914492D01*
X111390123Y-69914492D02*
X111497873Y-69914492D01*
X111497873Y-69914492D02*
X111578685Y-69887555D01*
X127494200Y-75160475D02*
X127532295Y-75274761D01*
X127532295Y-75274761D02*
X127532295Y-75465237D01*
X127532295Y-75465237D02*
X127494200Y-75541428D01*
X127494200Y-75541428D02*
X127456104Y-75579523D01*
X127456104Y-75579523D02*
X127379914Y-75617618D01*
X127379914Y-75617618D02*
X127303723Y-75617618D01*
X127303723Y-75617618D02*
X127227533Y-75579523D01*
X127227533Y-75579523D02*
X127189438Y-75541428D01*
X127189438Y-75541428D02*
X127151342Y-75465237D01*
X127151342Y-75465237D02*
X127113247Y-75312856D01*
X127113247Y-75312856D02*
X127075152Y-75236666D01*
X127075152Y-75236666D02*
X127037057Y-75198571D01*
X127037057Y-75198571D02*
X126960866Y-75160475D01*
X126960866Y-75160475D02*
X126884676Y-75160475D01*
X126884676Y-75160475D02*
X126808485Y-75198571D01*
X126808485Y-75198571D02*
X126770390Y-75236666D01*
X126770390Y-75236666D02*
X126732295Y-75312856D01*
X126732295Y-75312856D02*
X126732295Y-75503333D01*
X126732295Y-75503333D02*
X126770390Y-75617618D01*
X126732295Y-75884285D02*
X127532295Y-76074761D01*
X127532295Y-76074761D02*
X126960866Y-76227142D01*
X126960866Y-76227142D02*
X127532295Y-76379523D01*
X127532295Y-76379523D02*
X126732295Y-76570000D01*
X127456104Y-77331905D02*
X127494200Y-77293809D01*
X127494200Y-77293809D02*
X127532295Y-77179524D01*
X127532295Y-77179524D02*
X127532295Y-77103333D01*
X127532295Y-77103333D02*
X127494200Y-76989047D01*
X127494200Y-76989047D02*
X127418009Y-76912857D01*
X127418009Y-76912857D02*
X127341819Y-76874762D01*
X127341819Y-76874762D02*
X127189438Y-76836666D01*
X127189438Y-76836666D02*
X127075152Y-76836666D01*
X127075152Y-76836666D02*
X126922771Y-76874762D01*
X126922771Y-76874762D02*
X126846580Y-76912857D01*
X126846580Y-76912857D02*
X126770390Y-76989047D01*
X126770390Y-76989047D02*
X126732295Y-77103333D01*
X126732295Y-77103333D02*
X126732295Y-77179524D01*
X126732295Y-77179524D02*
X126770390Y-77293809D01*
X126770390Y-77293809D02*
X126808485Y-77331905D01*
X127532295Y-78055714D02*
X127532295Y-77674762D01*
X127532295Y-77674762D02*
X126732295Y-77674762D01*
X127532295Y-78322381D02*
X126732295Y-78322381D01*
X127532295Y-78779524D02*
X127075152Y-78436666D01*
X126732295Y-78779524D02*
X127189438Y-78322381D01*
X81986431Y-96086435D02*
X82013368Y-96005623D01*
X82013368Y-96005623D02*
X82094180Y-95924811D01*
X82094180Y-95924811D02*
X82201930Y-95870936D01*
X82201930Y-95870936D02*
X82309680Y-95870936D01*
X82309680Y-95870936D02*
X82390492Y-95897873D01*
X82390492Y-95897873D02*
X82525179Y-95978685D01*
X82525179Y-95978685D02*
X82605991Y-96059498D01*
X82605991Y-96059498D02*
X82686803Y-96194185D01*
X82686803Y-96194185D02*
X82713741Y-96274997D01*
X82713741Y-96274997D02*
X82713741Y-96382746D01*
X82713741Y-96382746D02*
X82659866Y-96490496D01*
X82659866Y-96490496D02*
X82605991Y-96544371D01*
X82605991Y-96544371D02*
X82498241Y-96598246D01*
X82498241Y-96598246D02*
X82444367Y-96598246D01*
X82444367Y-96598246D02*
X82255805Y-96409684D01*
X82255805Y-96409684D02*
X82363554Y-96301934D01*
X82255805Y-96894557D02*
X81690119Y-96328872D01*
X81690119Y-96328872D02*
X81932556Y-97217806D01*
X81932556Y-97217806D02*
X81366871Y-96652120D01*
X81663182Y-97487180D02*
X81097497Y-96921494D01*
X81097497Y-96921494D02*
X80962810Y-97056181D01*
X80962810Y-97056181D02*
X80908935Y-97163931D01*
X80908935Y-97163931D02*
X80908935Y-97271680D01*
X80908935Y-97271680D02*
X80935872Y-97352493D01*
X80935872Y-97352493D02*
X81016685Y-97487180D01*
X81016685Y-97487180D02*
X81097497Y-97567992D01*
X81097497Y-97567992D02*
X81232184Y-97648804D01*
X81232184Y-97648804D02*
X81312996Y-97675741D01*
X81312996Y-97675741D02*
X81420746Y-97675741D01*
X81420746Y-97675741D02*
X81528495Y-97621867D01*
X81528495Y-97621867D02*
X81663182Y-97487180D01*
X107498431Y-69346435D02*
X107525368Y-69265623D01*
X107525368Y-69265623D02*
X107606180Y-69184811D01*
X107606180Y-69184811D02*
X107713930Y-69130936D01*
X107713930Y-69130936D02*
X107821680Y-69130936D01*
X107821680Y-69130936D02*
X107902492Y-69157873D01*
X107902492Y-69157873D02*
X108037179Y-69238685D01*
X108037179Y-69238685D02*
X108117991Y-69319498D01*
X108117991Y-69319498D02*
X108198803Y-69454185D01*
X108198803Y-69454185D02*
X108225741Y-69534997D01*
X108225741Y-69534997D02*
X108225741Y-69642746D01*
X108225741Y-69642746D02*
X108171866Y-69750496D01*
X108171866Y-69750496D02*
X108117991Y-69804371D01*
X108117991Y-69804371D02*
X108010241Y-69858246D01*
X108010241Y-69858246D02*
X107956367Y-69858246D01*
X107956367Y-69858246D02*
X107767805Y-69669684D01*
X107767805Y-69669684D02*
X107875554Y-69561934D01*
X107767805Y-70154557D02*
X107202119Y-69588872D01*
X107202119Y-69588872D02*
X107444556Y-70477806D01*
X107444556Y-70477806D02*
X106878871Y-69912120D01*
X107175182Y-70747180D02*
X106609497Y-70181494D01*
X106609497Y-70181494D02*
X106474810Y-70316181D01*
X106474810Y-70316181D02*
X106420935Y-70423931D01*
X106420935Y-70423931D02*
X106420935Y-70531680D01*
X106420935Y-70531680D02*
X106447872Y-70612493D01*
X106447872Y-70612493D02*
X106528685Y-70747180D01*
X106528685Y-70747180D02*
X106609497Y-70827992D01*
X106609497Y-70827992D02*
X106744184Y-70908804D01*
X106744184Y-70908804D02*
X106824996Y-70935741D01*
X106824996Y-70935741D02*
X106932746Y-70935741D01*
X106932746Y-70935741D02*
X107040495Y-70881867D01*
X107040495Y-70881867D02*
X107175182Y-70747180D01*
X120198431Y-68396435D02*
X120225368Y-68315623D01*
X120225368Y-68315623D02*
X120306180Y-68234811D01*
X120306180Y-68234811D02*
X120413930Y-68180936D01*
X120413930Y-68180936D02*
X120521680Y-68180936D01*
X120521680Y-68180936D02*
X120602492Y-68207873D01*
X120602492Y-68207873D02*
X120737179Y-68288685D01*
X120737179Y-68288685D02*
X120817991Y-68369498D01*
X120817991Y-68369498D02*
X120898803Y-68504185D01*
X120898803Y-68504185D02*
X120925741Y-68584997D01*
X120925741Y-68584997D02*
X120925741Y-68692746D01*
X120925741Y-68692746D02*
X120871866Y-68800496D01*
X120871866Y-68800496D02*
X120817991Y-68854371D01*
X120817991Y-68854371D02*
X120710241Y-68908246D01*
X120710241Y-68908246D02*
X120656367Y-68908246D01*
X120656367Y-68908246D02*
X120467805Y-68719684D01*
X120467805Y-68719684D02*
X120575554Y-68611934D01*
X120467805Y-69204557D02*
X119902119Y-68638872D01*
X119902119Y-68638872D02*
X120144556Y-69527806D01*
X120144556Y-69527806D02*
X119578871Y-68962120D01*
X119875182Y-69797180D02*
X119309497Y-69231494D01*
X119309497Y-69231494D02*
X119174810Y-69366181D01*
X119174810Y-69366181D02*
X119120935Y-69473931D01*
X119120935Y-69473931D02*
X119120935Y-69581680D01*
X119120935Y-69581680D02*
X119147872Y-69662493D01*
X119147872Y-69662493D02*
X119228685Y-69797180D01*
X119228685Y-69797180D02*
X119309497Y-69877992D01*
X119309497Y-69877992D02*
X119444184Y-69958804D01*
X119444184Y-69958804D02*
X119524996Y-69985741D01*
X119524996Y-69985741D02*
X119632746Y-69985741D01*
X119632746Y-69985741D02*
X119740495Y-69931867D01*
X119740495Y-69931867D02*
X119875182Y-69797180D01*
X87121494Y-68621372D02*
X87148431Y-68540560D01*
X87148431Y-68540560D02*
X87229243Y-68459748D01*
X87229243Y-68459748D02*
X87336993Y-68405873D01*
X87336993Y-68405873D02*
X87444742Y-68405873D01*
X87444742Y-68405873D02*
X87525555Y-68432810D01*
X87525555Y-68432810D02*
X87660242Y-68513623D01*
X87660242Y-68513623D02*
X87741054Y-68594435D01*
X87741054Y-68594435D02*
X87821866Y-68729122D01*
X87821866Y-68729122D02*
X87848803Y-68809934D01*
X87848803Y-68809934D02*
X87848803Y-68917684D01*
X87848803Y-68917684D02*
X87794929Y-69025433D01*
X87794929Y-69025433D02*
X87741054Y-69079308D01*
X87741054Y-69079308D02*
X87633304Y-69133183D01*
X87633304Y-69133183D02*
X87579429Y-69133183D01*
X87579429Y-69133183D02*
X87390868Y-68944621D01*
X87390868Y-68944621D02*
X87498617Y-68836871D01*
X87390868Y-69429494D02*
X86825182Y-68863809D01*
X86825182Y-68863809D02*
X86609683Y-69079308D01*
X86609683Y-69079308D02*
X86582746Y-69160120D01*
X86582746Y-69160120D02*
X86582746Y-69213995D01*
X86582746Y-69213995D02*
X86609683Y-69294807D01*
X86609683Y-69294807D02*
X86690495Y-69375619D01*
X86690495Y-69375619D02*
X86771307Y-69402557D01*
X86771307Y-69402557D02*
X86825182Y-69402557D01*
X86825182Y-69402557D02*
X86905994Y-69375619D01*
X86905994Y-69375619D02*
X87121494Y-69160120D01*
X86313372Y-69375619D02*
X85963185Y-69725806D01*
X85963185Y-69725806D02*
X86367246Y-69752743D01*
X86367246Y-69752743D02*
X86286434Y-69833555D01*
X86286434Y-69833555D02*
X86259497Y-69914367D01*
X86259497Y-69914367D02*
X86259497Y-69968242D01*
X86259497Y-69968242D02*
X86286434Y-70049054D01*
X86286434Y-70049054D02*
X86421121Y-70183741D01*
X86421121Y-70183741D02*
X86501933Y-70210679D01*
X86501933Y-70210679D02*
X86555808Y-70210679D01*
X86555808Y-70210679D02*
X86636620Y-70183741D01*
X86636620Y-70183741D02*
X86798245Y-70022117D01*
X86798245Y-70022117D02*
X86825182Y-69941305D01*
X86825182Y-69941305D02*
X86825182Y-69887430D01*
X122950868Y-95737998D02*
X122977805Y-95657185D01*
X122977805Y-95657185D02*
X123058618Y-95576373D01*
X123058618Y-95576373D02*
X123166367Y-95522498D01*
X123166367Y-95522498D02*
X123274117Y-95522498D01*
X123274117Y-95522498D02*
X123354929Y-95549436D01*
X123354929Y-95549436D02*
X123489616Y-95630248D01*
X123489616Y-95630248D02*
X123570428Y-95711060D01*
X123570428Y-95711060D02*
X123651241Y-95845747D01*
X123651241Y-95845747D02*
X123678178Y-95926560D01*
X123678178Y-95926560D02*
X123678178Y-96034309D01*
X123678178Y-96034309D02*
X123624303Y-96142059D01*
X123624303Y-96142059D02*
X123570428Y-96195934D01*
X123570428Y-96195934D02*
X123462679Y-96249808D01*
X123462679Y-96249808D02*
X123408804Y-96249808D01*
X123408804Y-96249808D02*
X123220242Y-96061247D01*
X123220242Y-96061247D02*
X123327992Y-95953497D01*
X123220242Y-96546120D02*
X122654557Y-95980434D01*
X122654557Y-95980434D02*
X122439057Y-96195934D01*
X122439057Y-96195934D02*
X122412120Y-96276746D01*
X122412120Y-96276746D02*
X122412120Y-96330621D01*
X122412120Y-96330621D02*
X122439057Y-96411433D01*
X122439057Y-96411433D02*
X122519870Y-96492245D01*
X122519870Y-96492245D02*
X122600682Y-96519182D01*
X122600682Y-96519182D02*
X122654557Y-96519182D01*
X122654557Y-96519182D02*
X122735369Y-96492245D01*
X122735369Y-96492245D02*
X122950868Y-96276746D01*
X122358245Y-97408117D02*
X122681494Y-97084868D01*
X122519870Y-97246492D02*
X121954184Y-96680807D01*
X121954184Y-96680807D02*
X122088871Y-96707744D01*
X122088871Y-96707744D02*
X122196621Y-96707744D01*
X122196621Y-96707744D02*
X122277433Y-96680807D01*
X121603998Y-97030993D02*
X121226874Y-97408117D01*
X121226874Y-97408117D02*
X122034996Y-97731366D01*
X87460868Y-95530123D02*
X87110682Y-95880309D01*
X87110682Y-95880309D02*
X87514743Y-95907247D01*
X87514743Y-95907247D02*
X87433931Y-95988059D01*
X87433931Y-95988059D02*
X87406993Y-96068871D01*
X87406993Y-96068871D02*
X87406993Y-96122746D01*
X87406993Y-96122746D02*
X87433931Y-96203558D01*
X87433931Y-96203558D02*
X87568618Y-96338245D01*
X87568618Y-96338245D02*
X87649430Y-96365182D01*
X87649430Y-96365182D02*
X87703305Y-96365182D01*
X87703305Y-96365182D02*
X87784117Y-96338245D01*
X87784117Y-96338245D02*
X87945741Y-96176621D01*
X87945741Y-96176621D02*
X87972679Y-96095808D01*
X87972679Y-96095808D02*
X87972679Y-96041934D01*
X86949057Y-96041934D02*
X87326181Y-96796181D01*
X87326181Y-96796181D02*
X86571934Y-96419057D01*
X86437247Y-96553744D02*
X86087061Y-96903930D01*
X86087061Y-96903930D02*
X86491122Y-96930868D01*
X86491122Y-96930868D02*
X86410309Y-97011680D01*
X86410309Y-97011680D02*
X86383372Y-97092492D01*
X86383372Y-97092492D02*
X86383372Y-97146367D01*
X86383372Y-97146367D02*
X86410309Y-97227179D01*
X86410309Y-97227179D02*
X86544996Y-97361866D01*
X86544996Y-97361866D02*
X86625809Y-97388804D01*
X86625809Y-97388804D02*
X86679683Y-97388804D01*
X86679683Y-97388804D02*
X86760496Y-97361866D01*
X86760496Y-97361866D02*
X86922120Y-97200242D01*
X86922120Y-97200242D02*
X86949057Y-97119430D01*
X86949057Y-97119430D02*
X86949057Y-97065555D01*
X97281494Y-68621372D02*
X97308431Y-68540560D01*
X97308431Y-68540560D02*
X97389243Y-68459748D01*
X97389243Y-68459748D02*
X97496993Y-68405873D01*
X97496993Y-68405873D02*
X97604742Y-68405873D01*
X97604742Y-68405873D02*
X97685555Y-68432810D01*
X97685555Y-68432810D02*
X97820242Y-68513623D01*
X97820242Y-68513623D02*
X97901054Y-68594435D01*
X97901054Y-68594435D02*
X97981866Y-68729122D01*
X97981866Y-68729122D02*
X98008803Y-68809934D01*
X98008803Y-68809934D02*
X98008803Y-68917684D01*
X98008803Y-68917684D02*
X97954929Y-69025433D01*
X97954929Y-69025433D02*
X97901054Y-69079308D01*
X97901054Y-69079308D02*
X97793304Y-69133183D01*
X97793304Y-69133183D02*
X97739429Y-69133183D01*
X97739429Y-69133183D02*
X97550868Y-68944621D01*
X97550868Y-68944621D02*
X97658617Y-68836871D01*
X97550868Y-69429494D02*
X96985182Y-68863809D01*
X96985182Y-68863809D02*
X96769683Y-69079308D01*
X96769683Y-69079308D02*
X96742746Y-69160120D01*
X96742746Y-69160120D02*
X96742746Y-69213995D01*
X96742746Y-69213995D02*
X96769683Y-69294807D01*
X96769683Y-69294807D02*
X96850495Y-69375619D01*
X96850495Y-69375619D02*
X96931307Y-69402557D01*
X96931307Y-69402557D02*
X96985182Y-69402557D01*
X96985182Y-69402557D02*
X97065994Y-69375619D01*
X97065994Y-69375619D02*
X97281494Y-69160120D01*
X96177060Y-69671931D02*
X96284810Y-69564181D01*
X96284810Y-69564181D02*
X96365622Y-69537244D01*
X96365622Y-69537244D02*
X96419497Y-69537244D01*
X96419497Y-69537244D02*
X96554184Y-69564181D01*
X96554184Y-69564181D02*
X96688871Y-69644993D01*
X96688871Y-69644993D02*
X96904370Y-69860493D01*
X96904370Y-69860493D02*
X96931307Y-69941305D01*
X96931307Y-69941305D02*
X96931307Y-69995180D01*
X96931307Y-69995180D02*
X96904370Y-70075992D01*
X96904370Y-70075992D02*
X96796620Y-70183741D01*
X96796620Y-70183741D02*
X96715808Y-70210679D01*
X96715808Y-70210679D02*
X96661933Y-70210679D01*
X96661933Y-70210679D02*
X96581121Y-70183741D01*
X96581121Y-70183741D02*
X96446434Y-70049054D01*
X96446434Y-70049054D02*
X96419497Y-69968242D01*
X96419497Y-69968242D02*
X96419497Y-69914367D01*
X96419497Y-69914367D02*
X96446434Y-69833555D01*
X96446434Y-69833555D02*
X96554184Y-69725806D01*
X96554184Y-69725806D02*
X96634996Y-69698868D01*
X96634996Y-69698868D02*
X96688871Y-69698868D01*
X96688871Y-69698868D02*
X96769683Y-69725806D01*
X97560868Y-95737998D02*
X97587805Y-95657185D01*
X97587805Y-95657185D02*
X97668618Y-95576373D01*
X97668618Y-95576373D02*
X97776367Y-95522498D01*
X97776367Y-95522498D02*
X97884117Y-95522498D01*
X97884117Y-95522498D02*
X97964929Y-95549436D01*
X97964929Y-95549436D02*
X98099616Y-95630248D01*
X98099616Y-95630248D02*
X98180428Y-95711060D01*
X98180428Y-95711060D02*
X98261241Y-95845747D01*
X98261241Y-95845747D02*
X98288178Y-95926560D01*
X98288178Y-95926560D02*
X98288178Y-96034309D01*
X98288178Y-96034309D02*
X98234303Y-96142059D01*
X98234303Y-96142059D02*
X98180428Y-96195934D01*
X98180428Y-96195934D02*
X98072679Y-96249808D01*
X98072679Y-96249808D02*
X98018804Y-96249808D01*
X98018804Y-96249808D02*
X97830242Y-96061247D01*
X97830242Y-96061247D02*
X97937992Y-95953497D01*
X97830242Y-96546120D02*
X97264557Y-95980434D01*
X97264557Y-95980434D02*
X97049057Y-96195934D01*
X97049057Y-96195934D02*
X97022120Y-96276746D01*
X97022120Y-96276746D02*
X97022120Y-96330621D01*
X97022120Y-96330621D02*
X97049057Y-96411433D01*
X97049057Y-96411433D02*
X97129870Y-96492245D01*
X97129870Y-96492245D02*
X97210682Y-96519182D01*
X97210682Y-96519182D02*
X97264557Y-96519182D01*
X97264557Y-96519182D02*
X97345369Y-96492245D01*
X97345369Y-96492245D02*
X97560868Y-96276746D01*
X96779683Y-96573057D02*
X96725809Y-96573057D01*
X96725809Y-96573057D02*
X96644996Y-96599995D01*
X96644996Y-96599995D02*
X96510309Y-96734682D01*
X96510309Y-96734682D02*
X96483372Y-96815494D01*
X96483372Y-96815494D02*
X96483372Y-96869369D01*
X96483372Y-96869369D02*
X96510309Y-96950181D01*
X96510309Y-96950181D02*
X96564184Y-97004056D01*
X96564184Y-97004056D02*
X96671934Y-97057930D01*
X96671934Y-97057930D02*
X97318431Y-97057930D01*
X97318431Y-97057930D02*
X96968245Y-97408117D01*
X96213998Y-97030993D02*
X95836874Y-97408117D01*
X95836874Y-97408117D02*
X96644996Y-97731366D01*
X110260868Y-95737998D02*
X110287805Y-95657185D01*
X110287805Y-95657185D02*
X110368618Y-95576373D01*
X110368618Y-95576373D02*
X110476367Y-95522498D01*
X110476367Y-95522498D02*
X110584117Y-95522498D01*
X110584117Y-95522498D02*
X110664929Y-95549436D01*
X110664929Y-95549436D02*
X110799616Y-95630248D01*
X110799616Y-95630248D02*
X110880428Y-95711060D01*
X110880428Y-95711060D02*
X110961241Y-95845747D01*
X110961241Y-95845747D02*
X110988178Y-95926560D01*
X110988178Y-95926560D02*
X110988178Y-96034309D01*
X110988178Y-96034309D02*
X110934303Y-96142059D01*
X110934303Y-96142059D02*
X110880428Y-96195934D01*
X110880428Y-96195934D02*
X110772679Y-96249808D01*
X110772679Y-96249808D02*
X110718804Y-96249808D01*
X110718804Y-96249808D02*
X110530242Y-96061247D01*
X110530242Y-96061247D02*
X110637992Y-95953497D01*
X110530242Y-96546120D02*
X109964557Y-95980434D01*
X109964557Y-95980434D02*
X109749057Y-96195934D01*
X109749057Y-96195934D02*
X109722120Y-96276746D01*
X109722120Y-96276746D02*
X109722120Y-96330621D01*
X109722120Y-96330621D02*
X109749057Y-96411433D01*
X109749057Y-96411433D02*
X109829870Y-96492245D01*
X109829870Y-96492245D02*
X109910682Y-96519182D01*
X109910682Y-96519182D02*
X109964557Y-96519182D01*
X109964557Y-96519182D02*
X110045369Y-96492245D01*
X110045369Y-96492245D02*
X110260868Y-96276746D01*
X109479683Y-96573057D02*
X109425809Y-96573057D01*
X109425809Y-96573057D02*
X109344996Y-96599995D01*
X109344996Y-96599995D02*
X109210309Y-96734682D01*
X109210309Y-96734682D02*
X109183372Y-96815494D01*
X109183372Y-96815494D02*
X109183372Y-96869369D01*
X109183372Y-96869369D02*
X109210309Y-96950181D01*
X109210309Y-96950181D02*
X109264184Y-97004056D01*
X109264184Y-97004056D02*
X109371934Y-97057930D01*
X109371934Y-97057930D02*
X110018431Y-97057930D01*
X110018431Y-97057930D02*
X109668245Y-97408117D01*
X109129497Y-97946865D02*
X109452746Y-97623616D01*
X109291121Y-97785240D02*
X108725436Y-97219555D01*
X108725436Y-97219555D02*
X108860123Y-97246492D01*
X108860123Y-97246492D02*
X108967873Y-97246492D01*
X108967873Y-97246492D02*
X109048685Y-97219555D01*
X76961494Y-68775372D02*
X76988431Y-68694560D01*
X76988431Y-68694560D02*
X77069243Y-68613748D01*
X77069243Y-68613748D02*
X77176993Y-68559873D01*
X77176993Y-68559873D02*
X77284742Y-68559873D01*
X77284742Y-68559873D02*
X77365555Y-68586810D01*
X77365555Y-68586810D02*
X77500242Y-68667623D01*
X77500242Y-68667623D02*
X77581054Y-68748435D01*
X77581054Y-68748435D02*
X77661866Y-68883122D01*
X77661866Y-68883122D02*
X77688803Y-68963934D01*
X77688803Y-68963934D02*
X77688803Y-69071684D01*
X77688803Y-69071684D02*
X77634929Y-69179433D01*
X77634929Y-69179433D02*
X77581054Y-69233308D01*
X77581054Y-69233308D02*
X77473304Y-69287183D01*
X77473304Y-69287183D02*
X77419429Y-69287183D01*
X77419429Y-69287183D02*
X77230868Y-69098621D01*
X77230868Y-69098621D02*
X77338617Y-68990871D01*
X77230868Y-69583494D02*
X76665182Y-69017809D01*
X76665182Y-69017809D02*
X76449683Y-69233308D01*
X76449683Y-69233308D02*
X76422746Y-69314120D01*
X76422746Y-69314120D02*
X76422746Y-69367995D01*
X76422746Y-69367995D02*
X76449683Y-69448807D01*
X76449683Y-69448807D02*
X76530495Y-69529619D01*
X76530495Y-69529619D02*
X76611307Y-69556557D01*
X76611307Y-69556557D02*
X76665182Y-69556557D01*
X76665182Y-69556557D02*
X76745994Y-69529619D01*
X76745994Y-69529619D02*
X76961494Y-69314120D01*
X75991747Y-69691244D02*
X75937872Y-69745119D01*
X75937872Y-69745119D02*
X75910935Y-69825931D01*
X75910935Y-69825931D02*
X75910935Y-69879806D01*
X75910935Y-69879806D02*
X75937872Y-69960618D01*
X75937872Y-69960618D02*
X76018685Y-70095305D01*
X76018685Y-70095305D02*
X76153372Y-70229992D01*
X76153372Y-70229992D02*
X76288059Y-70310804D01*
X76288059Y-70310804D02*
X76368871Y-70337741D01*
X76368871Y-70337741D02*
X76422746Y-70337741D01*
X76422746Y-70337741D02*
X76503558Y-70310804D01*
X76503558Y-70310804D02*
X76557433Y-70256929D01*
X76557433Y-70256929D02*
X76584370Y-70176117D01*
X76584370Y-70176117D02*
X76584370Y-70122242D01*
X76584370Y-70122242D02*
X76557433Y-70041430D01*
X76557433Y-70041430D02*
X76476620Y-69906743D01*
X76476620Y-69906743D02*
X76341933Y-69772056D01*
X76341933Y-69772056D02*
X76207246Y-69691244D01*
X76207246Y-69691244D02*
X76126434Y-69664306D01*
X76126434Y-69664306D02*
X76072559Y-69664306D01*
X76072559Y-69664306D02*
X75991747Y-69691244D01*
X79491494Y-68675372D02*
X79518431Y-68594560D01*
X79518431Y-68594560D02*
X79599243Y-68513748D01*
X79599243Y-68513748D02*
X79706993Y-68459873D01*
X79706993Y-68459873D02*
X79814742Y-68459873D01*
X79814742Y-68459873D02*
X79895555Y-68486810D01*
X79895555Y-68486810D02*
X80030242Y-68567623D01*
X80030242Y-68567623D02*
X80111054Y-68648435D01*
X80111054Y-68648435D02*
X80191866Y-68783122D01*
X80191866Y-68783122D02*
X80218803Y-68863934D01*
X80218803Y-68863934D02*
X80218803Y-68971684D01*
X80218803Y-68971684D02*
X80164929Y-69079433D01*
X80164929Y-69079433D02*
X80111054Y-69133308D01*
X80111054Y-69133308D02*
X80003304Y-69187183D01*
X80003304Y-69187183D02*
X79949429Y-69187183D01*
X79949429Y-69187183D02*
X79760868Y-68998621D01*
X79760868Y-68998621D02*
X79868617Y-68890871D01*
X79760868Y-69483494D02*
X79195182Y-68917809D01*
X79195182Y-68917809D02*
X78979683Y-69133308D01*
X78979683Y-69133308D02*
X78952746Y-69214120D01*
X78952746Y-69214120D02*
X78952746Y-69267995D01*
X78952746Y-69267995D02*
X78979683Y-69348807D01*
X78979683Y-69348807D02*
X79060495Y-69429619D01*
X79060495Y-69429619D02*
X79141307Y-69456557D01*
X79141307Y-69456557D02*
X79195182Y-69456557D01*
X79195182Y-69456557D02*
X79275994Y-69429619D01*
X79275994Y-69429619D02*
X79491494Y-69214120D01*
X78898871Y-70345491D02*
X79222120Y-70022242D01*
X79060495Y-70183867D02*
X78494810Y-69618181D01*
X78494810Y-69618181D02*
X78629497Y-69645119D01*
X78629497Y-69645119D02*
X78737246Y-69645119D01*
X78737246Y-69645119D02*
X78818059Y-69618181D01*
X171024819Y-63132142D02*
X170548628Y-62798809D01*
X171024819Y-62560714D02*
X170024819Y-62560714D01*
X170024819Y-62560714D02*
X170024819Y-62941666D01*
X170024819Y-62941666D02*
X170072438Y-63036904D01*
X170072438Y-63036904D02*
X170120057Y-63084523D01*
X170120057Y-63084523D02*
X170215295Y-63132142D01*
X170215295Y-63132142D02*
X170358152Y-63132142D01*
X170358152Y-63132142D02*
X170453390Y-63084523D01*
X170453390Y-63084523D02*
X170501009Y-63036904D01*
X170501009Y-63036904D02*
X170548628Y-62941666D01*
X170548628Y-62941666D02*
X170548628Y-62560714D01*
X171024819Y-64084523D02*
X171024819Y-63513095D01*
X171024819Y-63798809D02*
X170024819Y-63798809D01*
X170024819Y-63798809D02*
X170167676Y-63703571D01*
X170167676Y-63703571D02*
X170262914Y-63608333D01*
X170262914Y-63608333D02*
X170310533Y-63513095D01*
X170024819Y-64417857D02*
X170024819Y-65036904D01*
X170024819Y-65036904D02*
X170405771Y-64703571D01*
X170405771Y-64703571D02*
X170405771Y-64846428D01*
X170405771Y-64846428D02*
X170453390Y-64941666D01*
X170453390Y-64941666D02*
X170501009Y-64989285D01*
X170501009Y-64989285D02*
X170596247Y-65036904D01*
X170596247Y-65036904D02*
X170834342Y-65036904D01*
X170834342Y-65036904D02*
X170929580Y-64989285D01*
X170929580Y-64989285D02*
X170977200Y-64941666D01*
X170977200Y-64941666D02*
X171024819Y-64846428D01*
X171024819Y-64846428D02*
X171024819Y-64560714D01*
X171024819Y-64560714D02*
X170977200Y-64465476D01*
X170977200Y-64465476D02*
X170929580Y-64417857D01*
X155024819Y-63032142D02*
X154548628Y-62698809D01*
X155024819Y-62460714D02*
X154024819Y-62460714D01*
X154024819Y-62460714D02*
X154024819Y-62841666D01*
X154024819Y-62841666D02*
X154072438Y-62936904D01*
X154072438Y-62936904D02*
X154120057Y-62984523D01*
X154120057Y-62984523D02*
X154215295Y-63032142D01*
X154215295Y-63032142D02*
X154358152Y-63032142D01*
X154358152Y-63032142D02*
X154453390Y-62984523D01*
X154453390Y-62984523D02*
X154501009Y-62936904D01*
X154501009Y-62936904D02*
X154548628Y-62841666D01*
X154548628Y-62841666D02*
X154548628Y-62460714D01*
X155024819Y-63984523D02*
X155024819Y-63413095D01*
X155024819Y-63698809D02*
X154024819Y-63698809D01*
X154024819Y-63698809D02*
X154167676Y-63603571D01*
X154167676Y-63603571D02*
X154262914Y-63508333D01*
X154262914Y-63508333D02*
X154310533Y-63413095D01*
X154024819Y-64603571D02*
X154024819Y-64698809D01*
X154024819Y-64698809D02*
X154072438Y-64794047D01*
X154072438Y-64794047D02*
X154120057Y-64841666D01*
X154120057Y-64841666D02*
X154215295Y-64889285D01*
X154215295Y-64889285D02*
X154405771Y-64936904D01*
X154405771Y-64936904D02*
X154643866Y-64936904D01*
X154643866Y-64936904D02*
X154834342Y-64889285D01*
X154834342Y-64889285D02*
X154929580Y-64841666D01*
X154929580Y-64841666D02*
X154977200Y-64794047D01*
X154977200Y-64794047D02*
X155024819Y-64698809D01*
X155024819Y-64698809D02*
X155024819Y-64603571D01*
X155024819Y-64603571D02*
X154977200Y-64508333D01*
X154977200Y-64508333D02*
X154929580Y-64460714D01*
X154929580Y-64460714D02*
X154834342Y-64413095D01*
X154834342Y-64413095D02*
X154643866Y-64365476D01*
X154643866Y-64365476D02*
X154405771Y-64365476D01*
X154405771Y-64365476D02*
X154215295Y-64413095D01*
X154215295Y-64413095D02*
X154120057Y-64460714D01*
X154120057Y-64460714D02*
X154072438Y-64508333D01*
X154072438Y-64508333D02*
X154024819Y-64603571D01*
X187024819Y-82207142D02*
X186548628Y-81873809D01*
X187024819Y-81635714D02*
X186024819Y-81635714D01*
X186024819Y-81635714D02*
X186024819Y-82016666D01*
X186024819Y-82016666D02*
X186072438Y-82111904D01*
X186072438Y-82111904D02*
X186120057Y-82159523D01*
X186120057Y-82159523D02*
X186215295Y-82207142D01*
X186215295Y-82207142D02*
X186358152Y-82207142D01*
X186358152Y-82207142D02*
X186453390Y-82159523D01*
X186453390Y-82159523D02*
X186501009Y-82111904D01*
X186501009Y-82111904D02*
X186548628Y-82016666D01*
X186548628Y-82016666D02*
X186548628Y-81635714D01*
X187024819Y-83159523D02*
X187024819Y-82588095D01*
X187024819Y-82873809D02*
X186024819Y-82873809D01*
X186024819Y-82873809D02*
X186167676Y-82778571D01*
X186167676Y-82778571D02*
X186262914Y-82683333D01*
X186262914Y-82683333D02*
X186310533Y-82588095D01*
X186024819Y-83492857D02*
X186024819Y-84159523D01*
X186024819Y-84159523D02*
X187024819Y-83730952D01*
X155024819Y-82032142D02*
X154548628Y-81698809D01*
X155024819Y-81460714D02*
X154024819Y-81460714D01*
X154024819Y-81460714D02*
X154024819Y-81841666D01*
X154024819Y-81841666D02*
X154072438Y-81936904D01*
X154072438Y-81936904D02*
X154120057Y-81984523D01*
X154120057Y-81984523D02*
X154215295Y-82032142D01*
X154215295Y-82032142D02*
X154358152Y-82032142D01*
X154358152Y-82032142D02*
X154453390Y-81984523D01*
X154453390Y-81984523D02*
X154501009Y-81936904D01*
X154501009Y-81936904D02*
X154548628Y-81841666D01*
X154548628Y-81841666D02*
X154548628Y-81460714D01*
X155024819Y-82984523D02*
X155024819Y-82413095D01*
X155024819Y-82698809D02*
X154024819Y-82698809D01*
X154024819Y-82698809D02*
X154167676Y-82603571D01*
X154167676Y-82603571D02*
X154262914Y-82508333D01*
X154262914Y-82508333D02*
X154310533Y-82413095D01*
X155024819Y-83936904D02*
X155024819Y-83365476D01*
X155024819Y-83651190D02*
X154024819Y-83651190D01*
X154024819Y-83651190D02*
X154167676Y-83555952D01*
X154167676Y-83555952D02*
X154262914Y-83460714D01*
X154262914Y-83460714D02*
X154310533Y-83365476D01*
X112624819Y-116008333D02*
X112148628Y-115675000D01*
X112624819Y-115436905D02*
X111624819Y-115436905D01*
X111624819Y-115436905D02*
X111624819Y-115817857D01*
X111624819Y-115817857D02*
X111672438Y-115913095D01*
X111672438Y-115913095D02*
X111720057Y-115960714D01*
X111720057Y-115960714D02*
X111815295Y-116008333D01*
X111815295Y-116008333D02*
X111958152Y-116008333D01*
X111958152Y-116008333D02*
X112053390Y-115960714D01*
X112053390Y-115960714D02*
X112101009Y-115913095D01*
X112101009Y-115913095D02*
X112148628Y-115817857D01*
X112148628Y-115817857D02*
X112148628Y-115436905D01*
X111720057Y-116389286D02*
X111672438Y-116436905D01*
X111672438Y-116436905D02*
X111624819Y-116532143D01*
X111624819Y-116532143D02*
X111624819Y-116770238D01*
X111624819Y-116770238D02*
X111672438Y-116865476D01*
X111672438Y-116865476D02*
X111720057Y-116913095D01*
X111720057Y-116913095D02*
X111815295Y-116960714D01*
X111815295Y-116960714D02*
X111910533Y-116960714D01*
X111910533Y-116960714D02*
X112053390Y-116913095D01*
X112053390Y-116913095D02*
X112624819Y-116341667D01*
X112624819Y-116341667D02*
X112624819Y-116960714D01*
X150124819Y-65182142D02*
X149648628Y-64848809D01*
X150124819Y-64610714D02*
X149124819Y-64610714D01*
X149124819Y-64610714D02*
X149124819Y-64991666D01*
X149124819Y-64991666D02*
X149172438Y-65086904D01*
X149172438Y-65086904D02*
X149220057Y-65134523D01*
X149220057Y-65134523D02*
X149315295Y-65182142D01*
X149315295Y-65182142D02*
X149458152Y-65182142D01*
X149458152Y-65182142D02*
X149553390Y-65134523D01*
X149553390Y-65134523D02*
X149601009Y-65086904D01*
X149601009Y-65086904D02*
X149648628Y-64991666D01*
X149648628Y-64991666D02*
X149648628Y-64610714D01*
X149220057Y-65563095D02*
X149172438Y-65610714D01*
X149172438Y-65610714D02*
X149124819Y-65705952D01*
X149124819Y-65705952D02*
X149124819Y-65944047D01*
X149124819Y-65944047D02*
X149172438Y-66039285D01*
X149172438Y-66039285D02*
X149220057Y-66086904D01*
X149220057Y-66086904D02*
X149315295Y-66134523D01*
X149315295Y-66134523D02*
X149410533Y-66134523D01*
X149410533Y-66134523D02*
X149553390Y-66086904D01*
X149553390Y-66086904D02*
X150124819Y-65515476D01*
X150124819Y-65515476D02*
X150124819Y-66134523D01*
X149220057Y-66515476D02*
X149172438Y-66563095D01*
X149172438Y-66563095D02*
X149124819Y-66658333D01*
X149124819Y-66658333D02*
X149124819Y-66896428D01*
X149124819Y-66896428D02*
X149172438Y-66991666D01*
X149172438Y-66991666D02*
X149220057Y-67039285D01*
X149220057Y-67039285D02*
X149315295Y-67086904D01*
X149315295Y-67086904D02*
X149410533Y-67086904D01*
X149410533Y-67086904D02*
X149553390Y-67039285D01*
X149553390Y-67039285D02*
X150124819Y-66467857D01*
X150124819Y-66467857D02*
X150124819Y-67086904D01*
X155024819Y-101532142D02*
X154548628Y-101198809D01*
X155024819Y-100960714D02*
X154024819Y-100960714D01*
X154024819Y-100960714D02*
X154024819Y-101341666D01*
X154024819Y-101341666D02*
X154072438Y-101436904D01*
X154072438Y-101436904D02*
X154120057Y-101484523D01*
X154120057Y-101484523D02*
X154215295Y-101532142D01*
X154215295Y-101532142D02*
X154358152Y-101532142D01*
X154358152Y-101532142D02*
X154453390Y-101484523D01*
X154453390Y-101484523D02*
X154501009Y-101436904D01*
X154501009Y-101436904D02*
X154548628Y-101341666D01*
X154548628Y-101341666D02*
X154548628Y-100960714D01*
X155024819Y-102484523D02*
X155024819Y-101913095D01*
X155024819Y-102198809D02*
X154024819Y-102198809D01*
X154024819Y-102198809D02*
X154167676Y-102103571D01*
X154167676Y-102103571D02*
X154262914Y-102008333D01*
X154262914Y-102008333D02*
X154310533Y-101913095D01*
X154120057Y-102865476D02*
X154072438Y-102913095D01*
X154072438Y-102913095D02*
X154024819Y-103008333D01*
X154024819Y-103008333D02*
X154024819Y-103246428D01*
X154024819Y-103246428D02*
X154072438Y-103341666D01*
X154072438Y-103341666D02*
X154120057Y-103389285D01*
X154120057Y-103389285D02*
X154215295Y-103436904D01*
X154215295Y-103436904D02*
X154310533Y-103436904D01*
X154310533Y-103436904D02*
X154453390Y-103389285D01*
X154453390Y-103389285D02*
X155024819Y-102817857D01*
X155024819Y-102817857D02*
X155024819Y-103436904D01*
X171024819Y-81882142D02*
X170548628Y-81548809D01*
X171024819Y-81310714D02*
X170024819Y-81310714D01*
X170024819Y-81310714D02*
X170024819Y-81691666D01*
X170024819Y-81691666D02*
X170072438Y-81786904D01*
X170072438Y-81786904D02*
X170120057Y-81834523D01*
X170120057Y-81834523D02*
X170215295Y-81882142D01*
X170215295Y-81882142D02*
X170358152Y-81882142D01*
X170358152Y-81882142D02*
X170453390Y-81834523D01*
X170453390Y-81834523D02*
X170501009Y-81786904D01*
X170501009Y-81786904D02*
X170548628Y-81691666D01*
X170548628Y-81691666D02*
X170548628Y-81310714D01*
X171024819Y-82834523D02*
X171024819Y-82263095D01*
X171024819Y-82548809D02*
X170024819Y-82548809D01*
X170024819Y-82548809D02*
X170167676Y-82453571D01*
X170167676Y-82453571D02*
X170262914Y-82358333D01*
X170262914Y-82358333D02*
X170310533Y-82263095D01*
X170358152Y-83691666D02*
X171024819Y-83691666D01*
X169977200Y-83453571D02*
X170691485Y-83215476D01*
X170691485Y-83215476D02*
X170691485Y-83834523D01*
X223524819Y-60857142D02*
X223048628Y-60523809D01*
X223524819Y-60285714D02*
X222524819Y-60285714D01*
X222524819Y-60285714D02*
X222524819Y-60666666D01*
X222524819Y-60666666D02*
X222572438Y-60761904D01*
X222572438Y-60761904D02*
X222620057Y-60809523D01*
X222620057Y-60809523D02*
X222715295Y-60857142D01*
X222715295Y-60857142D02*
X222858152Y-60857142D01*
X222858152Y-60857142D02*
X222953390Y-60809523D01*
X222953390Y-60809523D02*
X223001009Y-60761904D01*
X223001009Y-60761904D02*
X223048628Y-60666666D01*
X223048628Y-60666666D02*
X223048628Y-60285714D01*
X222620057Y-61238095D02*
X222572438Y-61285714D01*
X222572438Y-61285714D02*
X222524819Y-61380952D01*
X222524819Y-61380952D02*
X222524819Y-61619047D01*
X222524819Y-61619047D02*
X222572438Y-61714285D01*
X222572438Y-61714285D02*
X222620057Y-61761904D01*
X222620057Y-61761904D02*
X222715295Y-61809523D01*
X222715295Y-61809523D02*
X222810533Y-61809523D01*
X222810533Y-61809523D02*
X222953390Y-61761904D01*
X222953390Y-61761904D02*
X223524819Y-61190476D01*
X223524819Y-61190476D02*
X223524819Y-61809523D01*
X222524819Y-62714285D02*
X222524819Y-62238095D01*
X222524819Y-62238095D02*
X223001009Y-62190476D01*
X223001009Y-62190476D02*
X222953390Y-62238095D01*
X222953390Y-62238095D02*
X222905771Y-62333333D01*
X222905771Y-62333333D02*
X222905771Y-62571428D01*
X222905771Y-62571428D02*
X222953390Y-62666666D01*
X222953390Y-62666666D02*
X223001009Y-62714285D01*
X223001009Y-62714285D02*
X223096247Y-62761904D01*
X223096247Y-62761904D02*
X223334342Y-62761904D01*
X223334342Y-62761904D02*
X223429580Y-62714285D01*
X223429580Y-62714285D02*
X223477200Y-62666666D01*
X223477200Y-62666666D02*
X223524819Y-62571428D01*
X223524819Y-62571428D02*
X223524819Y-62333333D01*
X223524819Y-62333333D02*
X223477200Y-62238095D01*
X223477200Y-62238095D02*
X223429580Y-62190476D01*
X157624819Y-116008333D02*
X157148628Y-115675000D01*
X157624819Y-115436905D02*
X156624819Y-115436905D01*
X156624819Y-115436905D02*
X156624819Y-115817857D01*
X156624819Y-115817857D02*
X156672438Y-115913095D01*
X156672438Y-115913095D02*
X156720057Y-115960714D01*
X156720057Y-115960714D02*
X156815295Y-116008333D01*
X156815295Y-116008333D02*
X156958152Y-116008333D01*
X156958152Y-116008333D02*
X157053390Y-115960714D01*
X157053390Y-115960714D02*
X157101009Y-115913095D01*
X157101009Y-115913095D02*
X157148628Y-115817857D01*
X157148628Y-115817857D02*
X157148628Y-115436905D01*
X156624819Y-116913095D02*
X156624819Y-116436905D01*
X156624819Y-116436905D02*
X157101009Y-116389286D01*
X157101009Y-116389286D02*
X157053390Y-116436905D01*
X157053390Y-116436905D02*
X157005771Y-116532143D01*
X157005771Y-116532143D02*
X157005771Y-116770238D01*
X157005771Y-116770238D02*
X157053390Y-116865476D01*
X157053390Y-116865476D02*
X157101009Y-116913095D01*
X157101009Y-116913095D02*
X157196247Y-116960714D01*
X157196247Y-116960714D02*
X157434342Y-116960714D01*
X157434342Y-116960714D02*
X157529580Y-116913095D01*
X157529580Y-116913095D02*
X157577200Y-116865476D01*
X157577200Y-116865476D02*
X157624819Y-116770238D01*
X157624819Y-116770238D02*
X157624819Y-116532143D01*
X157624819Y-116532143D02*
X157577200Y-116436905D01*
X157577200Y-116436905D02*
X157529580Y-116389286D01*
X141224819Y-65182142D02*
X140748628Y-64848809D01*
X141224819Y-64610714D02*
X140224819Y-64610714D01*
X140224819Y-64610714D02*
X140224819Y-64991666D01*
X140224819Y-64991666D02*
X140272438Y-65086904D01*
X140272438Y-65086904D02*
X140320057Y-65134523D01*
X140320057Y-65134523D02*
X140415295Y-65182142D01*
X140415295Y-65182142D02*
X140558152Y-65182142D01*
X140558152Y-65182142D02*
X140653390Y-65134523D01*
X140653390Y-65134523D02*
X140701009Y-65086904D01*
X140701009Y-65086904D02*
X140748628Y-64991666D01*
X140748628Y-64991666D02*
X140748628Y-64610714D01*
X140320057Y-65563095D02*
X140272438Y-65610714D01*
X140272438Y-65610714D02*
X140224819Y-65705952D01*
X140224819Y-65705952D02*
X140224819Y-65944047D01*
X140224819Y-65944047D02*
X140272438Y-66039285D01*
X140272438Y-66039285D02*
X140320057Y-66086904D01*
X140320057Y-66086904D02*
X140415295Y-66134523D01*
X140415295Y-66134523D02*
X140510533Y-66134523D01*
X140510533Y-66134523D02*
X140653390Y-66086904D01*
X140653390Y-66086904D02*
X141224819Y-65515476D01*
X141224819Y-65515476D02*
X141224819Y-66134523D01*
X140224819Y-66467857D02*
X140224819Y-67086904D01*
X140224819Y-67086904D02*
X140605771Y-66753571D01*
X140605771Y-66753571D02*
X140605771Y-66896428D01*
X140605771Y-66896428D02*
X140653390Y-66991666D01*
X140653390Y-66991666D02*
X140701009Y-67039285D01*
X140701009Y-67039285D02*
X140796247Y-67086904D01*
X140796247Y-67086904D02*
X141034342Y-67086904D01*
X141034342Y-67086904D02*
X141129580Y-67039285D01*
X141129580Y-67039285D02*
X141177200Y-66991666D01*
X141177200Y-66991666D02*
X141224819Y-66896428D01*
X141224819Y-66896428D02*
X141224819Y-66610714D01*
X141224819Y-66610714D02*
X141177200Y-66515476D01*
X141177200Y-66515476D02*
X141129580Y-66467857D01*
X97624819Y-116008333D02*
X97148628Y-115675000D01*
X97624819Y-115436905D02*
X96624819Y-115436905D01*
X96624819Y-115436905D02*
X96624819Y-115817857D01*
X96624819Y-115817857D02*
X96672438Y-115913095D01*
X96672438Y-115913095D02*
X96720057Y-115960714D01*
X96720057Y-115960714D02*
X96815295Y-116008333D01*
X96815295Y-116008333D02*
X96958152Y-116008333D01*
X96958152Y-116008333D02*
X97053390Y-115960714D01*
X97053390Y-115960714D02*
X97101009Y-115913095D01*
X97101009Y-115913095D02*
X97148628Y-115817857D01*
X97148628Y-115817857D02*
X97148628Y-115436905D01*
X97624819Y-116960714D02*
X97624819Y-116389286D01*
X97624819Y-116675000D02*
X96624819Y-116675000D01*
X96624819Y-116675000D02*
X96767676Y-116579762D01*
X96767676Y-116579762D02*
X96862914Y-116484524D01*
X96862914Y-116484524D02*
X96910533Y-116389286D01*
X112024819Y-63682142D02*
X111548628Y-63348809D01*
X112024819Y-63110714D02*
X111024819Y-63110714D01*
X111024819Y-63110714D02*
X111024819Y-63491666D01*
X111024819Y-63491666D02*
X111072438Y-63586904D01*
X111072438Y-63586904D02*
X111120057Y-63634523D01*
X111120057Y-63634523D02*
X111215295Y-63682142D01*
X111215295Y-63682142D02*
X111358152Y-63682142D01*
X111358152Y-63682142D02*
X111453390Y-63634523D01*
X111453390Y-63634523D02*
X111501009Y-63586904D01*
X111501009Y-63586904D02*
X111548628Y-63491666D01*
X111548628Y-63491666D02*
X111548628Y-63110714D01*
X112024819Y-64634523D02*
X112024819Y-64063095D01*
X112024819Y-64348809D02*
X111024819Y-64348809D01*
X111024819Y-64348809D02*
X111167676Y-64253571D01*
X111167676Y-64253571D02*
X111262914Y-64158333D01*
X111262914Y-64158333D02*
X111310533Y-64063095D01*
X112024819Y-65110714D02*
X112024819Y-65301190D01*
X112024819Y-65301190D02*
X111977200Y-65396428D01*
X111977200Y-65396428D02*
X111929580Y-65444047D01*
X111929580Y-65444047D02*
X111786723Y-65539285D01*
X111786723Y-65539285D02*
X111596247Y-65586904D01*
X111596247Y-65586904D02*
X111215295Y-65586904D01*
X111215295Y-65586904D02*
X111120057Y-65539285D01*
X111120057Y-65539285D02*
X111072438Y-65491666D01*
X111072438Y-65491666D02*
X111024819Y-65396428D01*
X111024819Y-65396428D02*
X111024819Y-65205952D01*
X111024819Y-65205952D02*
X111072438Y-65110714D01*
X111072438Y-65110714D02*
X111120057Y-65063095D01*
X111120057Y-65063095D02*
X111215295Y-65015476D01*
X111215295Y-65015476D02*
X111453390Y-65015476D01*
X111453390Y-65015476D02*
X111548628Y-65063095D01*
X111548628Y-65063095D02*
X111596247Y-65110714D01*
X111596247Y-65110714D02*
X111643866Y-65205952D01*
X111643866Y-65205952D02*
X111643866Y-65396428D01*
X111643866Y-65396428D02*
X111596247Y-65491666D01*
X111596247Y-65491666D02*
X111548628Y-65539285D01*
X111548628Y-65539285D02*
X111453390Y-65586904D01*
X172624819Y-116008333D02*
X172148628Y-115675000D01*
X172624819Y-115436905D02*
X171624819Y-115436905D01*
X171624819Y-115436905D02*
X171624819Y-115817857D01*
X171624819Y-115817857D02*
X171672438Y-115913095D01*
X171672438Y-115913095D02*
X171720057Y-115960714D01*
X171720057Y-115960714D02*
X171815295Y-116008333D01*
X171815295Y-116008333D02*
X171958152Y-116008333D01*
X171958152Y-116008333D02*
X172053390Y-115960714D01*
X172053390Y-115960714D02*
X172101009Y-115913095D01*
X172101009Y-115913095D02*
X172148628Y-115817857D01*
X172148628Y-115817857D02*
X172148628Y-115436905D01*
X171624819Y-116865476D02*
X171624819Y-116675000D01*
X171624819Y-116675000D02*
X171672438Y-116579762D01*
X171672438Y-116579762D02*
X171720057Y-116532143D01*
X171720057Y-116532143D02*
X171862914Y-116436905D01*
X171862914Y-116436905D02*
X172053390Y-116389286D01*
X172053390Y-116389286D02*
X172434342Y-116389286D01*
X172434342Y-116389286D02*
X172529580Y-116436905D01*
X172529580Y-116436905D02*
X172577200Y-116484524D01*
X172577200Y-116484524D02*
X172624819Y-116579762D01*
X172624819Y-116579762D02*
X172624819Y-116770238D01*
X172624819Y-116770238D02*
X172577200Y-116865476D01*
X172577200Y-116865476D02*
X172529580Y-116913095D01*
X172529580Y-116913095D02*
X172434342Y-116960714D01*
X172434342Y-116960714D02*
X172196247Y-116960714D01*
X172196247Y-116960714D02*
X172101009Y-116913095D01*
X172101009Y-116913095D02*
X172053390Y-116865476D01*
X172053390Y-116865476D02*
X172005771Y-116770238D01*
X172005771Y-116770238D02*
X172005771Y-116579762D01*
X172005771Y-116579762D02*
X172053390Y-116484524D01*
X172053390Y-116484524D02*
X172101009Y-116436905D01*
X172101009Y-116436905D02*
X172196247Y-116389286D01*
X145724819Y-65182142D02*
X145248628Y-64848809D01*
X145724819Y-64610714D02*
X144724819Y-64610714D01*
X144724819Y-64610714D02*
X144724819Y-64991666D01*
X144724819Y-64991666D02*
X144772438Y-65086904D01*
X144772438Y-65086904D02*
X144820057Y-65134523D01*
X144820057Y-65134523D02*
X144915295Y-65182142D01*
X144915295Y-65182142D02*
X145058152Y-65182142D01*
X145058152Y-65182142D02*
X145153390Y-65134523D01*
X145153390Y-65134523D02*
X145201009Y-65086904D01*
X145201009Y-65086904D02*
X145248628Y-64991666D01*
X145248628Y-64991666D02*
X145248628Y-64610714D01*
X144820057Y-65563095D02*
X144772438Y-65610714D01*
X144772438Y-65610714D02*
X144724819Y-65705952D01*
X144724819Y-65705952D02*
X144724819Y-65944047D01*
X144724819Y-65944047D02*
X144772438Y-66039285D01*
X144772438Y-66039285D02*
X144820057Y-66086904D01*
X144820057Y-66086904D02*
X144915295Y-66134523D01*
X144915295Y-66134523D02*
X145010533Y-66134523D01*
X145010533Y-66134523D02*
X145153390Y-66086904D01*
X145153390Y-66086904D02*
X145724819Y-65515476D01*
X145724819Y-65515476D02*
X145724819Y-66134523D01*
X145058152Y-66991666D02*
X145724819Y-66991666D01*
X144677200Y-66753571D02*
X145391485Y-66515476D01*
X145391485Y-66515476D02*
X145391485Y-67134523D01*
X142624819Y-116008333D02*
X142148628Y-115675000D01*
X142624819Y-115436905D02*
X141624819Y-115436905D01*
X141624819Y-115436905D02*
X141624819Y-115817857D01*
X141624819Y-115817857D02*
X141672438Y-115913095D01*
X141672438Y-115913095D02*
X141720057Y-115960714D01*
X141720057Y-115960714D02*
X141815295Y-116008333D01*
X141815295Y-116008333D02*
X141958152Y-116008333D01*
X141958152Y-116008333D02*
X142053390Y-115960714D01*
X142053390Y-115960714D02*
X142101009Y-115913095D01*
X142101009Y-115913095D02*
X142148628Y-115817857D01*
X142148628Y-115817857D02*
X142148628Y-115436905D01*
X141958152Y-116865476D02*
X142624819Y-116865476D01*
X141577200Y-116627381D02*
X142291485Y-116389286D01*
X142291485Y-116389286D02*
X142291485Y-117008333D01*
X107524819Y-63682142D02*
X107048628Y-63348809D01*
X107524819Y-63110714D02*
X106524819Y-63110714D01*
X106524819Y-63110714D02*
X106524819Y-63491666D01*
X106524819Y-63491666D02*
X106572438Y-63586904D01*
X106572438Y-63586904D02*
X106620057Y-63634523D01*
X106620057Y-63634523D02*
X106715295Y-63682142D01*
X106715295Y-63682142D02*
X106858152Y-63682142D01*
X106858152Y-63682142D02*
X106953390Y-63634523D01*
X106953390Y-63634523D02*
X107001009Y-63586904D01*
X107001009Y-63586904D02*
X107048628Y-63491666D01*
X107048628Y-63491666D02*
X107048628Y-63110714D01*
X106620057Y-64063095D02*
X106572438Y-64110714D01*
X106572438Y-64110714D02*
X106524819Y-64205952D01*
X106524819Y-64205952D02*
X106524819Y-64444047D01*
X106524819Y-64444047D02*
X106572438Y-64539285D01*
X106572438Y-64539285D02*
X106620057Y-64586904D01*
X106620057Y-64586904D02*
X106715295Y-64634523D01*
X106715295Y-64634523D02*
X106810533Y-64634523D01*
X106810533Y-64634523D02*
X106953390Y-64586904D01*
X106953390Y-64586904D02*
X107524819Y-64015476D01*
X107524819Y-64015476D02*
X107524819Y-64634523D01*
X107524819Y-65586904D02*
X107524819Y-65015476D01*
X107524819Y-65301190D02*
X106524819Y-65301190D01*
X106524819Y-65301190D02*
X106667676Y-65205952D01*
X106667676Y-65205952D02*
X106762914Y-65110714D01*
X106762914Y-65110714D02*
X106810533Y-65015476D01*
X127624819Y-116008333D02*
X127148628Y-115675000D01*
X127624819Y-115436905D02*
X126624819Y-115436905D01*
X126624819Y-115436905D02*
X126624819Y-115817857D01*
X126624819Y-115817857D02*
X126672438Y-115913095D01*
X126672438Y-115913095D02*
X126720057Y-115960714D01*
X126720057Y-115960714D02*
X126815295Y-116008333D01*
X126815295Y-116008333D02*
X126958152Y-116008333D01*
X126958152Y-116008333D02*
X127053390Y-115960714D01*
X127053390Y-115960714D02*
X127101009Y-115913095D01*
X127101009Y-115913095D02*
X127148628Y-115817857D01*
X127148628Y-115817857D02*
X127148628Y-115436905D01*
X126624819Y-116341667D02*
X126624819Y-116960714D01*
X126624819Y-116960714D02*
X127005771Y-116627381D01*
X127005771Y-116627381D02*
X127005771Y-116770238D01*
X127005771Y-116770238D02*
X127053390Y-116865476D01*
X127053390Y-116865476D02*
X127101009Y-116913095D01*
X127101009Y-116913095D02*
X127196247Y-116960714D01*
X127196247Y-116960714D02*
X127434342Y-116960714D01*
X127434342Y-116960714D02*
X127529580Y-116913095D01*
X127529580Y-116913095D02*
X127577200Y-116865476D01*
X127577200Y-116865476D02*
X127624819Y-116770238D01*
X127624819Y-116770238D02*
X127624819Y-116484524D01*
X127624819Y-116484524D02*
X127577200Y-116389286D01*
X127577200Y-116389286D02*
X127529580Y-116341667D01*
X187024819Y-101682142D02*
X186548628Y-101348809D01*
X187024819Y-101110714D02*
X186024819Y-101110714D01*
X186024819Y-101110714D02*
X186024819Y-101491666D01*
X186024819Y-101491666D02*
X186072438Y-101586904D01*
X186072438Y-101586904D02*
X186120057Y-101634523D01*
X186120057Y-101634523D02*
X186215295Y-101682142D01*
X186215295Y-101682142D02*
X186358152Y-101682142D01*
X186358152Y-101682142D02*
X186453390Y-101634523D01*
X186453390Y-101634523D02*
X186501009Y-101586904D01*
X186501009Y-101586904D02*
X186548628Y-101491666D01*
X186548628Y-101491666D02*
X186548628Y-101110714D01*
X187024819Y-102634523D02*
X187024819Y-102063095D01*
X187024819Y-102348809D02*
X186024819Y-102348809D01*
X186024819Y-102348809D02*
X186167676Y-102253571D01*
X186167676Y-102253571D02*
X186262914Y-102158333D01*
X186262914Y-102158333D02*
X186310533Y-102063095D01*
X186453390Y-103205952D02*
X186405771Y-103110714D01*
X186405771Y-103110714D02*
X186358152Y-103063095D01*
X186358152Y-103063095D02*
X186262914Y-103015476D01*
X186262914Y-103015476D02*
X186215295Y-103015476D01*
X186215295Y-103015476D02*
X186120057Y-103063095D01*
X186120057Y-103063095D02*
X186072438Y-103110714D01*
X186072438Y-103110714D02*
X186024819Y-103205952D01*
X186024819Y-103205952D02*
X186024819Y-103396428D01*
X186024819Y-103396428D02*
X186072438Y-103491666D01*
X186072438Y-103491666D02*
X186120057Y-103539285D01*
X186120057Y-103539285D02*
X186215295Y-103586904D01*
X186215295Y-103586904D02*
X186262914Y-103586904D01*
X186262914Y-103586904D02*
X186358152Y-103539285D01*
X186358152Y-103539285D02*
X186405771Y-103491666D01*
X186405771Y-103491666D02*
X186453390Y-103396428D01*
X186453390Y-103396428D02*
X186453390Y-103205952D01*
X186453390Y-103205952D02*
X186501009Y-103110714D01*
X186501009Y-103110714D02*
X186548628Y-103063095D01*
X186548628Y-103063095D02*
X186643866Y-103015476D01*
X186643866Y-103015476D02*
X186834342Y-103015476D01*
X186834342Y-103015476D02*
X186929580Y-103063095D01*
X186929580Y-103063095D02*
X186977200Y-103110714D01*
X186977200Y-103110714D02*
X187024819Y-103205952D01*
X187024819Y-103205952D02*
X187024819Y-103396428D01*
X187024819Y-103396428D02*
X186977200Y-103491666D01*
X186977200Y-103491666D02*
X186929580Y-103539285D01*
X186929580Y-103539285D02*
X186834342Y-103586904D01*
X186834342Y-103586904D02*
X186643866Y-103586904D01*
X186643866Y-103586904D02*
X186548628Y-103539285D01*
X186548628Y-103539285D02*
X186501009Y-103491666D01*
X186501009Y-103491666D02*
X186453390Y-103396428D01*
X219024819Y-60857142D02*
X218548628Y-60523809D01*
X219024819Y-60285714D02*
X218024819Y-60285714D01*
X218024819Y-60285714D02*
X218024819Y-60666666D01*
X218024819Y-60666666D02*
X218072438Y-60761904D01*
X218072438Y-60761904D02*
X218120057Y-60809523D01*
X218120057Y-60809523D02*
X218215295Y-60857142D01*
X218215295Y-60857142D02*
X218358152Y-60857142D01*
X218358152Y-60857142D02*
X218453390Y-60809523D01*
X218453390Y-60809523D02*
X218501009Y-60761904D01*
X218501009Y-60761904D02*
X218548628Y-60666666D01*
X218548628Y-60666666D02*
X218548628Y-60285714D01*
X218120057Y-61238095D02*
X218072438Y-61285714D01*
X218072438Y-61285714D02*
X218024819Y-61380952D01*
X218024819Y-61380952D02*
X218024819Y-61619047D01*
X218024819Y-61619047D02*
X218072438Y-61714285D01*
X218072438Y-61714285D02*
X218120057Y-61761904D01*
X218120057Y-61761904D02*
X218215295Y-61809523D01*
X218215295Y-61809523D02*
X218310533Y-61809523D01*
X218310533Y-61809523D02*
X218453390Y-61761904D01*
X218453390Y-61761904D02*
X219024819Y-61190476D01*
X219024819Y-61190476D02*
X219024819Y-61809523D01*
X218024819Y-62666666D02*
X218024819Y-62476190D01*
X218024819Y-62476190D02*
X218072438Y-62380952D01*
X218072438Y-62380952D02*
X218120057Y-62333333D01*
X218120057Y-62333333D02*
X218262914Y-62238095D01*
X218262914Y-62238095D02*
X218453390Y-62190476D01*
X218453390Y-62190476D02*
X218834342Y-62190476D01*
X218834342Y-62190476D02*
X218929580Y-62238095D01*
X218929580Y-62238095D02*
X218977200Y-62285714D01*
X218977200Y-62285714D02*
X219024819Y-62380952D01*
X219024819Y-62380952D02*
X219024819Y-62571428D01*
X219024819Y-62571428D02*
X218977200Y-62666666D01*
X218977200Y-62666666D02*
X218929580Y-62714285D01*
X218929580Y-62714285D02*
X218834342Y-62761904D01*
X218834342Y-62761904D02*
X218596247Y-62761904D01*
X218596247Y-62761904D02*
X218501009Y-62714285D01*
X218501009Y-62714285D02*
X218453390Y-62666666D01*
X218453390Y-62666666D02*
X218405771Y-62571428D01*
X218405771Y-62571428D02*
X218405771Y-62380952D01*
X218405771Y-62380952D02*
X218453390Y-62285714D01*
X218453390Y-62285714D02*
X218501009Y-62238095D01*
X218501009Y-62238095D02*
X218596247Y-62190476D01*
X211024819Y-116008333D02*
X210548628Y-115675000D01*
X211024819Y-115436905D02*
X210024819Y-115436905D01*
X210024819Y-115436905D02*
X210024819Y-115817857D01*
X210024819Y-115817857D02*
X210072438Y-115913095D01*
X210072438Y-115913095D02*
X210120057Y-115960714D01*
X210120057Y-115960714D02*
X210215295Y-116008333D01*
X210215295Y-116008333D02*
X210358152Y-116008333D01*
X210358152Y-116008333D02*
X210453390Y-115960714D01*
X210453390Y-115960714D02*
X210501009Y-115913095D01*
X210501009Y-115913095D02*
X210548628Y-115817857D01*
X210548628Y-115817857D02*
X210548628Y-115436905D01*
X211024819Y-116484524D02*
X211024819Y-116675000D01*
X211024819Y-116675000D02*
X210977200Y-116770238D01*
X210977200Y-116770238D02*
X210929580Y-116817857D01*
X210929580Y-116817857D02*
X210786723Y-116913095D01*
X210786723Y-116913095D02*
X210596247Y-116960714D01*
X210596247Y-116960714D02*
X210215295Y-116960714D01*
X210215295Y-116960714D02*
X210120057Y-116913095D01*
X210120057Y-116913095D02*
X210072438Y-116865476D01*
X210072438Y-116865476D02*
X210024819Y-116770238D01*
X210024819Y-116770238D02*
X210024819Y-116579762D01*
X210024819Y-116579762D02*
X210072438Y-116484524D01*
X210072438Y-116484524D02*
X210120057Y-116436905D01*
X210120057Y-116436905D02*
X210215295Y-116389286D01*
X210215295Y-116389286D02*
X210453390Y-116389286D01*
X210453390Y-116389286D02*
X210548628Y-116436905D01*
X210548628Y-116436905D02*
X210596247Y-116484524D01*
X210596247Y-116484524D02*
X210643866Y-116579762D01*
X210643866Y-116579762D02*
X210643866Y-116770238D01*
X210643866Y-116770238D02*
X210596247Y-116865476D01*
X210596247Y-116865476D02*
X210548628Y-116913095D01*
X210548628Y-116913095D02*
X210453390Y-116960714D01*
X171024819Y-101532142D02*
X170548628Y-101198809D01*
X171024819Y-100960714D02*
X170024819Y-100960714D01*
X170024819Y-100960714D02*
X170024819Y-101341666D01*
X170024819Y-101341666D02*
X170072438Y-101436904D01*
X170072438Y-101436904D02*
X170120057Y-101484523D01*
X170120057Y-101484523D02*
X170215295Y-101532142D01*
X170215295Y-101532142D02*
X170358152Y-101532142D01*
X170358152Y-101532142D02*
X170453390Y-101484523D01*
X170453390Y-101484523D02*
X170501009Y-101436904D01*
X170501009Y-101436904D02*
X170548628Y-101341666D01*
X170548628Y-101341666D02*
X170548628Y-100960714D01*
X171024819Y-102484523D02*
X171024819Y-101913095D01*
X171024819Y-102198809D02*
X170024819Y-102198809D01*
X170024819Y-102198809D02*
X170167676Y-102103571D01*
X170167676Y-102103571D02*
X170262914Y-102008333D01*
X170262914Y-102008333D02*
X170310533Y-101913095D01*
X170024819Y-103389285D02*
X170024819Y-102913095D01*
X170024819Y-102913095D02*
X170501009Y-102865476D01*
X170501009Y-102865476D02*
X170453390Y-102913095D01*
X170453390Y-102913095D02*
X170405771Y-103008333D01*
X170405771Y-103008333D02*
X170405771Y-103246428D01*
X170405771Y-103246428D02*
X170453390Y-103341666D01*
X170453390Y-103341666D02*
X170501009Y-103389285D01*
X170501009Y-103389285D02*
X170596247Y-103436904D01*
X170596247Y-103436904D02*
X170834342Y-103436904D01*
X170834342Y-103436904D02*
X170929580Y-103389285D01*
X170929580Y-103389285D02*
X170977200Y-103341666D01*
X170977200Y-103341666D02*
X171024819Y-103246428D01*
X171024819Y-103246428D02*
X171024819Y-103008333D01*
X171024819Y-103008333D02*
X170977200Y-102913095D01*
X170977200Y-102913095D02*
X170929580Y-102865476D01*
X187324819Y-63132142D02*
X186848628Y-62798809D01*
X187324819Y-62560714D02*
X186324819Y-62560714D01*
X186324819Y-62560714D02*
X186324819Y-62941666D01*
X186324819Y-62941666D02*
X186372438Y-63036904D01*
X186372438Y-63036904D02*
X186420057Y-63084523D01*
X186420057Y-63084523D02*
X186515295Y-63132142D01*
X186515295Y-63132142D02*
X186658152Y-63132142D01*
X186658152Y-63132142D02*
X186753390Y-63084523D01*
X186753390Y-63084523D02*
X186801009Y-63036904D01*
X186801009Y-63036904D02*
X186848628Y-62941666D01*
X186848628Y-62941666D02*
X186848628Y-62560714D01*
X187324819Y-64084523D02*
X187324819Y-63513095D01*
X187324819Y-63798809D02*
X186324819Y-63798809D01*
X186324819Y-63798809D02*
X186467676Y-63703571D01*
X186467676Y-63703571D02*
X186562914Y-63608333D01*
X186562914Y-63608333D02*
X186610533Y-63513095D01*
X186324819Y-64941666D02*
X186324819Y-64751190D01*
X186324819Y-64751190D02*
X186372438Y-64655952D01*
X186372438Y-64655952D02*
X186420057Y-64608333D01*
X186420057Y-64608333D02*
X186562914Y-64513095D01*
X186562914Y-64513095D02*
X186753390Y-64465476D01*
X186753390Y-64465476D02*
X187134342Y-64465476D01*
X187134342Y-64465476D02*
X187229580Y-64513095D01*
X187229580Y-64513095D02*
X187277200Y-64560714D01*
X187277200Y-64560714D02*
X187324819Y-64655952D01*
X187324819Y-64655952D02*
X187324819Y-64846428D01*
X187324819Y-64846428D02*
X187277200Y-64941666D01*
X187277200Y-64941666D02*
X187229580Y-64989285D01*
X187229580Y-64989285D02*
X187134342Y-65036904D01*
X187134342Y-65036904D02*
X186896247Y-65036904D01*
X186896247Y-65036904D02*
X186801009Y-64989285D01*
X186801009Y-64989285D02*
X186753390Y-64941666D01*
X186753390Y-64941666D02*
X186705771Y-64846428D01*
X186705771Y-64846428D02*
X186705771Y-64655952D01*
X186705771Y-64655952D02*
X186753390Y-64560714D01*
X186753390Y-64560714D02*
X186801009Y-64513095D01*
X186801009Y-64513095D02*
X186896247Y-64465476D01*
X202624819Y-116008333D02*
X202148628Y-115675000D01*
X202624819Y-115436905D02*
X201624819Y-115436905D01*
X201624819Y-115436905D02*
X201624819Y-115817857D01*
X201624819Y-115817857D02*
X201672438Y-115913095D01*
X201672438Y-115913095D02*
X201720057Y-115960714D01*
X201720057Y-115960714D02*
X201815295Y-116008333D01*
X201815295Y-116008333D02*
X201958152Y-116008333D01*
X201958152Y-116008333D02*
X202053390Y-115960714D01*
X202053390Y-115960714D02*
X202101009Y-115913095D01*
X202101009Y-115913095D02*
X202148628Y-115817857D01*
X202148628Y-115817857D02*
X202148628Y-115436905D01*
X202053390Y-116579762D02*
X202005771Y-116484524D01*
X202005771Y-116484524D02*
X201958152Y-116436905D01*
X201958152Y-116436905D02*
X201862914Y-116389286D01*
X201862914Y-116389286D02*
X201815295Y-116389286D01*
X201815295Y-116389286D02*
X201720057Y-116436905D01*
X201720057Y-116436905D02*
X201672438Y-116484524D01*
X201672438Y-116484524D02*
X201624819Y-116579762D01*
X201624819Y-116579762D02*
X201624819Y-116770238D01*
X201624819Y-116770238D02*
X201672438Y-116865476D01*
X201672438Y-116865476D02*
X201720057Y-116913095D01*
X201720057Y-116913095D02*
X201815295Y-116960714D01*
X201815295Y-116960714D02*
X201862914Y-116960714D01*
X201862914Y-116960714D02*
X201958152Y-116913095D01*
X201958152Y-116913095D02*
X202005771Y-116865476D01*
X202005771Y-116865476D02*
X202053390Y-116770238D01*
X202053390Y-116770238D02*
X202053390Y-116579762D01*
X202053390Y-116579762D02*
X202101009Y-116484524D01*
X202101009Y-116484524D02*
X202148628Y-116436905D01*
X202148628Y-116436905D02*
X202243866Y-116389286D01*
X202243866Y-116389286D02*
X202434342Y-116389286D01*
X202434342Y-116389286D02*
X202529580Y-116436905D01*
X202529580Y-116436905D02*
X202577200Y-116484524D01*
X202577200Y-116484524D02*
X202624819Y-116579762D01*
X202624819Y-116579762D02*
X202624819Y-116770238D01*
X202624819Y-116770238D02*
X202577200Y-116865476D01*
X202577200Y-116865476D02*
X202529580Y-116913095D01*
X202529580Y-116913095D02*
X202434342Y-116960714D01*
X202434342Y-116960714D02*
X202243866Y-116960714D01*
X202243866Y-116960714D02*
X202148628Y-116913095D01*
X202148628Y-116913095D02*
X202101009Y-116865476D01*
X202101009Y-116865476D02*
X202053390Y-116770238D01*
X187624819Y-116008333D02*
X187148628Y-115675000D01*
X187624819Y-115436905D02*
X186624819Y-115436905D01*
X186624819Y-115436905D02*
X186624819Y-115817857D01*
X186624819Y-115817857D02*
X186672438Y-115913095D01*
X186672438Y-115913095D02*
X186720057Y-115960714D01*
X186720057Y-115960714D02*
X186815295Y-116008333D01*
X186815295Y-116008333D02*
X186958152Y-116008333D01*
X186958152Y-116008333D02*
X187053390Y-115960714D01*
X187053390Y-115960714D02*
X187101009Y-115913095D01*
X187101009Y-115913095D02*
X187148628Y-115817857D01*
X187148628Y-115817857D02*
X187148628Y-115436905D01*
X186624819Y-116341667D02*
X186624819Y-117008333D01*
X186624819Y-117008333D02*
X187624819Y-116579762D01*
X103024819Y-63682142D02*
X102548628Y-63348809D01*
X103024819Y-63110714D02*
X102024819Y-63110714D01*
X102024819Y-63110714D02*
X102024819Y-63491666D01*
X102024819Y-63491666D02*
X102072438Y-63586904D01*
X102072438Y-63586904D02*
X102120057Y-63634523D01*
X102120057Y-63634523D02*
X102215295Y-63682142D01*
X102215295Y-63682142D02*
X102358152Y-63682142D01*
X102358152Y-63682142D02*
X102453390Y-63634523D01*
X102453390Y-63634523D02*
X102501009Y-63586904D01*
X102501009Y-63586904D02*
X102548628Y-63491666D01*
X102548628Y-63491666D02*
X102548628Y-63110714D01*
X102120057Y-64063095D02*
X102072438Y-64110714D01*
X102072438Y-64110714D02*
X102024819Y-64205952D01*
X102024819Y-64205952D02*
X102024819Y-64444047D01*
X102024819Y-64444047D02*
X102072438Y-64539285D01*
X102072438Y-64539285D02*
X102120057Y-64586904D01*
X102120057Y-64586904D02*
X102215295Y-64634523D01*
X102215295Y-64634523D02*
X102310533Y-64634523D01*
X102310533Y-64634523D02*
X102453390Y-64586904D01*
X102453390Y-64586904D02*
X103024819Y-64015476D01*
X103024819Y-64015476D02*
X103024819Y-64634523D01*
X102024819Y-65253571D02*
X102024819Y-65348809D01*
X102024819Y-65348809D02*
X102072438Y-65444047D01*
X102072438Y-65444047D02*
X102120057Y-65491666D01*
X102120057Y-65491666D02*
X102215295Y-65539285D01*
X102215295Y-65539285D02*
X102405771Y-65586904D01*
X102405771Y-65586904D02*
X102643866Y-65586904D01*
X102643866Y-65586904D02*
X102834342Y-65539285D01*
X102834342Y-65539285D02*
X102929580Y-65491666D01*
X102929580Y-65491666D02*
X102977200Y-65444047D01*
X102977200Y-65444047D02*
X103024819Y-65348809D01*
X103024819Y-65348809D02*
X103024819Y-65253571D01*
X103024819Y-65253571D02*
X102977200Y-65158333D01*
X102977200Y-65158333D02*
X102929580Y-65110714D01*
X102929580Y-65110714D02*
X102834342Y-65063095D01*
X102834342Y-65063095D02*
X102643866Y-65015476D01*
X102643866Y-65015476D02*
X102405771Y-65015476D01*
X102405771Y-65015476D02*
X102215295Y-65063095D01*
X102215295Y-65063095D02*
X102120057Y-65110714D01*
X102120057Y-65110714D02*
X102072438Y-65158333D01*
X102072438Y-65158333D02*
X102024819Y-65253571D01*
D11*
X75800000Y-72360000D02*
X75500000Y-72360000D01*
X75500000Y-93360000D02*
X75500000Y-72360000D01*
X78300000Y-72360000D02*
X77900000Y-72360000D01*
X78167000Y-75367000D02*
X78167000Y-72360000D01*
X80900000Y-72360000D02*
X80500000Y-72360000D01*
X83400000Y-72360000D02*
X83000000Y-72360000D01*
X86000000Y-72360000D02*
X85600000Y-72360000D01*
X88500000Y-72360000D02*
X88100000Y-72360000D01*
X91000000Y-72360000D02*
X90600000Y-72360000D01*
X93600000Y-72360000D02*
X93200000Y-72360000D01*
X96100000Y-72360000D02*
X95700000Y-72360000D01*
X98700000Y-72360000D02*
X98300000Y-72360000D01*
X101200000Y-72360000D02*
X100800000Y-72360000D01*
X103700000Y-72360000D02*
X103300000Y-72360000D01*
X106300000Y-72360000D02*
X105900000Y-72360000D01*
X108800000Y-72360000D02*
X108400000Y-72360000D01*
X111400000Y-72360000D02*
X111000000Y-72360000D01*
X113900000Y-72360000D02*
X113500000Y-72360000D01*
X116500000Y-72360000D02*
X116100000Y-72360000D01*
X119000000Y-72360000D02*
X118600000Y-72360000D01*
X121500000Y-72360000D02*
X121100000Y-72360000D01*
X124100000Y-72360000D02*
X123700000Y-72360000D01*
X75500000Y-75367000D02*
X78167000Y-75367000D01*
X126500000Y-72360000D02*
X126500000Y-79160000D01*
X126500000Y-81760000D02*
X126500000Y-81360000D01*
X126500000Y-84360000D02*
X126500000Y-83960000D01*
X75800000Y-93360000D02*
X75500000Y-93360000D01*
X78300000Y-93360000D02*
X77900000Y-93360000D01*
X80900000Y-93360000D02*
X80500000Y-93360000D01*
X83400000Y-93360000D02*
X83000000Y-93360000D01*
X86000000Y-93360000D02*
X85600000Y-93360000D01*
X88500000Y-93360000D02*
X88100000Y-93360000D01*
X91000000Y-93360000D02*
X90600000Y-93360000D01*
X93600000Y-93360000D02*
X93200000Y-93360000D01*
X96100000Y-93360000D02*
X95700000Y-93360000D01*
X98700000Y-93360000D02*
X98300000Y-93360000D01*
X101200000Y-93360000D02*
X100800000Y-93360000D01*
X103700000Y-93360000D02*
X103300000Y-93360000D01*
X106300000Y-93360000D02*
X105900000Y-93360000D01*
X108800000Y-93360000D02*
X108400000Y-93360000D01*
X111400000Y-93360000D02*
X111000000Y-93360000D01*
X113900000Y-93360000D02*
X113500000Y-93360000D01*
X116500000Y-93360000D02*
X116100000Y-93360000D01*
X119000000Y-93360000D02*
X118600000Y-93360000D01*
X121500000Y-93360000D02*
X121100000Y-93360000D01*
X124100000Y-93360000D02*
X123700000Y-93360000D01*
X126500000Y-86560000D02*
X126500000Y-93360000D01*
X171477500Y-64012258D02*
X171477500Y-63537742D01*
X172522500Y-64012258D02*
X172522500Y-63537742D01*
X155477500Y-63912258D02*
X155477500Y-63437742D01*
X156522500Y-63912258D02*
X156522500Y-63437742D01*
X187477500Y-83087258D02*
X187477500Y-82612742D01*
X188522500Y-83087258D02*
X188522500Y-82612742D01*
X155477500Y-82912258D02*
X155477500Y-82437742D01*
X156522500Y-82912258D02*
X156522500Y-82437742D01*
X113077500Y-116412258D02*
X113077500Y-115937742D01*
X114122500Y-116412258D02*
X114122500Y-115937742D01*
X150577500Y-66062258D02*
X150577500Y-65587742D01*
X151622500Y-66062258D02*
X151622500Y-65587742D01*
X155477500Y-102412258D02*
X155477500Y-101937742D01*
X156522500Y-102412258D02*
X156522500Y-101937742D01*
X171477500Y-82762258D02*
X171477500Y-82287742D01*
X172522500Y-82762258D02*
X172522500Y-82287742D01*
X223977500Y-61737258D02*
X223977500Y-61262742D01*
X225022500Y-61737258D02*
X225022500Y-61262742D01*
X158077500Y-116412258D02*
X158077500Y-115937742D01*
X159122500Y-116412258D02*
X159122500Y-115937742D01*
X141677500Y-66062258D02*
X141677500Y-65587742D01*
X142722500Y-66062258D02*
X142722500Y-65587742D01*
X98077500Y-116412258D02*
X98077500Y-115937742D01*
X99122500Y-116412258D02*
X99122500Y-115937742D01*
X112477500Y-64562258D02*
X112477500Y-64087742D01*
X113522500Y-64562258D02*
X113522500Y-64087742D01*
X173077500Y-116412258D02*
X173077500Y-115937742D01*
X174122500Y-116412258D02*
X174122500Y-115937742D01*
X146177500Y-66062258D02*
X146177500Y-65587742D01*
X147222500Y-66062258D02*
X147222500Y-65587742D01*
X143077500Y-116412258D02*
X143077500Y-115937742D01*
X144122500Y-116412258D02*
X144122500Y-115937742D01*
X107977500Y-64562258D02*
X107977500Y-64087742D01*
X109022500Y-64562258D02*
X109022500Y-64087742D01*
X128077500Y-116412258D02*
X128077500Y-115937742D01*
X129122500Y-116412258D02*
X129122500Y-115937742D01*
X187477500Y-102562258D02*
X187477500Y-102087742D01*
X188522500Y-102562258D02*
X188522500Y-102087742D01*
X219477500Y-61737258D02*
X219477500Y-61262742D01*
X220522500Y-61737258D02*
X220522500Y-61262742D01*
X211477500Y-116412258D02*
X211477500Y-115937742D01*
X212522500Y-116412258D02*
X212522500Y-115937742D01*
X171477500Y-102412258D02*
X171477500Y-101937742D01*
X172522500Y-102412258D02*
X172522500Y-101937742D01*
X187777500Y-64012258D02*
X187777500Y-63537742D01*
X188822500Y-64012258D02*
X188822500Y-63537742D01*
X203077500Y-116412258D02*
X203077500Y-115937742D01*
X204122500Y-116412258D02*
X204122500Y-115937742D01*
X188077500Y-116412258D02*
X188077500Y-115937742D01*
X189122500Y-116412258D02*
X189122500Y-115937742D01*
X103477500Y-64562258D02*
X103477500Y-64087742D01*
X104522500Y-64562258D02*
X104522500Y-64087742D01*
%LPC*%
D12*
X76870000Y-73070000D03*
X79410000Y-73070000D03*
X81950000Y-73070000D03*
X84490000Y-73070000D03*
X87030000Y-73070000D03*
X89570000Y-73070000D03*
X92110000Y-73070000D03*
X94650000Y-73070000D03*
X97190000Y-73070000D03*
X99730000Y-73070000D03*
X102270000Y-73070000D03*
X104810000Y-73070000D03*
X107350000Y-73070000D03*
X109890000Y-73070000D03*
X112430000Y-73070000D03*
X114970000Y-73070000D03*
X117510000Y-73070000D03*
X120050000Y-73070000D03*
X122590000Y-73070000D03*
X125130000Y-73070000D03*
X125130000Y-92650000D03*
X122590000Y-92650000D03*
X120050000Y-92650000D03*
X117510000Y-92650000D03*
X114970000Y-92650000D03*
X112430000Y-92650000D03*
X109890000Y-92650000D03*
X107350000Y-92650000D03*
X104810000Y-92650000D03*
X102270000Y-92650000D03*
X99730000Y-92650000D03*
X97190000Y-92650000D03*
X94650000Y-92650000D03*
X92110000Y-92650000D03*
X89570000Y-92650000D03*
X87030000Y-92650000D03*
X84490000Y-92650000D03*
X81950000Y-92650000D03*
X79410000Y-92650000D03*
X76870000Y-92650000D03*
D13*
X125800000Y-80320000D03*
X125800000Y-82860000D03*
X125800000Y-85400000D03*
D14*
X216000000Y-77000000D03*
X218540000Y-77000000D03*
X221080000Y-77000000D03*
X223620000Y-77000000D03*
D15*
X235000000Y-125000000D03*
X235000000Y-60000000D03*
X80000000Y-125000000D03*
X80000000Y-60000000D03*
D16*
X172000000Y-62950000D03*
X172000000Y-64600000D03*
X156000000Y-62850000D03*
X156000000Y-64500000D03*
X188000000Y-82025000D03*
X188000000Y-83675000D03*
X156000000Y-81850000D03*
X156000000Y-83500000D03*
X113600000Y-115350000D03*
X113600000Y-117000000D03*
X151100000Y-65000000D03*
X151100000Y-66650000D03*
X156000000Y-101350000D03*
X156000000Y-103000000D03*
X172000000Y-81700000D03*
X172000000Y-83350000D03*
X224500000Y-60675000D03*
X224500000Y-62325000D03*
X158600000Y-115350000D03*
X158600000Y-117000000D03*
X142200000Y-65000000D03*
X142200000Y-66650000D03*
X98600000Y-115350000D03*
X98600000Y-117000000D03*
X113000000Y-63500000D03*
X113000000Y-65150000D03*
X173600000Y-115350000D03*
X173600000Y-117000000D03*
X146700000Y-65000000D03*
X146700000Y-66650000D03*
X143600000Y-115350000D03*
X143600000Y-117000000D03*
X108500000Y-63500000D03*
X108500000Y-65150000D03*
X128600000Y-115350000D03*
X128600000Y-117000000D03*
X188000000Y-101500000D03*
X188000000Y-103150000D03*
X220000000Y-60675000D03*
X220000000Y-62325000D03*
X212000000Y-115350000D03*
X212000000Y-117000000D03*
X172000000Y-101350000D03*
X172000000Y-103000000D03*
X188300000Y-62950000D03*
X188300000Y-64600000D03*
X203600000Y-115350000D03*
X203600000Y-117000000D03*
X188600000Y-115350000D03*
X188600000Y-117000000D03*
X104000000Y-63500000D03*
X104000000Y-65150000D03*
%LPD*%
M02*
