%TF.GenerationSoftware,KiCad,Pcbnew,8.0.2*%
%TF.CreationDate,2024-05-04T10:09:35+05:30*%
%TF.ProjectId,macroglider,6d616372-6f67-46c6-9964-65722e6b6963,V1*%
%TF.SameCoordinates,Original*%
%TF.FileFunction,Drillmap*%
%TF.FilePolarity,Positive*%
%FSLAX45Y45*%
G04 Gerber Fmt 4.5, Leading zero omitted, Abs format (unit mm)*
G04 Created by KiCad (PCBNEW 8.0.2) date 2024-05-04 10:09:35*
%MOMM*%
%LPD*%
G01*
G04 APERTURE LIST*
%ADD10C,0.050000*%
%ADD11C,0.100000*%
%ADD12C,0.200000*%
G04 APERTURE END LIST*
D10*
X7500000Y-6000000D02*
G75*
G02*
X8000000Y-5500000I500000J0D01*
G01*
X8000000Y-13000000D02*
G75*
G02*
X7500000Y-12500000I0J500000D01*
G01*
X8000000Y-13000000D02*
X23500000Y-13000000D01*
X8000000Y-5500000D02*
X23500000Y-5500000D01*
X24000000Y-12500000D02*
G75*
G02*
X23500000Y-13000000I-500000J0D01*
G01*
X7500000Y-12500000D02*
X7500000Y-6000000D01*
X23500000Y-5500000D02*
G75*
G02*
X24000000Y-6000000I0J-500000D01*
G01*
X24000000Y-12500000D02*
X24000000Y-6000000D01*
D11*
X20509500Y-8230000D02*
X23452500Y-8230000D01*
X23452500Y-9731000D01*
X20509500Y-9731000D01*
X20509500Y-8230000D01*
D12*
D11*
X9135000Y-11685000D02*
X9165000Y-11715000D01*
X9165000Y-11685000D02*
X9135000Y-11715000D01*
X9377378Y-7751200D02*
X9407378Y-7781200D01*
X9407378Y-7751200D02*
X9377378Y-7781200D01*
X9377378Y-8868800D02*
X9407378Y-8898800D01*
X9407378Y-8868800D02*
X9377378Y-8898800D01*
X10329878Y-8310000D02*
X10359878Y-8340000D01*
X10359878Y-8310000D02*
X10329878Y-8340000D01*
X10635000Y-11685000D02*
X10665000Y-11715000D01*
X10665000Y-11685000D02*
X10635000Y-11715000D01*
X12135000Y-11685000D02*
X12165000Y-11715000D01*
X12165000Y-11685000D02*
X12135000Y-11715000D01*
X13217500Y-7751200D02*
X13247500Y-7781200D01*
X13247500Y-7751200D02*
X13217500Y-7781200D01*
X13217500Y-8868800D02*
X13247500Y-8898800D01*
X13247500Y-8868800D02*
X13217500Y-8898800D01*
X13635000Y-11685000D02*
X13665000Y-11715000D01*
X13665000Y-11685000D02*
X13635000Y-11715000D01*
X14170000Y-8310000D02*
X14200000Y-8340000D01*
X14200000Y-8310000D02*
X14170000Y-8340000D01*
X15135000Y-11685000D02*
X15165000Y-11715000D01*
X15165000Y-11685000D02*
X15135000Y-11715000D01*
X15905000Y-8310000D02*
X15935000Y-8340000D01*
X15935000Y-8310000D02*
X15905000Y-8340000D01*
X15905320Y-6330000D02*
X15935320Y-6360000D01*
X15935320Y-6330000D02*
X15905320Y-6360000D01*
X16005000Y-10290000D02*
X16035000Y-10320000D01*
X16035000Y-10290000D02*
X16005000Y-10320000D01*
X16635000Y-11685000D02*
X16665000Y-11715000D01*
X16665000Y-11685000D02*
X16635000Y-11715000D01*
X17505000Y-8310000D02*
X17535000Y-8340000D01*
X17535000Y-8310000D02*
X17505000Y-8340000D01*
X17505320Y-6330000D02*
X17535320Y-6360000D01*
X17535320Y-6330000D02*
X17505320Y-6360000D01*
X17605000Y-10290000D02*
X17635000Y-10320000D01*
X17635000Y-10290000D02*
X17605000Y-10320000D01*
X18135000Y-11685000D02*
X18165000Y-11715000D01*
X18165000Y-11685000D02*
X18135000Y-11715000D01*
X19105000Y-8310000D02*
X19135000Y-8340000D01*
X19135000Y-8310000D02*
X19105000Y-8340000D01*
X19105320Y-6330000D02*
X19135320Y-6360000D01*
X19135320Y-6330000D02*
X19105320Y-6360000D01*
X19205000Y-10290000D02*
X19235000Y-10320000D01*
X19235000Y-10290000D02*
X19205000Y-10320000D01*
X19635000Y-11685000D02*
X19665000Y-11715000D01*
X19665000Y-11685000D02*
X19635000Y-11715000D01*
X21966000Y-11685000D02*
X21996000Y-11715000D01*
X21996000Y-11685000D02*
X21966000Y-11715000D01*
X21650000Y-7700000D02*
G75*
G02*
X21550000Y-7700000I-50000J0D01*
G01*
X21550000Y-7700000D02*
G75*
G02*
X21650000Y-7700000I50000J0D01*
G01*
X21904000Y-7700000D02*
G75*
G02*
X21804000Y-7700000I-50000J0D01*
G01*
X21804000Y-7700000D02*
G75*
G02*
X21904000Y-7700000I50000J0D01*
G01*
X22158000Y-7700000D02*
G75*
G02*
X22058000Y-7700000I-50000J0D01*
G01*
X22058000Y-7700000D02*
G75*
G02*
X22158000Y-7700000I50000J0D01*
G01*
X22412000Y-7700000D02*
G75*
G02*
X22312000Y-7700000I-50000J0D01*
G01*
X22312000Y-7700000D02*
G75*
G02*
X22412000Y-7700000I50000J0D01*
G01*
D12*
X7758277Y-13313984D02*
X7758277Y-13113984D01*
X7758277Y-13113984D02*
X7805896Y-13113984D01*
X7805896Y-13113984D02*
X7834467Y-13123508D01*
X7834467Y-13123508D02*
X7853515Y-13142555D01*
X7853515Y-13142555D02*
X7863039Y-13161603D01*
X7863039Y-13161603D02*
X7872562Y-13199698D01*
X7872562Y-13199698D02*
X7872562Y-13228269D01*
X7872562Y-13228269D02*
X7863039Y-13266365D01*
X7863039Y-13266365D02*
X7853515Y-13285412D01*
X7853515Y-13285412D02*
X7834467Y-13304460D01*
X7834467Y-13304460D02*
X7805896Y-13313984D01*
X7805896Y-13313984D02*
X7758277Y-13313984D01*
X7958277Y-13313984D02*
X7958277Y-13180650D01*
X7958277Y-13218746D02*
X7967801Y-13199698D01*
X7967801Y-13199698D02*
X7977324Y-13190174D01*
X7977324Y-13190174D02*
X7996372Y-13180650D01*
X7996372Y-13180650D02*
X8015420Y-13180650D01*
X8082086Y-13313984D02*
X8082086Y-13180650D01*
X8082086Y-13113984D02*
X8072562Y-13123508D01*
X8072562Y-13123508D02*
X8082086Y-13133031D01*
X8082086Y-13133031D02*
X8091610Y-13123508D01*
X8091610Y-13123508D02*
X8082086Y-13113984D01*
X8082086Y-13113984D02*
X8082086Y-13133031D01*
X8205896Y-13313984D02*
X8186848Y-13304460D01*
X8186848Y-13304460D02*
X8177324Y-13285412D01*
X8177324Y-13285412D02*
X8177324Y-13113984D01*
X8310658Y-13313984D02*
X8291610Y-13304460D01*
X8291610Y-13304460D02*
X8282086Y-13285412D01*
X8282086Y-13285412D02*
X8282086Y-13113984D01*
X8539229Y-13313984D02*
X8539229Y-13113984D01*
X8539229Y-13113984D02*
X8605896Y-13256841D01*
X8605896Y-13256841D02*
X8672563Y-13113984D01*
X8672563Y-13113984D02*
X8672563Y-13313984D01*
X8853515Y-13313984D02*
X8853515Y-13209222D01*
X8853515Y-13209222D02*
X8843991Y-13190174D01*
X8843991Y-13190174D02*
X8824944Y-13180650D01*
X8824944Y-13180650D02*
X8786848Y-13180650D01*
X8786848Y-13180650D02*
X8767801Y-13190174D01*
X8853515Y-13304460D02*
X8834467Y-13313984D01*
X8834467Y-13313984D02*
X8786848Y-13313984D01*
X8786848Y-13313984D02*
X8767801Y-13304460D01*
X8767801Y-13304460D02*
X8758277Y-13285412D01*
X8758277Y-13285412D02*
X8758277Y-13266365D01*
X8758277Y-13266365D02*
X8767801Y-13247317D01*
X8767801Y-13247317D02*
X8786848Y-13237793D01*
X8786848Y-13237793D02*
X8834467Y-13237793D01*
X8834467Y-13237793D02*
X8853515Y-13228269D01*
X8948753Y-13180650D02*
X8948753Y-13380650D01*
X8948753Y-13190174D02*
X8967801Y-13180650D01*
X8967801Y-13180650D02*
X9005896Y-13180650D01*
X9005896Y-13180650D02*
X9024944Y-13190174D01*
X9024944Y-13190174D02*
X9034467Y-13199698D01*
X9034467Y-13199698D02*
X9043991Y-13218746D01*
X9043991Y-13218746D02*
X9043991Y-13275888D01*
X9043991Y-13275888D02*
X9034467Y-13294936D01*
X9034467Y-13294936D02*
X9024944Y-13304460D01*
X9024944Y-13304460D02*
X9005896Y-13313984D01*
X9005896Y-13313984D02*
X8967801Y-13313984D01*
X8967801Y-13313984D02*
X8948753Y-13304460D01*
X9129705Y-13294936D02*
X9139229Y-13304460D01*
X9139229Y-13304460D02*
X9129705Y-13313984D01*
X9129705Y-13313984D02*
X9120182Y-13304460D01*
X9120182Y-13304460D02*
X9129705Y-13294936D01*
X9129705Y-13294936D02*
X9129705Y-13313984D01*
X9129705Y-13190174D02*
X9139229Y-13199698D01*
X9139229Y-13199698D02*
X9129705Y-13209222D01*
X9129705Y-13209222D02*
X9120182Y-13199698D01*
X9120182Y-13199698D02*
X9129705Y-13190174D01*
X9129705Y-13190174D02*
X9129705Y-13209222D01*
D11*
X7467500Y-13627500D02*
X7497500Y-13657500D01*
X7497500Y-13627500D02*
X7467500Y-13657500D01*
D12*
X7796372Y-13533984D02*
X7815420Y-13533984D01*
X7815420Y-13533984D02*
X7834467Y-13543508D01*
X7834467Y-13543508D02*
X7843991Y-13553031D01*
X7843991Y-13553031D02*
X7853515Y-13572079D01*
X7853515Y-13572079D02*
X7863039Y-13610174D01*
X7863039Y-13610174D02*
X7863039Y-13657793D01*
X7863039Y-13657793D02*
X7853515Y-13695888D01*
X7853515Y-13695888D02*
X7843991Y-13714936D01*
X7843991Y-13714936D02*
X7834467Y-13724460D01*
X7834467Y-13724460D02*
X7815420Y-13733984D01*
X7815420Y-13733984D02*
X7796372Y-13733984D01*
X7796372Y-13733984D02*
X7777324Y-13724460D01*
X7777324Y-13724460D02*
X7767801Y-13714936D01*
X7767801Y-13714936D02*
X7758277Y-13695888D01*
X7758277Y-13695888D02*
X7748753Y-13657793D01*
X7748753Y-13657793D02*
X7748753Y-13610174D01*
X7748753Y-13610174D02*
X7758277Y-13572079D01*
X7758277Y-13572079D02*
X7767801Y-13553031D01*
X7767801Y-13553031D02*
X7777324Y-13543508D01*
X7777324Y-13543508D02*
X7796372Y-13533984D01*
X7948753Y-13714936D02*
X7958277Y-13724460D01*
X7958277Y-13724460D02*
X7948753Y-13733984D01*
X7948753Y-13733984D02*
X7939229Y-13724460D01*
X7939229Y-13724460D02*
X7948753Y-13714936D01*
X7948753Y-13714936D02*
X7948753Y-13733984D01*
X8024943Y-13533984D02*
X8148753Y-13533984D01*
X8148753Y-13533984D02*
X8082086Y-13610174D01*
X8082086Y-13610174D02*
X8110658Y-13610174D01*
X8110658Y-13610174D02*
X8129705Y-13619698D01*
X8129705Y-13619698D02*
X8139229Y-13629222D01*
X8139229Y-13629222D02*
X8148753Y-13648269D01*
X8148753Y-13648269D02*
X8148753Y-13695888D01*
X8148753Y-13695888D02*
X8139229Y-13714936D01*
X8139229Y-13714936D02*
X8129705Y-13724460D01*
X8129705Y-13724460D02*
X8110658Y-13733984D01*
X8110658Y-13733984D02*
X8053515Y-13733984D01*
X8053515Y-13733984D02*
X8034467Y-13724460D01*
X8034467Y-13724460D02*
X8024943Y-13714936D01*
X8272562Y-13533984D02*
X8291610Y-13533984D01*
X8291610Y-13533984D02*
X8310658Y-13543508D01*
X8310658Y-13543508D02*
X8320182Y-13553031D01*
X8320182Y-13553031D02*
X8329705Y-13572079D01*
X8329705Y-13572079D02*
X8339229Y-13610174D01*
X8339229Y-13610174D02*
X8339229Y-13657793D01*
X8339229Y-13657793D02*
X8329705Y-13695888D01*
X8329705Y-13695888D02*
X8320182Y-13714936D01*
X8320182Y-13714936D02*
X8310658Y-13724460D01*
X8310658Y-13724460D02*
X8291610Y-13733984D01*
X8291610Y-13733984D02*
X8272562Y-13733984D01*
X8272562Y-13733984D02*
X8253515Y-13724460D01*
X8253515Y-13724460D02*
X8243991Y-13714936D01*
X8243991Y-13714936D02*
X8234467Y-13695888D01*
X8234467Y-13695888D02*
X8224943Y-13657793D01*
X8224943Y-13657793D02*
X8224943Y-13610174D01*
X8224943Y-13610174D02*
X8234467Y-13572079D01*
X8234467Y-13572079D02*
X8243991Y-13553031D01*
X8243991Y-13553031D02*
X8253515Y-13543508D01*
X8253515Y-13543508D02*
X8272562Y-13533984D01*
X8463039Y-13533984D02*
X8482086Y-13533984D01*
X8482086Y-13533984D02*
X8501134Y-13543508D01*
X8501134Y-13543508D02*
X8510658Y-13553031D01*
X8510658Y-13553031D02*
X8520182Y-13572079D01*
X8520182Y-13572079D02*
X8529705Y-13610174D01*
X8529705Y-13610174D02*
X8529705Y-13657793D01*
X8529705Y-13657793D02*
X8520182Y-13695888D01*
X8520182Y-13695888D02*
X8510658Y-13714936D01*
X8510658Y-13714936D02*
X8501134Y-13724460D01*
X8501134Y-13724460D02*
X8482086Y-13733984D01*
X8482086Y-13733984D02*
X8463039Y-13733984D01*
X8463039Y-13733984D02*
X8443991Y-13724460D01*
X8443991Y-13724460D02*
X8434467Y-13714936D01*
X8434467Y-13714936D02*
X8424944Y-13695888D01*
X8424944Y-13695888D02*
X8415420Y-13657793D01*
X8415420Y-13657793D02*
X8415420Y-13610174D01*
X8415420Y-13610174D02*
X8424944Y-13572079D01*
X8424944Y-13572079D02*
X8434467Y-13553031D01*
X8434467Y-13553031D02*
X8443991Y-13543508D01*
X8443991Y-13543508D02*
X8463039Y-13533984D01*
X8615420Y-13733984D02*
X8615420Y-13600650D01*
X8615420Y-13619698D02*
X8624944Y-13610174D01*
X8624944Y-13610174D02*
X8643991Y-13600650D01*
X8643991Y-13600650D02*
X8672563Y-13600650D01*
X8672563Y-13600650D02*
X8691610Y-13610174D01*
X8691610Y-13610174D02*
X8701134Y-13629222D01*
X8701134Y-13629222D02*
X8701134Y-13733984D01*
X8701134Y-13629222D02*
X8710658Y-13610174D01*
X8710658Y-13610174D02*
X8729705Y-13600650D01*
X8729705Y-13600650D02*
X8758277Y-13600650D01*
X8758277Y-13600650D02*
X8777325Y-13610174D01*
X8777325Y-13610174D02*
X8786848Y-13629222D01*
X8786848Y-13629222D02*
X8786848Y-13733984D01*
X8882086Y-13733984D02*
X8882086Y-13600650D01*
X8882086Y-13619698D02*
X8891610Y-13610174D01*
X8891610Y-13610174D02*
X8910658Y-13600650D01*
X8910658Y-13600650D02*
X8939229Y-13600650D01*
X8939229Y-13600650D02*
X8958277Y-13610174D01*
X8958277Y-13610174D02*
X8967801Y-13629222D01*
X8967801Y-13629222D02*
X8967801Y-13733984D01*
X8967801Y-13629222D02*
X8977325Y-13610174D01*
X8977325Y-13610174D02*
X8996372Y-13600650D01*
X8996372Y-13600650D02*
X9024944Y-13600650D01*
X9024944Y-13600650D02*
X9043991Y-13610174D01*
X9043991Y-13610174D02*
X9053515Y-13629222D01*
X9053515Y-13629222D02*
X9053515Y-13733984D01*
X9443991Y-13524460D02*
X9272563Y-13781603D01*
X9701134Y-13533984D02*
X9720182Y-13533984D01*
X9720182Y-13533984D02*
X9739229Y-13543508D01*
X9739229Y-13543508D02*
X9748753Y-13553031D01*
X9748753Y-13553031D02*
X9758277Y-13572079D01*
X9758277Y-13572079D02*
X9767801Y-13610174D01*
X9767801Y-13610174D02*
X9767801Y-13657793D01*
X9767801Y-13657793D02*
X9758277Y-13695888D01*
X9758277Y-13695888D02*
X9748753Y-13714936D01*
X9748753Y-13714936D02*
X9739229Y-13724460D01*
X9739229Y-13724460D02*
X9720182Y-13733984D01*
X9720182Y-13733984D02*
X9701134Y-13733984D01*
X9701134Y-13733984D02*
X9682087Y-13724460D01*
X9682087Y-13724460D02*
X9672563Y-13714936D01*
X9672563Y-13714936D02*
X9663039Y-13695888D01*
X9663039Y-13695888D02*
X9653515Y-13657793D01*
X9653515Y-13657793D02*
X9653515Y-13610174D01*
X9653515Y-13610174D02*
X9663039Y-13572079D01*
X9663039Y-13572079D02*
X9672563Y-13553031D01*
X9672563Y-13553031D02*
X9682087Y-13543508D01*
X9682087Y-13543508D02*
X9701134Y-13533984D01*
X9853515Y-13714936D02*
X9863039Y-13724460D01*
X9863039Y-13724460D02*
X9853515Y-13733984D01*
X9853515Y-13733984D02*
X9843991Y-13724460D01*
X9843991Y-13724460D02*
X9853515Y-13714936D01*
X9853515Y-13714936D02*
X9853515Y-13733984D01*
X9986848Y-13533984D02*
X10005896Y-13533984D01*
X10005896Y-13533984D02*
X10024944Y-13543508D01*
X10024944Y-13543508D02*
X10034468Y-13553031D01*
X10034468Y-13553031D02*
X10043991Y-13572079D01*
X10043991Y-13572079D02*
X10053515Y-13610174D01*
X10053515Y-13610174D02*
X10053515Y-13657793D01*
X10053515Y-13657793D02*
X10043991Y-13695888D01*
X10043991Y-13695888D02*
X10034468Y-13714936D01*
X10034468Y-13714936D02*
X10024944Y-13724460D01*
X10024944Y-13724460D02*
X10005896Y-13733984D01*
X10005896Y-13733984D02*
X9986848Y-13733984D01*
X9986848Y-13733984D02*
X9967801Y-13724460D01*
X9967801Y-13724460D02*
X9958277Y-13714936D01*
X9958277Y-13714936D02*
X9948753Y-13695888D01*
X9948753Y-13695888D02*
X9939229Y-13657793D01*
X9939229Y-13657793D02*
X9939229Y-13610174D01*
X9939229Y-13610174D02*
X9948753Y-13572079D01*
X9948753Y-13572079D02*
X9958277Y-13553031D01*
X9958277Y-13553031D02*
X9967801Y-13543508D01*
X9967801Y-13543508D02*
X9986848Y-13533984D01*
X10243991Y-13733984D02*
X10129706Y-13733984D01*
X10186848Y-13733984D02*
X10186848Y-13533984D01*
X10186848Y-13533984D02*
X10167801Y-13562555D01*
X10167801Y-13562555D02*
X10148753Y-13581603D01*
X10148753Y-13581603D02*
X10129706Y-13591127D01*
X10434468Y-13733984D02*
X10320182Y-13733984D01*
X10377325Y-13733984D02*
X10377325Y-13533984D01*
X10377325Y-13533984D02*
X10358277Y-13562555D01*
X10358277Y-13562555D02*
X10339229Y-13581603D01*
X10339229Y-13581603D02*
X10320182Y-13591127D01*
X10548753Y-13619698D02*
X10529706Y-13610174D01*
X10529706Y-13610174D02*
X10520182Y-13600650D01*
X10520182Y-13600650D02*
X10510658Y-13581603D01*
X10510658Y-13581603D02*
X10510658Y-13572079D01*
X10510658Y-13572079D02*
X10520182Y-13553031D01*
X10520182Y-13553031D02*
X10529706Y-13543508D01*
X10529706Y-13543508D02*
X10548753Y-13533984D01*
X10548753Y-13533984D02*
X10586849Y-13533984D01*
X10586849Y-13533984D02*
X10605896Y-13543508D01*
X10605896Y-13543508D02*
X10615420Y-13553031D01*
X10615420Y-13553031D02*
X10624944Y-13572079D01*
X10624944Y-13572079D02*
X10624944Y-13581603D01*
X10624944Y-13581603D02*
X10615420Y-13600650D01*
X10615420Y-13600650D02*
X10605896Y-13610174D01*
X10605896Y-13610174D02*
X10586849Y-13619698D01*
X10586849Y-13619698D02*
X10548753Y-13619698D01*
X10548753Y-13619698D02*
X10529706Y-13629222D01*
X10529706Y-13629222D02*
X10520182Y-13638746D01*
X10520182Y-13638746D02*
X10510658Y-13657793D01*
X10510658Y-13657793D02*
X10510658Y-13695888D01*
X10510658Y-13695888D02*
X10520182Y-13714936D01*
X10520182Y-13714936D02*
X10529706Y-13724460D01*
X10529706Y-13724460D02*
X10548753Y-13733984D01*
X10548753Y-13733984D02*
X10586849Y-13733984D01*
X10586849Y-13733984D02*
X10605896Y-13724460D01*
X10605896Y-13724460D02*
X10615420Y-13714936D01*
X10615420Y-13714936D02*
X10624944Y-13695888D01*
X10624944Y-13695888D02*
X10624944Y-13657793D01*
X10624944Y-13657793D02*
X10615420Y-13638746D01*
X10615420Y-13638746D02*
X10605896Y-13629222D01*
X10605896Y-13629222D02*
X10586849Y-13619698D01*
X10701134Y-13533984D02*
X10701134Y-13572079D01*
X10777325Y-13533984D02*
X10777325Y-13572079D01*
X11072563Y-13810174D02*
X11063039Y-13800650D01*
X11063039Y-13800650D02*
X11043991Y-13772079D01*
X11043991Y-13772079D02*
X11034468Y-13753031D01*
X11034468Y-13753031D02*
X11024944Y-13724460D01*
X11024944Y-13724460D02*
X11015420Y-13676841D01*
X11015420Y-13676841D02*
X11015420Y-13638746D01*
X11015420Y-13638746D02*
X11024944Y-13591127D01*
X11024944Y-13591127D02*
X11034468Y-13562555D01*
X11034468Y-13562555D02*
X11043991Y-13543508D01*
X11043991Y-13543508D02*
X11063039Y-13514936D01*
X11063039Y-13514936D02*
X11072563Y-13505412D01*
X11139230Y-13553031D02*
X11148753Y-13543508D01*
X11148753Y-13543508D02*
X11167801Y-13533984D01*
X11167801Y-13533984D02*
X11215420Y-13533984D01*
X11215420Y-13533984D02*
X11234468Y-13543508D01*
X11234468Y-13543508D02*
X11243991Y-13553031D01*
X11243991Y-13553031D02*
X11253515Y-13572079D01*
X11253515Y-13572079D02*
X11253515Y-13591127D01*
X11253515Y-13591127D02*
X11243991Y-13619698D01*
X11243991Y-13619698D02*
X11129706Y-13733984D01*
X11129706Y-13733984D02*
X11253515Y-13733984D01*
X11424944Y-13600650D02*
X11424944Y-13733984D01*
X11377325Y-13524460D02*
X11329706Y-13667317D01*
X11329706Y-13667317D02*
X11453515Y-13667317D01*
X11682087Y-13733984D02*
X11682087Y-13533984D01*
X11767801Y-13733984D02*
X11767801Y-13629222D01*
X11767801Y-13629222D02*
X11758277Y-13610174D01*
X11758277Y-13610174D02*
X11739230Y-13600650D01*
X11739230Y-13600650D02*
X11710658Y-13600650D01*
X11710658Y-13600650D02*
X11691610Y-13610174D01*
X11691610Y-13610174D02*
X11682087Y-13619698D01*
X11891610Y-13733984D02*
X11872563Y-13724460D01*
X11872563Y-13724460D02*
X11863039Y-13714936D01*
X11863039Y-13714936D02*
X11853515Y-13695888D01*
X11853515Y-13695888D02*
X11853515Y-13638746D01*
X11853515Y-13638746D02*
X11863039Y-13619698D01*
X11863039Y-13619698D02*
X11872563Y-13610174D01*
X11872563Y-13610174D02*
X11891610Y-13600650D01*
X11891610Y-13600650D02*
X11920182Y-13600650D01*
X11920182Y-13600650D02*
X11939230Y-13610174D01*
X11939230Y-13610174D02*
X11948753Y-13619698D01*
X11948753Y-13619698D02*
X11958277Y-13638746D01*
X11958277Y-13638746D02*
X11958277Y-13695888D01*
X11958277Y-13695888D02*
X11948753Y-13714936D01*
X11948753Y-13714936D02*
X11939230Y-13724460D01*
X11939230Y-13724460D02*
X11920182Y-13733984D01*
X11920182Y-13733984D02*
X11891610Y-13733984D01*
X12072563Y-13733984D02*
X12053515Y-13724460D01*
X12053515Y-13724460D02*
X12043991Y-13705412D01*
X12043991Y-13705412D02*
X12043991Y-13533984D01*
X12224944Y-13724460D02*
X12205896Y-13733984D01*
X12205896Y-13733984D02*
X12167801Y-13733984D01*
X12167801Y-13733984D02*
X12148753Y-13724460D01*
X12148753Y-13724460D02*
X12139230Y-13705412D01*
X12139230Y-13705412D02*
X12139230Y-13629222D01*
X12139230Y-13629222D02*
X12148753Y-13610174D01*
X12148753Y-13610174D02*
X12167801Y-13600650D01*
X12167801Y-13600650D02*
X12205896Y-13600650D01*
X12205896Y-13600650D02*
X12224944Y-13610174D01*
X12224944Y-13610174D02*
X12234468Y-13629222D01*
X12234468Y-13629222D02*
X12234468Y-13648269D01*
X12234468Y-13648269D02*
X12139230Y-13667317D01*
X12310658Y-13724460D02*
X12329706Y-13733984D01*
X12329706Y-13733984D02*
X12367801Y-13733984D01*
X12367801Y-13733984D02*
X12386849Y-13724460D01*
X12386849Y-13724460D02*
X12396372Y-13705412D01*
X12396372Y-13705412D02*
X12396372Y-13695888D01*
X12396372Y-13695888D02*
X12386849Y-13676841D01*
X12386849Y-13676841D02*
X12367801Y-13667317D01*
X12367801Y-13667317D02*
X12339230Y-13667317D01*
X12339230Y-13667317D02*
X12320182Y-13657793D01*
X12320182Y-13657793D02*
X12310658Y-13638746D01*
X12310658Y-13638746D02*
X12310658Y-13629222D01*
X12310658Y-13629222D02*
X12320182Y-13610174D01*
X12320182Y-13610174D02*
X12339230Y-13600650D01*
X12339230Y-13600650D02*
X12367801Y-13600650D01*
X12367801Y-13600650D02*
X12386849Y-13610174D01*
X12463039Y-13810174D02*
X12472563Y-13800650D01*
X12472563Y-13800650D02*
X12491611Y-13772079D01*
X12491611Y-13772079D02*
X12501134Y-13753031D01*
X12501134Y-13753031D02*
X12510658Y-13724460D01*
X12510658Y-13724460D02*
X12520182Y-13676841D01*
X12520182Y-13676841D02*
X12520182Y-13638746D01*
X12520182Y-13638746D02*
X12510658Y-13591127D01*
X12510658Y-13591127D02*
X12501134Y-13562555D01*
X12501134Y-13562555D02*
X12491611Y-13543508D01*
X12491611Y-13543508D02*
X12472563Y-13514936D01*
X12472563Y-13514936D02*
X12463039Y-13505412D01*
D11*
X7497500Y-13906500D02*
G75*
G02*
X7397500Y-13906500I-50000J0D01*
G01*
X7397500Y-13906500D02*
G75*
G02*
X7497500Y-13906500I50000J0D01*
G01*
D12*
X7863039Y-13997984D02*
X7748753Y-13997984D01*
X7805896Y-13997984D02*
X7805896Y-13797984D01*
X7805896Y-13797984D02*
X7786848Y-13826555D01*
X7786848Y-13826555D02*
X7767801Y-13845603D01*
X7767801Y-13845603D02*
X7748753Y-13855127D01*
X7948753Y-13978936D02*
X7958277Y-13988460D01*
X7958277Y-13988460D02*
X7948753Y-13997984D01*
X7948753Y-13997984D02*
X7939229Y-13988460D01*
X7939229Y-13988460D02*
X7948753Y-13978936D01*
X7948753Y-13978936D02*
X7948753Y-13997984D01*
X8082086Y-13797984D02*
X8101134Y-13797984D01*
X8101134Y-13797984D02*
X8120182Y-13807508D01*
X8120182Y-13807508D02*
X8129705Y-13817031D01*
X8129705Y-13817031D02*
X8139229Y-13836079D01*
X8139229Y-13836079D02*
X8148753Y-13874174D01*
X8148753Y-13874174D02*
X8148753Y-13921793D01*
X8148753Y-13921793D02*
X8139229Y-13959888D01*
X8139229Y-13959888D02*
X8129705Y-13978936D01*
X8129705Y-13978936D02*
X8120182Y-13988460D01*
X8120182Y-13988460D02*
X8101134Y-13997984D01*
X8101134Y-13997984D02*
X8082086Y-13997984D01*
X8082086Y-13997984D02*
X8063039Y-13988460D01*
X8063039Y-13988460D02*
X8053515Y-13978936D01*
X8053515Y-13978936D02*
X8043991Y-13959888D01*
X8043991Y-13959888D02*
X8034467Y-13921793D01*
X8034467Y-13921793D02*
X8034467Y-13874174D01*
X8034467Y-13874174D02*
X8043991Y-13836079D01*
X8043991Y-13836079D02*
X8053515Y-13817031D01*
X8053515Y-13817031D02*
X8063039Y-13807508D01*
X8063039Y-13807508D02*
X8082086Y-13797984D01*
X8272562Y-13797984D02*
X8291610Y-13797984D01*
X8291610Y-13797984D02*
X8310658Y-13807508D01*
X8310658Y-13807508D02*
X8320182Y-13817031D01*
X8320182Y-13817031D02*
X8329705Y-13836079D01*
X8329705Y-13836079D02*
X8339229Y-13874174D01*
X8339229Y-13874174D02*
X8339229Y-13921793D01*
X8339229Y-13921793D02*
X8329705Y-13959888D01*
X8329705Y-13959888D02*
X8320182Y-13978936D01*
X8320182Y-13978936D02*
X8310658Y-13988460D01*
X8310658Y-13988460D02*
X8291610Y-13997984D01*
X8291610Y-13997984D02*
X8272562Y-13997984D01*
X8272562Y-13997984D02*
X8253515Y-13988460D01*
X8253515Y-13988460D02*
X8243991Y-13978936D01*
X8243991Y-13978936D02*
X8234467Y-13959888D01*
X8234467Y-13959888D02*
X8224943Y-13921793D01*
X8224943Y-13921793D02*
X8224943Y-13874174D01*
X8224943Y-13874174D02*
X8234467Y-13836079D01*
X8234467Y-13836079D02*
X8243991Y-13817031D01*
X8243991Y-13817031D02*
X8253515Y-13807508D01*
X8253515Y-13807508D02*
X8272562Y-13797984D01*
X8463039Y-13797984D02*
X8482086Y-13797984D01*
X8482086Y-13797984D02*
X8501134Y-13807508D01*
X8501134Y-13807508D02*
X8510658Y-13817031D01*
X8510658Y-13817031D02*
X8520182Y-13836079D01*
X8520182Y-13836079D02*
X8529705Y-13874174D01*
X8529705Y-13874174D02*
X8529705Y-13921793D01*
X8529705Y-13921793D02*
X8520182Y-13959888D01*
X8520182Y-13959888D02*
X8510658Y-13978936D01*
X8510658Y-13978936D02*
X8501134Y-13988460D01*
X8501134Y-13988460D02*
X8482086Y-13997984D01*
X8482086Y-13997984D02*
X8463039Y-13997984D01*
X8463039Y-13997984D02*
X8443991Y-13988460D01*
X8443991Y-13988460D02*
X8434467Y-13978936D01*
X8434467Y-13978936D02*
X8424944Y-13959888D01*
X8424944Y-13959888D02*
X8415420Y-13921793D01*
X8415420Y-13921793D02*
X8415420Y-13874174D01*
X8415420Y-13874174D02*
X8424944Y-13836079D01*
X8424944Y-13836079D02*
X8434467Y-13817031D01*
X8434467Y-13817031D02*
X8443991Y-13807508D01*
X8443991Y-13807508D02*
X8463039Y-13797984D01*
X8615420Y-13997984D02*
X8615420Y-13864650D01*
X8615420Y-13883698D02*
X8624944Y-13874174D01*
X8624944Y-13874174D02*
X8643991Y-13864650D01*
X8643991Y-13864650D02*
X8672563Y-13864650D01*
X8672563Y-13864650D02*
X8691610Y-13874174D01*
X8691610Y-13874174D02*
X8701134Y-13893222D01*
X8701134Y-13893222D02*
X8701134Y-13997984D01*
X8701134Y-13893222D02*
X8710658Y-13874174D01*
X8710658Y-13874174D02*
X8729705Y-13864650D01*
X8729705Y-13864650D02*
X8758277Y-13864650D01*
X8758277Y-13864650D02*
X8777325Y-13874174D01*
X8777325Y-13874174D02*
X8786848Y-13893222D01*
X8786848Y-13893222D02*
X8786848Y-13997984D01*
X8882086Y-13997984D02*
X8882086Y-13864650D01*
X8882086Y-13883698D02*
X8891610Y-13874174D01*
X8891610Y-13874174D02*
X8910658Y-13864650D01*
X8910658Y-13864650D02*
X8939229Y-13864650D01*
X8939229Y-13864650D02*
X8958277Y-13874174D01*
X8958277Y-13874174D02*
X8967801Y-13893222D01*
X8967801Y-13893222D02*
X8967801Y-13997984D01*
X8967801Y-13893222D02*
X8977325Y-13874174D01*
X8977325Y-13874174D02*
X8996372Y-13864650D01*
X8996372Y-13864650D02*
X9024944Y-13864650D01*
X9024944Y-13864650D02*
X9043991Y-13874174D01*
X9043991Y-13874174D02*
X9053515Y-13893222D01*
X9053515Y-13893222D02*
X9053515Y-13997984D01*
X9443991Y-13788460D02*
X9272563Y-14045603D01*
X9701134Y-13797984D02*
X9720182Y-13797984D01*
X9720182Y-13797984D02*
X9739229Y-13807508D01*
X9739229Y-13807508D02*
X9748753Y-13817031D01*
X9748753Y-13817031D02*
X9758277Y-13836079D01*
X9758277Y-13836079D02*
X9767801Y-13874174D01*
X9767801Y-13874174D02*
X9767801Y-13921793D01*
X9767801Y-13921793D02*
X9758277Y-13959888D01*
X9758277Y-13959888D02*
X9748753Y-13978936D01*
X9748753Y-13978936D02*
X9739229Y-13988460D01*
X9739229Y-13988460D02*
X9720182Y-13997984D01*
X9720182Y-13997984D02*
X9701134Y-13997984D01*
X9701134Y-13997984D02*
X9682087Y-13988460D01*
X9682087Y-13988460D02*
X9672563Y-13978936D01*
X9672563Y-13978936D02*
X9663039Y-13959888D01*
X9663039Y-13959888D02*
X9653515Y-13921793D01*
X9653515Y-13921793D02*
X9653515Y-13874174D01*
X9653515Y-13874174D02*
X9663039Y-13836079D01*
X9663039Y-13836079D02*
X9672563Y-13817031D01*
X9672563Y-13817031D02*
X9682087Y-13807508D01*
X9682087Y-13807508D02*
X9701134Y-13797984D01*
X9853515Y-13978936D02*
X9863039Y-13988460D01*
X9863039Y-13988460D02*
X9853515Y-13997984D01*
X9853515Y-13997984D02*
X9843991Y-13988460D01*
X9843991Y-13988460D02*
X9853515Y-13978936D01*
X9853515Y-13978936D02*
X9853515Y-13997984D01*
X9986848Y-13797984D02*
X10005896Y-13797984D01*
X10005896Y-13797984D02*
X10024944Y-13807508D01*
X10024944Y-13807508D02*
X10034468Y-13817031D01*
X10034468Y-13817031D02*
X10043991Y-13836079D01*
X10043991Y-13836079D02*
X10053515Y-13874174D01*
X10053515Y-13874174D02*
X10053515Y-13921793D01*
X10053515Y-13921793D02*
X10043991Y-13959888D01*
X10043991Y-13959888D02*
X10034468Y-13978936D01*
X10034468Y-13978936D02*
X10024944Y-13988460D01*
X10024944Y-13988460D02*
X10005896Y-13997984D01*
X10005896Y-13997984D02*
X9986848Y-13997984D01*
X9986848Y-13997984D02*
X9967801Y-13988460D01*
X9967801Y-13988460D02*
X9958277Y-13978936D01*
X9958277Y-13978936D02*
X9948753Y-13959888D01*
X9948753Y-13959888D02*
X9939229Y-13921793D01*
X9939229Y-13921793D02*
X9939229Y-13874174D01*
X9939229Y-13874174D02*
X9948753Y-13836079D01*
X9948753Y-13836079D02*
X9958277Y-13817031D01*
X9958277Y-13817031D02*
X9967801Y-13807508D01*
X9967801Y-13807508D02*
X9986848Y-13797984D01*
X10120182Y-13797984D02*
X10243991Y-13797984D01*
X10243991Y-13797984D02*
X10177325Y-13874174D01*
X10177325Y-13874174D02*
X10205896Y-13874174D01*
X10205896Y-13874174D02*
X10224944Y-13883698D01*
X10224944Y-13883698D02*
X10234468Y-13893222D01*
X10234468Y-13893222D02*
X10243991Y-13912269D01*
X10243991Y-13912269D02*
X10243991Y-13959888D01*
X10243991Y-13959888D02*
X10234468Y-13978936D01*
X10234468Y-13978936D02*
X10224944Y-13988460D01*
X10224944Y-13988460D02*
X10205896Y-13997984D01*
X10205896Y-13997984D02*
X10148753Y-13997984D01*
X10148753Y-13997984D02*
X10129706Y-13988460D01*
X10129706Y-13988460D02*
X10120182Y-13978936D01*
X10339229Y-13997984D02*
X10377325Y-13997984D01*
X10377325Y-13997984D02*
X10396372Y-13988460D01*
X10396372Y-13988460D02*
X10405896Y-13978936D01*
X10405896Y-13978936D02*
X10424944Y-13950365D01*
X10424944Y-13950365D02*
X10434468Y-13912269D01*
X10434468Y-13912269D02*
X10434468Y-13836079D01*
X10434468Y-13836079D02*
X10424944Y-13817031D01*
X10424944Y-13817031D02*
X10415420Y-13807508D01*
X10415420Y-13807508D02*
X10396372Y-13797984D01*
X10396372Y-13797984D02*
X10358277Y-13797984D01*
X10358277Y-13797984D02*
X10339229Y-13807508D01*
X10339229Y-13807508D02*
X10329706Y-13817031D01*
X10329706Y-13817031D02*
X10320182Y-13836079D01*
X10320182Y-13836079D02*
X10320182Y-13883698D01*
X10320182Y-13883698D02*
X10329706Y-13902746D01*
X10329706Y-13902746D02*
X10339229Y-13912269D01*
X10339229Y-13912269D02*
X10358277Y-13921793D01*
X10358277Y-13921793D02*
X10396372Y-13921793D01*
X10396372Y-13921793D02*
X10415420Y-13912269D01*
X10415420Y-13912269D02*
X10424944Y-13902746D01*
X10424944Y-13902746D02*
X10434468Y-13883698D01*
X10605896Y-13864650D02*
X10605896Y-13997984D01*
X10558277Y-13788460D02*
X10510658Y-13931317D01*
X10510658Y-13931317D02*
X10634468Y-13931317D01*
X10701134Y-13797984D02*
X10701134Y-13836079D01*
X10777325Y-13797984D02*
X10777325Y-13836079D01*
X11072563Y-14074174D02*
X11063039Y-14064650D01*
X11063039Y-14064650D02*
X11043991Y-14036079D01*
X11043991Y-14036079D02*
X11034468Y-14017031D01*
X11034468Y-14017031D02*
X11024944Y-13988460D01*
X11024944Y-13988460D02*
X11015420Y-13940841D01*
X11015420Y-13940841D02*
X11015420Y-13902746D01*
X11015420Y-13902746D02*
X11024944Y-13855127D01*
X11024944Y-13855127D02*
X11034468Y-13826555D01*
X11034468Y-13826555D02*
X11043991Y-13807508D01*
X11043991Y-13807508D02*
X11063039Y-13778936D01*
X11063039Y-13778936D02*
X11072563Y-13769412D01*
X11234468Y-13864650D02*
X11234468Y-13997984D01*
X11186848Y-13788460D02*
X11139230Y-13931317D01*
X11139230Y-13931317D02*
X11263039Y-13931317D01*
X11491610Y-13997984D02*
X11491610Y-13797984D01*
X11577325Y-13997984D02*
X11577325Y-13893222D01*
X11577325Y-13893222D02*
X11567801Y-13874174D01*
X11567801Y-13874174D02*
X11548753Y-13864650D01*
X11548753Y-13864650D02*
X11520182Y-13864650D01*
X11520182Y-13864650D02*
X11501134Y-13874174D01*
X11501134Y-13874174D02*
X11491610Y-13883698D01*
X11701134Y-13997984D02*
X11682087Y-13988460D01*
X11682087Y-13988460D02*
X11672563Y-13978936D01*
X11672563Y-13978936D02*
X11663039Y-13959888D01*
X11663039Y-13959888D02*
X11663039Y-13902746D01*
X11663039Y-13902746D02*
X11672563Y-13883698D01*
X11672563Y-13883698D02*
X11682087Y-13874174D01*
X11682087Y-13874174D02*
X11701134Y-13864650D01*
X11701134Y-13864650D02*
X11729706Y-13864650D01*
X11729706Y-13864650D02*
X11748753Y-13874174D01*
X11748753Y-13874174D02*
X11758277Y-13883698D01*
X11758277Y-13883698D02*
X11767801Y-13902746D01*
X11767801Y-13902746D02*
X11767801Y-13959888D01*
X11767801Y-13959888D02*
X11758277Y-13978936D01*
X11758277Y-13978936D02*
X11748753Y-13988460D01*
X11748753Y-13988460D02*
X11729706Y-13997984D01*
X11729706Y-13997984D02*
X11701134Y-13997984D01*
X11882087Y-13997984D02*
X11863039Y-13988460D01*
X11863039Y-13988460D02*
X11853515Y-13969412D01*
X11853515Y-13969412D02*
X11853515Y-13797984D01*
X12034468Y-13988460D02*
X12015420Y-13997984D01*
X12015420Y-13997984D02*
X11977325Y-13997984D01*
X11977325Y-13997984D02*
X11958277Y-13988460D01*
X11958277Y-13988460D02*
X11948753Y-13969412D01*
X11948753Y-13969412D02*
X11948753Y-13893222D01*
X11948753Y-13893222D02*
X11958277Y-13874174D01*
X11958277Y-13874174D02*
X11977325Y-13864650D01*
X11977325Y-13864650D02*
X12015420Y-13864650D01*
X12015420Y-13864650D02*
X12034468Y-13874174D01*
X12034468Y-13874174D02*
X12043991Y-13893222D01*
X12043991Y-13893222D02*
X12043991Y-13912269D01*
X12043991Y-13912269D02*
X11948753Y-13931317D01*
X12120182Y-13988460D02*
X12139230Y-13997984D01*
X12139230Y-13997984D02*
X12177325Y-13997984D01*
X12177325Y-13997984D02*
X12196372Y-13988460D01*
X12196372Y-13988460D02*
X12205896Y-13969412D01*
X12205896Y-13969412D02*
X12205896Y-13959888D01*
X12205896Y-13959888D02*
X12196372Y-13940841D01*
X12196372Y-13940841D02*
X12177325Y-13931317D01*
X12177325Y-13931317D02*
X12148753Y-13931317D01*
X12148753Y-13931317D02*
X12129706Y-13921793D01*
X12129706Y-13921793D02*
X12120182Y-13902746D01*
X12120182Y-13902746D02*
X12120182Y-13893222D01*
X12120182Y-13893222D02*
X12129706Y-13874174D01*
X12129706Y-13874174D02*
X12148753Y-13864650D01*
X12148753Y-13864650D02*
X12177325Y-13864650D01*
X12177325Y-13864650D02*
X12196372Y-13874174D01*
X12272563Y-14074174D02*
X12282087Y-14064650D01*
X12282087Y-14064650D02*
X12301134Y-14036079D01*
X12301134Y-14036079D02*
X12310658Y-14017031D01*
X12310658Y-14017031D02*
X12320182Y-13988460D01*
X12320182Y-13988460D02*
X12329706Y-13940841D01*
X12329706Y-13940841D02*
X12329706Y-13902746D01*
X12329706Y-13902746D02*
X12320182Y-13855127D01*
X12320182Y-13855127D02*
X12310658Y-13826555D01*
X12310658Y-13826555D02*
X12301134Y-13807508D01*
X12301134Y-13807508D02*
X12282087Y-13778936D01*
X12282087Y-13778936D02*
X12272563Y-13769412D01*
M02*
