G04 #@! TF.GenerationSoftware,KiCad,Pcbnew,8.0.2*
G04 #@! TF.CreationDate,2024-05-04T10:06:42+05:30*
G04 #@! TF.ProjectId,macroglider,6d616372-6f67-46c6-9964-65722e6b6963,V1*
G04 #@! TF.SameCoordinates,Original*
G04 #@! TF.FileFunction,Copper,L1,Top*
G04 #@! TF.FilePolarity,Positive*
%FSLAX46Y46*%
G04 Gerber Fmt 4.6, Leading zero omitted, Abs format (unit mm)*
G04 Created by KiCad (PCBNEW 8.0.2) date 2024-05-04 10:06:42*
%MOMM*%
%LPD*%
G01*
G04 APERTURE LIST*
G04 Aperture macros list*
%AMRoundRect*
0 Rectangle with rounded corners*
0 $1 Rounding radius*
0 $2 $3 $4 $5 $6 $7 $8 $9 X,Y pos of 4 corners*
0 Add a 4 corners polygon primitive as box body*
4,1,4,$2,$3,$4,$5,$6,$7,$8,$9,$2,$3,0*
0 Add four circle primitives for the rounded corners*
1,1,$1+$1,$2,$3*
1,1,$1+$1,$4,$5*
1,1,$1+$1,$6,$7*
1,1,$1+$1,$8,$9*
0 Add four rect primitives between the rounded corners*
20,1,$1+$1,$2,$3,$4,$5,0*
20,1,$1+$1,$4,$5,$6,$7,0*
20,1,$1+$1,$6,$7,$8,$9,0*
20,1,$1+$1,$8,$9,$2,$3,0*%
%AMFreePoly0*
4,1,19,7.796800,-1.800000,7.396800,-1.800000,6.296800,-18.600000,6.096800,-18.600000,4.996800,-1.800000,4.196800,-1.800000,3.096800,-18.600000,2.896800,-18.600000,1.796800,-1.800000,0.996800,-1.800000,-0.003200,-18.600000,-0.203200,-18.600000,-0.200051,-0.101600,-0.201600,-0.101600,-0.201600,0.101600,-0.200017,0.101600,-0.200000,0.200000,7.796800,0.200000,7.796800,-1.800000,7.796800,-1.800000,
$1*%
%AMFreePoly1*
4,1,30,2.600000,0.800000,3.400000,0.800000,4.500000,17.000000,4.700000,17.000000,5.800000,0.800000,6.600000,0.800000,7.600000,17.000000,7.800000,17.000000,7.800000,-0.800000,7.400000,-0.800000,6.300000,-17.000000,6.100000,-17.000000,5.000000,-0.800000,4.200000,-0.800000,3.100000,-17.000000,2.900000,-17.000000,1.800000,-0.800000,1.000000,-0.800000,-0.100000,-17.000000,-0.200156,-17.000000,
-0.203200,-0.800000,-0.201803,-0.101600,-0.203200,-0.101600,-0.203200,0.101600,-0.201397,0.101600,-0.200000,0.800000,0.200000,0.800000,1.300000,17.000000,1.500000,17.000000,2.600000,0.800000,2.600000,0.800000,$1*%
%AMFreePoly2*
4,1,15,1.200000,-1.800000,0.800000,-1.800000,-0.300000,-18.600000,-0.500000,-18.600000,-1.600000,-1.800000,-2.400000,-1.800000,-3.500000,-18.600000,-3.700000,-18.600000,-4.800000,-1.800000,-5.600000,-1.800000,-6.600000,-18.600000,-6.800000,-18.600000,-6.800000,0.200000,1.203200,0.200000,1.200000,-1.800000,1.200000,-1.800000,$1*%
%AMFreePoly3*
4,1,472,-3.731789,13.830307,-2.994217,13.753512,-2.261996,13.636202,-1.537349,13.478734,-0.822477,13.281586,-0.119551,13.045356,0.569295,12.770763,1.241967,12.458640,1.896425,12.109934,2.530679,11.725706,3.142803,11.307121,3.730939,10.855451,4.293301,10.372068,4.828180,9.858440,5.333952,9.316127,5.809082,8.746775,6.252126,8.152113,6.661737,7.533949,7.036675,6.894159,7.375798,6.234686,
7.678077,5.557532,7.942594,4.864755,8.168546,4.158458,8.355247,3.440787,8.502129,2.713920,8.608748,1.980066,8.674777,1.241452,8.699957,0.502101,8.738914,-0.264165,8.738694,-1.033136,8.699209,-1.801093,8.620563,-2.566031,8.502962,-3.325957,8.346712,-4.078886,8.152221,-4.822856,7.919997,-5.555923,7.650644,-6.276177,7.344865,-6.981738,7.003460,-7.670765,6.627317,-8.341462,
6.217419,-8.992077,5.774835,-9.620914,5.300720,-10.226333,4.796310,-10.806753,4.262921,-11.360660,3.701945,-11.886609,3.114846,-12.383229,2.503155,-12.849223,1.868468,-13.283376,1.212441,-13.684556,0.536784,-14.051714,-0.156738,-14.383895,-0.866316,-14.680230,-1.590100,-14.939947,-2.326201,-15.162369,-3.072699,-15.346915,-3.827648,-15.493104,-4.589074,-15.600553,-5.354995,-15.668984,-6.123410,-15.698217,
-6.892316,-15.688176,-7.659706,-15.638887,-8.423578,-15.550481,-9.181940,-15.423184,-9.932812,-15.257332,-10.674236,-15.053356,-11.404279,-14.811788,-12.121034,-14.533259,-12.821468,-14.219018,-12.801001,-14.173399,-12.800998,-14.173396,-12.780669,-14.127720,-12.097635,-14.431712,-11.400506,-14.698131,-10.690110,-14.926739,-9.968442,-15.116891,-9.237621,-15.268030,-8.499730,-15.379725,-7.756924,-15.451650,-7.011318,-15.483599,
-6.265078,-15.475481,-5.520341,-15.427319,-4.779252,-15.339251,-4.043992,-15.211535,-3.316620,-15.044532,-2.599273,-14.838728,-1.893996,-14.594714,-1.202845,-14.313199,-0.527790,-13.994987,0.129188,-13.641010,0.766255,-13.252258,1.381501,-12.829895,1.973214,-12.375096,2.539649,-11.889204,3.079183,-11.373612,3.590282,-10.829783,4.071441,-10.259317,4.521279,-9.663858,4.938529,-9.045077,5.321938,-8.404831,
5.670438,-7.744912,5.983013,-7.067238,6.258771,-6.373741,6.496894,-5.666478,6.696714,-4.947447,6.857654,-4.218701,6.979243,-3.482388,7.061135,-2.740607,7.103091,-1.995499,7.104993,-1.249215,7.069194,-0.550000,6.166264,-0.550000,6.160684,-1.186686,6.113537,-1.872838,6.025439,-2.554944,5.896707,-3.230560,5.727801,-3.897267,5.519325,-4.552680,5.272026,-5.194453,4.986789,-5.820286,
4.664634,-6.427942,4.306716,-7.015244,3.914316,-7.580089,3.488838,-8.120456,3.031805,-8.634411,2.544853,-9.120114,2.029727,-9.575825,1.488269,-9.999914,0.922417,-10.390862,0.334199,-10.747271,-0.274282,-11.067863,-0.900847,-11.351493,-1.543252,-11.597142,-2.199199,-11.803934,-2.866338,-11.971128,-3.542282,-12.098125,-4.224611,-12.184470,-4.910883,-12.229855,-5.598640,-12.234115,-6.285421,-12.197239,
-6.968768,-12.119355,-7.646234,-12.000745,-8.315394,-11.841830,-8.973852,-11.643182,-9.619252,-11.405512,-10.249283,-11.129668,-10.903084,-10.795481,-10.862954,-10.708304,-9.616443,-11.221096,-8.997404,-11.411150,-8.367086,-11.562916,-7.728635,-11.675589,-7.084442,-11.748746,-6.436965,-11.782108,-5.788684,-11.775547,-5.142026,-11.729089,-4.499452,-11.642911,-3.863407,-11.517339,-3.236283,-11.352846,-2.620490,-11.150063,
-2.018348,-10.909756,-1.432139,-10.632835,-0.864081,-10.320348,-0.316351,-9.973491,0.208985,-9.593576,0.709954,-9.182026,1.184628,-8.740426,1.631223,-8.270434,2.048022,-7.773861,2.433478,-7.252548,2.786094,-6.708519,3.104569,-6.143785,3.387660,-5.560539,3.634315,-4.960964,3.843589,-4.347346,4.014693,-3.722005,4.146977,-3.087312,4.239934,-2.445697,4.293220,-1.799548,4.306627,-1.151370,
4.282005,-0.550000,3.379710,-0.550000,3.376586,-1.086896,3.333458,-1.673619,3.250817,-2.256092,3.129042,-2.831656,2.968690,-3.397686,2.770491,-3.951600,2.535349,-4.490870,2.264337,-5.013034,1.958693,-5.515711,1.619810,-5.996609,1.249235,-6.453530,0.848659,-6.884392,0.419910,-7.287229,-0.035057,-7.660202,-0.514165,-8.001608,-1.015228,-8.309892,-1.535960,-8.583645,-2.073986,-8.821620,
-2.626850,-9.022730,-3.192029,-9.186058,-3.766946,-9.310856,-4.348975,-9.396559,-4.935462,-9.442773,-5.523732,-9.449289,-6.111099,-9.416075,-6.694883,-9.343284,-7.272423,-9.231248,-7.841080,-9.080478,-8.398263,-8.891662,-8.941427,-8.665661,-9.656958,-8.309500,-9.597701,-8.219738,-8.906116,-8.526762,-8.374601,-8.701688,-7.831855,-8.837803,-7.280712,-8.934398,-6.724019,-8.990973,-6.164697,-9.007231,
-5.605685,-8.983089,-5.049839,-8.918668,-4.500103,-8.814310,-3.959334,-8.670557,-3.430347,-8.488157,-2.915897,-8.268060,-2.418665,-8.011414,-1.941257,-7.719564,-1.486155,-7.394026,-1.055718,-7.036489,-0.652220,-6.648840,-0.277722,-6.233061,0.065781,-5.791366,0.376525,-5.326023,0.652871,-4.839487,0.893401,-4.334255,1.096842,-3.812997,1.262138,-3.278427,1.388434,-2.733302,1.475064,-2.180502,
1.521578,-1.622884,1.527736,-1.063360,1.496271,-0.550000,0.593267,-0.550000,0.592976,-0.994110,0.551132,-1.488517,0.468064,-1.977688,0.344355,-2.458192,0.180874,-2.926660,-0.021236,-3.379805,-0.260555,-3.814447,-0.535404,-4.227541,-0.843856,-4.616187,-1.183749,-4.977659,-1.552695,-5.309421,-1.948109,-5.609148,-2.367216,-5.874736,-2.807078,-6.104323,-3.264609,-6.296298,-3.736598,-6.449314,
-4.219737,-6.562299,-4.710635,-6.634459,-5.205850,-6.665289,-5.701908,-6.654572,-6.195329,-6.602384,-6.682654,-6.509090,-7.160462,-6.375346,-7.625402,-6.202089,-8.274344,-5.896200,-8.208690,-5.812987,-7.593638,-6.058823,-7.143533,-6.180498,-6.684822,-6.264085,-6.220712,-6.308994,-5.754492,-6.314911,-5.289401,-6.281793,-4.828710,-6.209874,-4.375666,-6.099660,-3.933421,-5.951920,-3.505084,-5.767688,
-3.093688,-5.548272,-2.702080,-5.295192,-2.333017,-5.010226,-1.989105,-4.695387,-1.672743,-4.352873,-1.386145,-3.985080,-1.131334,-3.594604,-0.910089,-3.184172,-0.723962,-2.756661,-0.574261,-2.315079,-0.462039,-1.862526,-0.388077,-1.402154,-0.352898,-0.937225,-0.356746,-0.470971,-0.370910,-0.317500,-0.635000,-0.317500,-0.635000,0.317500,-0.633506,0.317500,-0.632420,0.548265,0.102003,0.550000,
0.140533,1.492406,0.103382,1.983595,0.028135,2.471356,-0.084688,2.951842,-0.234404,3.422135,-0.420113,3.879408,-0.640699,4.320916,-0.894838,4.744008,-1.180995,5.146128,-1.497457,5.524869,-1.842321,5.877950,-2.213492,6.203232,-2.608766,6.498781,-3.025754,6.762810,-3.461950,6.993733,-3.914725,7.190158,-4.381371,7.350910,-4.859050,7.475011,-5.344919,7.561724,-5.836058,7.610526,
-6.329485,7.621122,-6.822250,7.593450,-7.311396,7.527673,-7.793985,7.424187,-8.267078,7.283623,-8.775237,7.088641,-8.812418,7.178854,-7.771531,7.638049,-7.248446,7.801737,-6.715503,7.925664,-6.174790,8.009420,-5.629330,8.052533,-5.082173,8.054763,-4.536379,8.016098,-3.995000,7.936754,-3.461066,7.817174,-2.937560,7.658028,-2.427411,7.460205,-1.933472,7.224813,-1.458505,6.953165,
-1.005166,6.646784,-0.575991,6.307381,-0.173379,5.936854,0.200417,5.537277,0.543308,5.110883,0.853375,4.660057,1.128885,4.187320,1.368297,3.695316,1.570272,3.186797,1.733681,2.664606,1.857608,2.131663,1.941364,1.590950,1.984477,1.045490,1.986497,0.550000,2.889133,0.550000,2.916641,1.101311,2.907318,1.699165,2.858912,2.295140,2.771635,2.886649,2.645856,3.471196,
2.482111,4.046279,2.281112,4.609400,2.043707,5.158185,1.770923,5.690256,1.463919,6.203356,1.124022,6.695268,0.752667,7.163911,0.351474,7.607244,-0.077875,8.023409,-0.533507,8.410587,-1.013487,8.767137,-1.515776,9.091542,-2.038193,9.382395,-2.578512,9.638456,-3.134439,9.858637,-3.703552,10.041980,-4.283450,10.187710,-4.871629,10.295201,-5.465591,10.363994,-6.062777,10.393792,
-6.660630,10.384469,-7.256605,10.336063,-7.848114,10.248786,-8.432661,10.123007,-9.007744,9.959262,-9.570865,9.758263,-10.121149,9.520210,-10.141001,9.566100,-10.141001,9.566101,-10.163545,9.610729,-9.592782,9.899064,-9.003420,10.151244,-8.399251,10.365536,-7.782707,10.541078,-7.156272,10.677163,-6.522466,10.773243,-5.883842,10.828932,-5.242973,10.844003,-4.602437,10.818399,-3.964816,10.752220,
-3.332674,10.645735,-2.708561,10.499370,-2.094985,10.313717,-1.494420,10.089522,-0.909285,9.827689,-0.341933,9.529270,0.205350,9.195469,0.730359,8.827630,1.230981,8.427232,1.705202,7.995889,2.151110,7.535338,2.566910,7.047433,2.950928,6.534139,3.301618,5.997521,3.617568,5.439743,3.897505,4.863049,4.140302,4.269761,4.344982,3.662267,4.510719,3.043016,4.636848,2.414500,
4.722860,1.779250,4.768408,1.139822,4.772919,0.550000,5.673560,0.550000,5.680525,1.889650,5.623760,2.579791,5.526864,3.266160,5.390222,3.945745,5.214294,4.616244,4.999685,5.275355,4.747109,5.920889,4.457425,6.550649,4.131617,7.162493,3.770779,7.754365,3.376145,8.324244,2.949052,8.870202,2.490915,9.390430,2.003316,9.883125,1.487885,10.346646,0.946389,10.779399,
0.380648,11.179936,-0.207444,11.546911,-0.815867,11.879065,-1.442566,12.175276,-2.085441,12.434553,-2.742310,12.656012,-3.410915,12.838897,-4.089046,12.982599,-4.774394,13.086631,-5.464594,13.150634,-6.157386,13.174398,-6.850369,13.157840,-7.541229,13.101016,-8.227598,13.004120,-8.907183,12.867478,-9.577682,12.691550,-10.236793,12.476941,-10.882327,12.224365,-11.558099,11.913516,-11.600663,12.002220,
-11.557524,12.023789,-10.909711,12.379821,-10.241144,12.700644,-9.555919,12.984150,-8.856117,13.229478,-8.143862,13.435883,-7.421318,13.602738,-6.690680,13.729536,-5.954167,13.815892,-5.214015,13.861545,-4.472471,13.866355,-3.731789,13.830307,-3.731789,13.830307,$1*%
%AMFreePoly4*
4,1,474,-3.808640,13.874682,-3.071068,13.797886,-2.338846,13.680577,-1.614197,13.523106,-0.899325,13.325958,-0.196397,13.089728,0.492449,12.815135,1.165123,12.503009,1.819580,12.154304,2.453835,11.770075,3.065960,11.351489,3.654097,10.899818,4.216458,10.416433,4.751339,9.902805,5.257111,9.360490,5.732241,8.791137,6.175285,8.196476,6.584898,7.578310,6.959835,6.938519,7.298959,6.279044,
7.601238,5.601889,7.865756,4.909111,8.091708,4.202813,8.278409,3.485141,8.425291,2.758273,8.531909,2.024417,8.597938,1.285803,8.623115,0.546480,8.662074,-0.219814,8.661853,-0.988785,8.622368,-1.756741,8.543723,-2.521678,8.426121,-3.281602,8.269872,-4.034529,8.075381,-4.778499,7.843156,-5.511565,7.573803,-6.231818,7.268026,-6.937378,6.926620,-7.626404,6.550478,-8.297099,
6.140580,-8.947713,5.697997,-9.576550,5.223882,-10.181967,4.719472,-10.762386,4.186085,-11.316292,3.625110,-11.842240,3.038012,-12.338860,2.426321,-12.804853,1.791634,-13.239005,1.135608,-13.640184,0.459953,-14.007342,-0.233568,-14.339522,-0.943146,-14.635856,-1.666929,-14.895574,-2.403030,-15.117996,-3.149526,-15.302541,-3.904473,-15.448728,-4.665899,-15.556177,-5.431817,-15.624608,-6.200232,-15.653841,
-6.969136,-15.643800,-7.736525,-15.594511,-8.500396,-15.506104,-9.258757,-15.378807,-10.009629,-15.212955,-10.751051,-15.008979,-11.481093,-14.767413,-12.197847,-14.488884,-12.946284,-14.153107,-12.898378,-14.059416,-12.855081,-14.084413,-12.174457,-14.387334,-11.477331,-14.653753,-10.766918,-14.882364,-10.045268,-15.072512,-9.314439,-15.223652,-8.576559,-15.335345,-7.833754,-15.407270,-7.088155,-15.439219,-6.341898,-15.431101,
-5.597174,-15.382939,-4.856099,-15.294872,-4.120823,-15.167154,-3.393458,-15.000152,-2.676107,-14.794348,-1.970843,-14.550337,-1.279696,-14.268824,-0.604644,-13.950612,0.052355,-13.596624,0.689385,-13.207894,1.304664,-12.785508,1.896349,-12.330731,2.462800,-11.844826,3.002334,-11.329233,3.513415,-10.785422,3.994576,-10.214956,4.444420,-9.619487,4.861655,-9.000726,5.245082,-8.360451,5.593572,-7.700550,
5.906150,-7.022869,6.181895,-6.329406,6.420025,-5.622120,6.619843,-4.903091,6.780782,-4.174352,6.902372,-3.438040,6.984263,-2.696253,7.026219,-1.951165,7.028120,-1.204853,6.992323,-0.505662,6.089413,-0.505674,6.083831,-1.142359,6.036683,-1.828510,5.948583,-2.510615,5.819848,-3.186229,5.650940,-3.852935,5.442462,-4.508347,5.195161,-5.150116,4.909922,-5.775948,4.587766,-6.383602,
4.229846,-6.970902,3.837445,-7.535746,3.411965,-8.076111,2.954932,-8.590063,2.467979,-9.075763,1.952851,-9.531473,1.411392,-9.955560,0.845540,-10.346505,0.257321,-10.702911,-0.351160,-11.023501,-0.977725,-11.307127,-1.620130,-11.552775,-2.276077,-11.759565,-2.943215,-11.926757,-3.619159,-12.053750,-4.301486,-12.140093,-4.987758,-12.185475,-5.675516,-12.189734,-6.362295,-12.152854,-7.045641,-12.074968,
-7.723105,-11.956355,-8.392263,-11.797441,-9.050721,-11.598790,-9.696119,-11.361117,-10.326148,-11.085271,-10.982893,-10.749577,-10.933885,-10.659454,-10.892351,-10.683433,-9.693308,-11.176701,-9.074255,-11.366761,-8.443954,-11.518526,-7.805496,-11.631203,-7.161298,-11.704364,-6.513838,-11.737726,-5.865543,-11.731168,-5.218881,-11.684712,-4.576298,-11.598535,-3.940265,-11.472968,-3.313131,-11.308475,-2.697342,-11.105696,
-2.095199,-10.865391,-1.508986,-10.588471,-0.940938,-10.275993,-0.393182,-9.929121,0.132144,-9.549216,0.633116,-9.137666,1.107788,-8.696073,1.554387,-8.226080,1.971191,-7.729506,2.356646,-7.208197,2.709279,-6.664147,3.027742,-6.099438,3.310838,-5.516189,3.557494,-4.916614,3.766772,-4.302996,3.937881,-3.677644,4.070162,-3.042975,4.163127,-2.401331,4.216413,-1.755195,4.229823,-1.107005,
4.205203,-0.505642,3.302844,-0.505609,3.299722,-1.042503,3.256594,-1.629227,3.173955,-2.211700,3.052182,-2.787264,2.891830,-3.353295,2.693631,-3.907210,2.458490,-4.446480,2.187478,-4.968647,1.881836,-5.471324,1.542953,-5.952223,1.172379,-6.409145,0.771803,-6.840009,0.343054,-7.242847,-0.111913,-7.615820,-0.591021,-7.957228,-1.092084,-8.265513,-1.612815,-8.539268,-2.150841,-8.777243,
-2.703705,-8.978355,-3.268884,-9.141682,-3.843801,-9.266483,-4.425830,-9.352186,-5.012319,-9.398403,-5.600589,-9.404919,-6.187957,-9.371705,-6.771741,-9.298916,-7.349281,-9.186880,-7.917940,-9.036111,-8.475123,-8.847296,-9.018287,-8.621296,-9.589609,-8.336918,-9.540823,-8.246050,-9.499059,-8.270162,-8.982961,-8.482403,-8.451464,-8.657321,-7.908713,-8.793437,-7.357553,-8.890033,-6.800861,-8.946608,
-6.241551,-8.962865,-5.682515,-8.938720,-5.126678,-8.874301,-4.576936,-8.769939,-4.036177,-8.626188,-3.507166,-8.443779,-2.992731,-8.223688,-2.495488,-7.967036,-2.018089,-7.675189,-1.562972,-7.349640,-1.132536,-6.992102,-0.729037,-6.604451,-0.354542,-6.188675,-0.011034,-5.746971,0.299706,-5.281632,0.576062,-4.795078,0.816587,-4.289854,1.020026,-3.768602,1.185328,-3.234006,1.311616,-2.688907,
1.398248,-2.136086,1.444763,-1.578465,1.450919,-1.018944,1.419453,-0.505578,0.516471,-0.505590,0.516179,-0.949701,0.474335,-1.444108,0.391267,-1.933279,0.267557,-2.413783,0.104074,-2.882252,-0.098036,-3.335396,-0.337356,-3.770040,-0.612207,-4.183133,-0.920661,-4.571779,-1.260551,-4.933251,-1.629499,-5.265013,-2.024915,-5.564739,-2.444024,-5.830327,-2.883885,-6.059914,-3.341417,-6.251888,
-3.813406,-6.404903,-4.296546,-6.517887,-4.787446,-6.590047,-5.282661,-6.620877,-5.778719,-6.610160,-6.272141,-6.557970,-6.759465,-6.464677,-7.237273,-6.330930,-7.702213,-6.157673,-8.196279,-5.924786,-8.147953,-5.832420,-8.106627,-5.856279,-7.670459,-6.014404,-7.220348,-6.136085,-6.761632,-6.219674,-6.297536,-6.264586,-5.831310,-6.270504,-5.366232,-6.237391,-4.905542,-6.165475,-4.452488,-6.055262,
-4.010250,-5.907527,-3.581920,-5.723300,-3.170519,-5.503885,-2.778900,-5.250801,-2.409858,-4.965854,-2.065929,-4.651006,-1.749571,-4.308500,-1.462979,-3.940720,-1.208159,-3.550235,-0.986910,-3.139800,-0.800786,-2.712305,-0.651088,-2.270736,-0.538859,-1.818168,-0.464894,-1.357800,-0.429713,-0.892881,-0.433559,-0.426623,-0.443629,-0.317500,-0.635000,-0.317500,-0.635000,0.317500,-0.629528,0.317500,
-0.625703,0.539475,0.025176,0.594343,0.063710,1.536754,0.026558,2.027931,-0.048693,2.515714,-0.161513,2.996197,-0.311228,3.466484,-0.496944,3.923770,-0.717524,4.365269,-0.971673,4.788375,-1.257826,5.190491,-1.574288,5.569229,-1.919151,5.922311,-2.290335,6.247604,-2.685612,6.543156,-3.102597,6.807183,-3.538788,7.038103,-3.991568,7.234530,-4.458219,7.395282,-4.935899,7.519385,
-5.421773,7.606098,-5.912904,7.654901,-6.406347,7.665496,-6.899116,7.637823,-7.388266,7.572047,-7.870840,7.468564,-8.343956,7.327993,-8.855747,7.131617,-8.888301,7.231833,-8.842036,7.244228,-8.356023,7.480726,-7.847501,7.682699,-7.325309,7.846105,-6.792364,7.970031,-6.251648,8.053784,-5.706188,8.096894,-5.159030,8.099122,-4.613234,8.060454,-4.071855,7.981108,-3.537920,7.861526,
-3.014414,7.702377,-2.504264,7.504551,-2.010326,7.269156,-1.535358,6.997505,-1.082020,6.691121,-0.652845,6.351715,-0.250235,5.981186,0.123561,5.581606,0.466450,5.155209,0.776516,4.704382,1.052025,4.231642,1.291436,3.739636,1.493409,3.231115,1.656815,2.708922,1.780741,2.175977,1.864494,1.635262,1.907604,1.089802,1.909622,0.594312,2.812235,0.594324,2.839750,1.145644,
2.830429,1.743489,2.782029,2.339444,2.694752,2.930966,2.568975,3.515520,2.405236,4.090590,2.204240,4.653712,1.966839,5.202493,1.694062,5.734558,1.387060,6.247663,1.047163,6.739578,0.675810,7.208224,0.274622,7.651556,-0.154719,8.067718,-0.610346,8.454895,-1.090332,8.811454,-1.592607,9.135855,-2.115021,9.426709,-2.655350,9.682777,-3.211246,9.902950,-3.780365,10.086297,
-4.360273,10.232034,-4.948447,10.339527,-5.542394,10.408320,-6.139597,10.438124,-6.737441,10.428803,-7.333396,10.380403,-7.924918,10.293127,-8.509472,10.167350,-9.084543,10.003610,-9.647665,9.802615,-10.336677,9.504550,-10.253646,9.648364,-9.669581,9.943421,-9.080220,10.195602,-8.476051,10.409895,-7.859508,10.585437,-7.233074,10.721523,-6.599268,10.817604,-5.960645,10.873292,-5.319775,10.888365,
-4.679240,10.862761,-4.041619,10.796583,-3.409478,10.690099,-2.785365,10.543735,-2.171789,10.358083,-1.571225,10.133889,-0.986089,9.872056,-0.418738,9.573639,0.128545,9.239839,0.653555,8.872000,1.154178,8.471603,1.628399,8.040261,2.074307,7.579711,2.490108,7.091807,2.874126,6.578514,3.224816,6.041897,3.540766,5.484119,3.820703,4.907426,4.063502,4.314138,4.268181,3.706646,
4.433920,3.087396,4.560050,2.458880,4.646062,1.823630,4.691612,1.184203,4.696122,0.594382,5.598167,0.594393,5.620324,1.240341,5.603765,1.933327,5.546938,2.624194,5.450044,3.310546,5.313398,3.990146,5.137471,4.660632,4.922854,5.319769,4.670280,5.965293,4.380600,6.595038,4.054779,7.206902,3.693954,7.798753,3.299316,8.368635,2.872206,8.914614,2.414070,9.434838,
1.926481,9.927522,1.411052,10.391037,0.869538,10.823805,0.303807,11.224332,-0.284287,11.591308,-0.892711,11.923460,-1.519426,12.219677,-2.162288,12.478947,-2.819148,12.700403,-3.487783,12.883293,-4.165888,13.026990,-4.851239,13.131020,-5.541464,13.195024,-6.234241,13.218786,-6.927227,13.202227,-7.618094,13.145400,-8.304446,13.048506,-8.984046,12.911860,-9.654531,12.735933,-10.313669,12.521316,
-10.959192,12.268742,-11.634099,11.958289,-11.677528,12.044457,-10.986574,12.424197,-10.318006,12.745020,-9.632779,13.028526,-8.932974,13.273854,-8.220719,13.480259,-7.498175,13.647114,-6.767536,13.773911,-6.031021,13.860268,-5.290868,13.905920,-4.549323,13.910729,-3.808640,13.874682,-3.808640,13.874682,$1*%
%AMFreePoly5*
4,1,466,6.969157,15.732517,7.736546,15.683228,8.500418,15.594818,9.258779,15.467521,10.009650,15.301669,10.751075,15.097692,11.481116,14.856123,12.197871,14.577594,12.943855,14.242916,12.903117,14.151753,12.174472,14.476043,11.477343,14.742461,10.766939,14.971070,10.045280,15.161218,9.314464,15.312356,8.576575,15.424048,7.833762,15.495972,7.088164,15.527921,6.341904,15.519801,5.597190,15.471640,
4.856114,15.383570,4.120833,15.255850,3.393452,15.088843,2.676121,14.883043,1.970859,14.639033,1.279684,14.357507,0.604649,14.039303,-0.052343,13.685317,-0.689386,13.296578,-1.304649,12.874202,-1.896353,12.419409,-2.462797,11.933507,-3.002320,11.417924,-3.513422,10.874089,-3.994570,10.303634,-4.444416,9.708161,-4.861658,9.089390,-5.245071,8.449136,-5.593568,7.789220,-5.906145,7.111538,
-6.181889,6.418071,-6.420017,5.710796,-6.619839,4.991744,-6.780773,4.263026,-6.902364,3.526695,-6.984255,2.784917,-7.026209,2.039805,-7.028109,1.293534,-6.992308,0.594316,-6.087939,0.594305,-6.036772,1.916403,-5.948579,2.599253,-5.819849,3.274871,-5.650943,3.941580,-5.442468,4.596995,-5.195170,5.238770,-4.909932,5.864606,-4.587779,6.472263,-4.229862,7.059566,-3.837462,7.624415,
-3.411984,8.164784,-2.954951,8.678741,-2.467999,9.164445,-1.952872,9.620160,-1.411414,10.044250,-0.845562,10.435201,-0.257343,10.791610,0.351138,11.112207,0.977704,11.395837,1.620111,11.641489,2.276058,11.848283,2.943198,12.015479,3.619144,12.142477,4.301474,12.228824,4.987747,12.274210,5.675506,12.278473,6.362289,12.241598,7.045637,12.163715,7.723104,12.045105,8.392267,11.886192,
9.050728,11.687546,9.696129,11.449875,10.326162,11.174033,11.358233,10.646499,11.317004,10.579601,10.300951,11.037158,9.694052,11.265238,9.074275,11.455518,8.443950,11.607285,7.805503,11.719958,7.161303,11.793118,6.513849,11.826478,5.865536,11.819918,5.218882,11.773459,4.576304,11.687282,3.940256,11.561709,3.313140,11.397218,2.697335,11.194433,2.095198,10.954128,1.508972,10.677200,
0.940928,10.364720,0.393184,10.017855,-0.132155,9.637939,-0.633115,9.226396,-1.107803,8.784783,-1.554385,8.314806,-1.971195,7.818220,-2.356652,7.296906,-2.709274,6.752869,-3.027744,6.188144,-3.310838,5.604896,-3.557498,5.005307,-3.766769,4.391701,-3.937878,3.766339,-4.070159,3.131658,-4.163119,2.490032,-4.216404,1.843895,-4.229812,1.195711,-4.205191,0.594336,-3.301179,0.594369,
-3.256700,1.717152,-3.173941,2.300461,-3.052167,2.876025,-2.891816,3.442054,-2.693618,3.995968,-2.458477,4.535237,-2.187466,5.057401,-1.881823,5.560080,-1.542942,6.040976,-1.172369,6.497897,-0.771794,6.928761,-0.343046,7.331597,0.111920,7.704569,0.591027,8.045977,1.092089,8.354262,1.612821,8.628016,2.150845,8.865991,2.703707,9.067101,3.268886,9.230428,3.843800,9.355229,
4.425829,9.440933,5.012317,9.487147,5.600585,9.493663,6.187952,9.460451,6.771736,9.387661,7.349274,9.275626,7.917931,9.124858,8.475115,8.936043,9.018277,8.710043,9.585843,8.427533,9.548253,8.340559,8.450573,8.746291,7.908712,8.882185,7.357562,8.978782,6.800875,9.035359,6.241549,9.051618,5.682516,9.027475,5.126696,8.963060,4.576960,8.858702,4.036169,8.714945,
3.507195,8.532550,2.992754,8.312460,2.495508,8.055808,2.018104,7.763960,1.563001,7.438423,1.132569,7.080892,0.729061,6.693236,0.354563,6.277459,0.011066,5.835772,-0.299683,5.370424,-0.576037,4.883879,-0.816561,4.378661,-1.020005,3.857397,-1.185304,3.322821,-1.311596,2.777721,-1.398231,2.224891,-1.444746,1.667282,-1.450905,1.107777,-1.419440,0.594400,-0.514408,0.594389,
-0.474490,1.531871,-0.391242,2.022077,-0.267529,2.502581,-0.104041,2.971047,0.098073,3.424191,0.337395,3.858832,0.612250,4.271923,0.920707,4.660567,1.260602,5.022036,1.629553,5.353796,2.024970,5.653519,2.444080,5.919103,2.883945,6.148686,3.341478,6.340657,3.813470,6.493669,4.296610,6.606648,4.787509,6.678805,5.282725,6.709630,5.778784,6.698909,6.272206,6.646715,
6.759530,6.553417,7.237336,6.419668,7.702276,6.246406,8.190549,6.016245,8.159095,5.930382,8.113866,5.942502,7.219368,6.225006,6.761687,6.308407,6.297580,6.353319,5.831356,6.359239,5.366267,6.326125,4.905583,6.254210,4.452513,6.143993,4.010286,5.996262,3.581949,5.812034,3.170533,5.592611,2.778928,5.339536,2.409874,5.054582,2.065949,4.739735,1.749579,4.397219,
1.462988,4.029439,1.208166,3.638952,0.986920,3.228524,0.800790,2.801016,0.651086,2.359433,0.538859,1.906872,0.464896,1.446511,0.429713,0.981577,0.433558,0.515315,0.451813,0.317501,0.635000,0.317500,0.635000,-0.317500,0.631656,-0.317500,0.635023,-0.482068,-0.025188,-0.505635,-0.063716,-1.448048,-0.026564,-1.939226,0.048687,-2.427007,0.161510,-2.907480,0.311230,-3.377781,
0.496943,-3.835056,0.717526,-4.276554,0.971674,-4.699657,1.257834,-5.101776,1.574293,-5.480510,1.919150,-5.833582,2.290337,-6.158874,2.685621,-6.454429,3.102595,-6.718447,3.538797,-6.949371,3.991576,-7.145795,4.458213,-7.306541,4.935911,-7.430645,5.421777,-7.517355,5.912901,-7.566155,6.406347,-7.576748,6.899117,-7.549073,7.388260,-7.483296,7.870846,-7.379808,8.343952,-7.239238,
8.849700,-7.045178,8.889487,-7.128609,8.847118,-7.153071,7.848397,-7.593666,7.325313,-7.757356,6.792371,-7.881286,6.251660,-7.965042,5.706201,-8.008157,5.159045,-8.010389,4.613253,-7.971726,4.071875,-7.892384,3.537941,-7.772806,3.014435,-7.613663,2.504288,-7.415842,2.010348,-7.180451,1.535381,-6.908806,1.082042,-6.602426,0.652867,-6.263025,0.250255,-5.892501,-0.123541,-5.492926,
-0.466433,-5.066534,-0.776502,-4.615710,-1.052012,-4.142974,-1.291425,-3.650973,-1.493401,-3.142456,-1.656812,-2.620266,-1.780741,-2.087324,-1.864498,-1.546613,-1.907613,-1.001154,-1.909633,-0.505666,-2.812248,-0.505655,-2.839759,-1.056953,-2.830438,-1.654818,-2.782036,-2.250777,-2.694757,-2.842311,-2.568982,-3.426849,-2.405243,-4.001918,-2.204244,-4.565041,-1.966844,-5.113821,-1.694059,-5.645900,
-1.387060,-6.158994,-1.047156,-6.650918,-0.675820,-7.119542,-0.274621,-7.562885,0.154725,-7.979049,0.610353,-8.366226,1.090341,-8.722786,1.592612,-9.047183,2.115033,-9.338038,2.655345,-9.594099,3.211268,-9.814280,3.780376,-9.997623,4.360282,-10.143358,4.948458,-10.250851,5.542418,-10.319645,6.139588,-10.349445,6.737452,-10.340124,7.333412,-10.291721,7.924946,-10.204443,8.509483,-10.078668,
9.084552,-9.914928,9.647675,-9.713930,10.242505,-9.456609,10.283677,-9.544514,9.669591,-9.854733,9.080227,-10.106912,8.476055,-10.321204,7.859509,-10.496745,7.233070,-10.632829,6.599261,-10.728908,5.960636,-10.784594,5.319763,-10.799664,4.679226,-10.774057,4.041602,-10.707878,3.409459,-10.601389,2.785344,-10.455024,2.171766,-10.269367,1.571201,-10.045169,0.986063,-9.783334,0.418710,-9.484912,
-0.128573,-9.151109,-0.653584,-8.783267,-1.154207,-8.382867,-1.628429,-7.951521,-2.074336,-7.490966,-2.490136,-7.003059,-2.874155,-6.489762,-3.224845,-5.953141,-3.540793,-5.395360,-3.820731,-4.818663,-4.063526,-4.225372,-4.268205,-3.617876,-4.433942,-2.998622,-4.560070,-2.370103,-4.646080,-1.734850,-4.691627,-1.095421,-4.696135,-0.505595,-5.598179,-0.505585,-5.620338,-1.151535,-5.603780,-1.844524,
-5.546957,-2.535369,-5.450058,-3.221757,-5.313414,-3.901353,-5.137493,-4.571827,-4.922877,-5.230959,-4.670296,-5.876506,-4.380623,-6.506240,-4.054808,-7.118099,-3.693974,-7.709964,-3.299332,-8.279856,-2.872232,-8.825823,-2.414103,-9.346041,-1.926493,-9.838749,-1.411079,-10.302251,-0.869572,-10.735015,-0.303818,-11.135562,0.284265,-11.502531,0.892698,-11.834690,1.519390,-12.130898,2.162269,-12.390176,
2.819131,-12.611634,3.487753,-12.794522,4.165893,-12.938228,4.851220,-13.042256,5.541438,-13.106260,6.234230,-13.130025,6.927219,-13.113467,7.618064,-13.056644,8.304451,-12.959745,8.984048,-12.823101,9.654522,-12.647180,10.313654,-12.432564,10.959201,-12.179983,11.633640,-11.869747,11.677507,-11.954553,11.635109,-11.979032,10.318643,-12.656004,9.632780,-12.939776,8.932977,-13.185104,8.220721,-13.391511,
7.498177,-13.558366,6.767538,-13.685166,6.031025,-13.771523,5.290870,-13.817176,4.549327,-13.821987,3.808644,-13.785941,3.071071,-13.709146,2.338849,-13.591837,1.614200,-13.434369,0.899328,-13.237221,0.196401,-13.000992,-0.492447,-12.726400,-1.165119,-12.414276,-1.819579,-12.065571,-2.453833,-11.681342,-3.065959,-11.262758,-3.654096,-10.811088,-4.216459,-10.327705,-4.751339,-9.814077,-5.257112,-9.271763,
-5.732242,-8.702411,-6.175287,-8.107750,-6.584902,-7.489586,-6.959840,-6.849794,-7.298963,-6.190320,-7.601244,-5.513166,-7.865761,-4.820389,-8.091716,-4.114092,-8.278417,-3.396419,-8.425300,-2.669552,-8.531918,-1.935696,-8.597949,-1.197083,-8.629958,-0.257274,-8.628119,-0.260459,-8.661897,1.076867,-8.622379,1.845462,-8.543733,2.610401,-8.426130,3.370326,-8.269879,4.123254,-8.075387,4.867223,
-7.843161,5.600290,-7.573808,6.320543,-7.268028,7.026103,-6.926622,7.715129,-6.550478,8.385825,-6.140580,9.036439,-5.697995,9.665276,-5.223881,10.270693,-4.719469,10.851112,-4.186079,11.405018,-3.625104,11.930966,-3.038005,12.427584,-2.426313,12.893578,-1.791626,13.327731,-1.135598,13.728908,-0.459941,14.096066,0.233580,14.428245,0.943158,14.724580,1.666943,14.984296,2.403044,15.206716,
3.149543,15.391262,3.904490,15.537449,4.665917,15.644897,5.431837,15.713327,6.200252,15.742559,6.969157,15.732517,6.969157,15.732517,$1*%
G04 Aperture macros list end*
G04 #@! TA.AperFunction,SMDPad,CuDef*
%ADD10FreePoly0,0.000000*%
G04 #@! TD*
G04 #@! TA.AperFunction,SMDPad,CuDef*
%ADD11FreePoly1,0.000000*%
G04 #@! TD*
G04 #@! TA.AperFunction,SMDPad,CuDef*
%ADD12FreePoly2,180.000000*%
G04 #@! TD*
G04 #@! TA.AperFunction,SMDPad,CuDef*
%ADD13FreePoly3,0.000000*%
G04 #@! TD*
G04 #@! TA.AperFunction,SMDPad,CuDef*
%ADD14FreePoly4,120.000000*%
G04 #@! TD*
G04 #@! TA.AperFunction,SMDPad,CuDef*
%ADD15FreePoly5,60.000000*%
G04 #@! TD*
G04 #@! TA.AperFunction,SMDPad,CuDef*
%ADD16RoundRect,2.500000X-2.500000X-2.500000X2.500000X-2.500000X2.500000X2.500000X-2.500000X2.500000X0*%
G04 #@! TD*
G04 #@! TA.AperFunction,ComponentPad*
%ADD17C,1.600000*%
G04 #@! TD*
G04 #@! TA.AperFunction,SMDPad,CuDef*
%ADD18C,10.000000*%
G04 #@! TD*
G04 #@! TA.AperFunction,ViaPad*
%ADD19C,0.600000*%
G04 #@! TD*
G04 APERTURE END LIST*
D10*
X191203200Y-63450000D03*
D11*
X191200000Y-83250000D03*
D12*
X192200000Y-103050000D03*
D13*
X103448781Y-83250000D03*
D14*
X93923781Y-77662000D03*
D15*
X93923781Y-88838000D03*
D16*
X151500000Y-117000000D03*
D10*
X175203200Y-63450000D03*
D11*
X175200000Y-83250000D03*
D12*
X176200000Y-103050000D03*
D16*
X106500000Y-117000000D03*
D10*
X159203200Y-63450000D03*
D11*
X159200000Y-83250000D03*
D12*
X160200000Y-103050000D03*
D17*
X216000000Y-77000000D03*
X218540000Y-77000000D03*
X221080000Y-77000000D03*
X223620000Y-77000000D03*
D16*
X91500000Y-117000000D03*
X196500000Y-117000000D03*
X136500000Y-117000000D03*
D13*
X141850000Y-83250000D03*
D14*
X132325000Y-77662000D03*
D15*
X132325000Y-88838000D03*
D18*
X219810000Y-117000000D03*
D16*
X166500000Y-117000000D03*
X181500000Y-117000000D03*
X121500000Y-117000000D03*
D19*
X160200000Y-103050000D03*
X159200000Y-83250000D03*
X159203200Y-63450000D03*
X176200000Y-103050000D03*
X175203200Y-63450000D03*
X175200000Y-83250000D03*
X192200000Y-103050000D03*
X191200000Y-83250000D03*
X191203200Y-63450000D03*
X91500000Y-117000000D03*
X106500000Y-117000000D03*
X121500000Y-117000000D03*
X136500000Y-117000000D03*
X151500000Y-117000000D03*
X166500000Y-117000000D03*
X181500000Y-117000000D03*
X196500000Y-117000000D03*
X219810000Y-117000000D03*
X103448781Y-83250000D03*
X93923781Y-77662000D03*
X93923781Y-88838000D03*
X141850000Y-83250000D03*
X132325000Y-77662000D03*
X132325000Y-88838000D03*
M02*
