M48
; DRILL file {KiCad 8.0.2} date 2024-05-04T10:07:29+0530
; FORMAT={-:-/ absolute / metric / decimal}
; #@! TF.CreationDate,2024-05-04T10:07:29+05:30
; #@! TF.GenerationSoftware,Kicad,Pcbnew,8.0.2
; #@! TF.FileFunction,Plated,1,2,PTH
FMAT,2
METRIC
; #@! TA.AperFunction,Plated,PTH,ViaDrill
T1C0.300
; #@! TA.AperFunction,Plated,PTH,ComponentDrill
T2C1.000
%
G90
G05
T1
X91.5Y-117.0
X93.924Y-77.662
X93.924Y-88.838
X103.449Y-83.25
X106.5Y-117.0
X121.5Y-117.0
X132.325Y-77.662
X132.325Y-88.838
X136.5Y-117.0
X141.85Y-83.25
X151.5Y-117.0
X159.2Y-83.25
X159.203Y-63.45
X160.2Y-103.05
X166.5Y-117.0
X175.2Y-83.25
X175.203Y-63.45
X176.2Y-103.05
X181.5Y-117.0
X191.2Y-83.25
X191.203Y-63.45
X192.2Y-103.05
X196.5Y-117.0
X219.81Y-117.0
T2
X216.0Y-77.0
X218.54Y-77.0
X221.08Y-77.0
X223.62Y-77.0
M30
