G04 #@! TF.GenerationSoftware,KiCad,Pcbnew,8.0.2*
G04 #@! TF.CreationDate,2024-05-04T10:06:42+05:30*
G04 #@! TF.ProjectId,macroglider,6d616372-6f67-46c6-9964-65722e6b6963,V1*
G04 #@! TF.SameCoordinates,Original*
G04 #@! TF.FileFunction,Soldermask,Bot*
G04 #@! TF.FilePolarity,Negative*
%FSLAX46Y46*%
G04 Gerber Fmt 4.6, Leading zero omitted, Abs format (unit mm)*
G04 Created by KiCad (PCBNEW 8.0.2) date 2024-05-04 10:06:42*
%MOMM*%
%LPD*%
G01*
G04 APERTURE LIST*
G04 Aperture macros list*
%AMRoundRect*
0 Rectangle with rounded corners*
0 $1 Rounding radius*
0 $2 $3 $4 $5 $6 $7 $8 $9 X,Y pos of 4 corners*
0 Add a 4 corners polygon primitive as box body*
4,1,4,$2,$3,$4,$5,$6,$7,$8,$9,$2,$3,0*
0 Add four circle primitives for the rounded corners*
1,1,$1+$1,$2,$3*
1,1,$1+$1,$4,$5*
1,1,$1+$1,$6,$7*
1,1,$1+$1,$8,$9*
0 Add four rect primitives between the rounded corners*
20,1,$1+$1,$2,$3,$4,$5,0*
20,1,$1+$1,$4,$5,$6,$7,0*
20,1,$1+$1,$6,$7,$8,$9,0*
20,1,$1+$1,$8,$9,$2,$3,0*%
G04 Aperture macros list end*
%ADD10R,1.700000X3.500000*%
%ADD11R,3.500000X1.700000*%
%ADD12C,1.600000*%
%ADD13C,2.700000*%
%ADD14RoundRect,0.200000X0.275000X-0.200000X0.275000X0.200000X-0.275000X0.200000X-0.275000X-0.200000X0*%
G04 APERTURE END LIST*
D10*
X76870000Y-73070000D03*
X79410000Y-73070000D03*
X81950000Y-73070000D03*
X84490000Y-73070000D03*
X87030000Y-73070000D03*
X89570000Y-73070000D03*
X92110000Y-73070000D03*
X94650000Y-73070000D03*
X97190000Y-73070000D03*
X99730000Y-73070000D03*
X102270000Y-73070000D03*
X104810000Y-73070000D03*
X107350000Y-73070000D03*
X109890000Y-73070000D03*
X112430000Y-73070000D03*
X114970000Y-73070000D03*
X117510000Y-73070000D03*
X120050000Y-73070000D03*
X122590000Y-73070000D03*
X125130000Y-73070000D03*
X125130000Y-92650000D03*
X122590000Y-92650000D03*
X120050000Y-92650000D03*
X117510000Y-92650000D03*
X114970000Y-92650000D03*
X112430000Y-92650000D03*
X109890000Y-92650000D03*
X107350000Y-92650000D03*
X104810000Y-92650000D03*
X102270000Y-92650000D03*
X99730000Y-92650000D03*
X97190000Y-92650000D03*
X94650000Y-92650000D03*
X92110000Y-92650000D03*
X89570000Y-92650000D03*
X87030000Y-92650000D03*
X84490000Y-92650000D03*
X81950000Y-92650000D03*
X79410000Y-92650000D03*
X76870000Y-92650000D03*
D11*
X125800000Y-80320000D03*
X125800000Y-82860000D03*
X125800000Y-85400000D03*
D12*
X216000000Y-77000000D03*
X218540000Y-77000000D03*
X221080000Y-77000000D03*
X223620000Y-77000000D03*
D13*
X235000000Y-125000000D03*
X235000000Y-60000000D03*
X80000000Y-125000000D03*
X80000000Y-60000000D03*
D14*
X172000000Y-62950000D03*
X172000000Y-64600000D03*
X156000000Y-62850000D03*
X156000000Y-64500000D03*
X188000000Y-82025000D03*
X188000000Y-83675000D03*
X156000000Y-81850000D03*
X156000000Y-83500000D03*
X113600000Y-115350000D03*
X113600000Y-117000000D03*
X151100000Y-65000000D03*
X151100000Y-66650000D03*
X156000000Y-101350000D03*
X156000000Y-103000000D03*
X172000000Y-81700000D03*
X172000000Y-83350000D03*
X224500000Y-60675000D03*
X224500000Y-62325000D03*
X158600000Y-115350000D03*
X158600000Y-117000000D03*
X142200000Y-65000000D03*
X142200000Y-66650000D03*
X98600000Y-115350000D03*
X98600000Y-117000000D03*
X113000000Y-63500000D03*
X113000000Y-65150000D03*
X173600000Y-115350000D03*
X173600000Y-117000000D03*
X146700000Y-65000000D03*
X146700000Y-66650000D03*
X143600000Y-115350000D03*
X143600000Y-117000000D03*
X108500000Y-63500000D03*
X108500000Y-65150000D03*
X128600000Y-115350000D03*
X128600000Y-117000000D03*
X188000000Y-101500000D03*
X188000000Y-103150000D03*
X220000000Y-60675000D03*
X220000000Y-62325000D03*
X212000000Y-115350000D03*
X212000000Y-117000000D03*
X172000000Y-101350000D03*
X172000000Y-103000000D03*
X188300000Y-62950000D03*
X188300000Y-64600000D03*
X203600000Y-115350000D03*
X203600000Y-117000000D03*
X188600000Y-115350000D03*
X188600000Y-117000000D03*
X104000000Y-63500000D03*
X104000000Y-65150000D03*
M02*
