%TF.GenerationSoftware,KiCad,Pcbnew,8.0.2*%
%TF.CreationDate,2024-05-04T10:09:35+05:30*%
%TF.ProjectId,macroglider,6d616372-6f67-46c6-9964-65722e6b6963,V1*%
%TF.SameCoordinates,Original*%
%TF.FileFunction,Drillmap*%
%TF.FilePolarity,Positive*%
%FSLAX45Y45*%
G04 Gerber Fmt 4.5, Leading zero omitted, Abs format (unit mm)*
G04 Created by KiCad (PCBNEW 8.0.2) date 2024-05-04 10:09:35*
%MOMM*%
%LPD*%
G01*
G04 APERTURE LIST*
%ADD10C,0.050000*%
%ADD11C,0.100000*%
%ADD12C,0.200000*%
%ADD13C,0.270000*%
G04 APERTURE END LIST*
D10*
X7500000Y-6000000D02*
G75*
G02*
X8000000Y-5500000I500000J0D01*
G01*
X8000000Y-13000000D02*
G75*
G02*
X7500000Y-12500000I0J500000D01*
G01*
X8000000Y-13000000D02*
X23500000Y-13000000D01*
X8000000Y-5500000D02*
X23500000Y-5500000D01*
X24000000Y-12500000D02*
G75*
G02*
X23500000Y-13000000I-500000J0D01*
G01*
X7500000Y-12500000D02*
X7500000Y-6000000D01*
X23500000Y-5500000D02*
G75*
G02*
X24000000Y-6000000I0J-500000D01*
G01*
X24000000Y-12500000D02*
X24000000Y-6000000D01*
D11*
X20509500Y-8230000D02*
X23452500Y-8230000D01*
X23452500Y-9731000D01*
X20509500Y-9731000D01*
X20509500Y-8230000D01*
D12*
D13*
X7865000Y-5865000D02*
X8135000Y-6135000D01*
X8135000Y-5865000D02*
X7865000Y-6135000D01*
X7865000Y-12365000D02*
X8135000Y-12635000D01*
X8135000Y-12365000D02*
X7865000Y-12635000D01*
X23365000Y-5865000D02*
X23635000Y-6135000D01*
X23635000Y-5865000D02*
X23365000Y-6135000D01*
X23365000Y-12365000D02*
X23635000Y-12635000D01*
X23635000Y-12365000D02*
X23365000Y-12635000D01*
D12*
X7758277Y-13313984D02*
X7758277Y-13113984D01*
X7758277Y-13113984D02*
X7805896Y-13113984D01*
X7805896Y-13113984D02*
X7834467Y-13123508D01*
X7834467Y-13123508D02*
X7853515Y-13142555D01*
X7853515Y-13142555D02*
X7863039Y-13161603D01*
X7863039Y-13161603D02*
X7872562Y-13199698D01*
X7872562Y-13199698D02*
X7872562Y-13228269D01*
X7872562Y-13228269D02*
X7863039Y-13266365D01*
X7863039Y-13266365D02*
X7853515Y-13285412D01*
X7853515Y-13285412D02*
X7834467Y-13304460D01*
X7834467Y-13304460D02*
X7805896Y-13313984D01*
X7805896Y-13313984D02*
X7758277Y-13313984D01*
X7958277Y-13313984D02*
X7958277Y-13180650D01*
X7958277Y-13218746D02*
X7967801Y-13199698D01*
X7967801Y-13199698D02*
X7977324Y-13190174D01*
X7977324Y-13190174D02*
X7996372Y-13180650D01*
X7996372Y-13180650D02*
X8015420Y-13180650D01*
X8082086Y-13313984D02*
X8082086Y-13180650D01*
X8082086Y-13113984D02*
X8072562Y-13123508D01*
X8072562Y-13123508D02*
X8082086Y-13133031D01*
X8082086Y-13133031D02*
X8091610Y-13123508D01*
X8091610Y-13123508D02*
X8082086Y-13113984D01*
X8082086Y-13113984D02*
X8082086Y-13133031D01*
X8205896Y-13313984D02*
X8186848Y-13304460D01*
X8186848Y-13304460D02*
X8177324Y-13285412D01*
X8177324Y-13285412D02*
X8177324Y-13113984D01*
X8310658Y-13313984D02*
X8291610Y-13304460D01*
X8291610Y-13304460D02*
X8282086Y-13285412D01*
X8282086Y-13285412D02*
X8282086Y-13113984D01*
X8539229Y-13313984D02*
X8539229Y-13113984D01*
X8539229Y-13113984D02*
X8605896Y-13256841D01*
X8605896Y-13256841D02*
X8672563Y-13113984D01*
X8672563Y-13113984D02*
X8672563Y-13313984D01*
X8853515Y-13313984D02*
X8853515Y-13209222D01*
X8853515Y-13209222D02*
X8843991Y-13190174D01*
X8843991Y-13190174D02*
X8824944Y-13180650D01*
X8824944Y-13180650D02*
X8786848Y-13180650D01*
X8786848Y-13180650D02*
X8767801Y-13190174D01*
X8853515Y-13304460D02*
X8834467Y-13313984D01*
X8834467Y-13313984D02*
X8786848Y-13313984D01*
X8786848Y-13313984D02*
X8767801Y-13304460D01*
X8767801Y-13304460D02*
X8758277Y-13285412D01*
X8758277Y-13285412D02*
X8758277Y-13266365D01*
X8758277Y-13266365D02*
X8767801Y-13247317D01*
X8767801Y-13247317D02*
X8786848Y-13237793D01*
X8786848Y-13237793D02*
X8834467Y-13237793D01*
X8834467Y-13237793D02*
X8853515Y-13228269D01*
X8948753Y-13180650D02*
X8948753Y-13380650D01*
X8948753Y-13190174D02*
X8967801Y-13180650D01*
X8967801Y-13180650D02*
X9005896Y-13180650D01*
X9005896Y-13180650D02*
X9024944Y-13190174D01*
X9024944Y-13190174D02*
X9034467Y-13199698D01*
X9034467Y-13199698D02*
X9043991Y-13218746D01*
X9043991Y-13218746D02*
X9043991Y-13275888D01*
X9043991Y-13275888D02*
X9034467Y-13294936D01*
X9034467Y-13294936D02*
X9024944Y-13304460D01*
X9024944Y-13304460D02*
X9005896Y-13313984D01*
X9005896Y-13313984D02*
X8967801Y-13313984D01*
X8967801Y-13313984D02*
X8948753Y-13304460D01*
X9129705Y-13294936D02*
X9139229Y-13304460D01*
X9139229Y-13304460D02*
X9129705Y-13313984D01*
X9129705Y-13313984D02*
X9120182Y-13304460D01*
X9120182Y-13304460D02*
X9129705Y-13294936D01*
X9129705Y-13294936D02*
X9129705Y-13313984D01*
X9129705Y-13190174D02*
X9139229Y-13199698D01*
X9139229Y-13199698D02*
X9129705Y-13209222D01*
X9129705Y-13209222D02*
X9120182Y-13199698D01*
X9120182Y-13199698D02*
X9129705Y-13190174D01*
X9129705Y-13190174D02*
X9129705Y-13209222D01*
X7297500Y-13542500D02*
X7497500Y-13742500D01*
X7497500Y-13542500D02*
X7297500Y-13742500D01*
X7748753Y-13553031D02*
X7758277Y-13543508D01*
X7758277Y-13543508D02*
X7777324Y-13533984D01*
X7777324Y-13533984D02*
X7824943Y-13533984D01*
X7824943Y-13533984D02*
X7843991Y-13543508D01*
X7843991Y-13543508D02*
X7853515Y-13553031D01*
X7853515Y-13553031D02*
X7863039Y-13572079D01*
X7863039Y-13572079D02*
X7863039Y-13591127D01*
X7863039Y-13591127D02*
X7853515Y-13619698D01*
X7853515Y-13619698D02*
X7739229Y-13733984D01*
X7739229Y-13733984D02*
X7863039Y-13733984D01*
X7948753Y-13714936D02*
X7958277Y-13724460D01*
X7958277Y-13724460D02*
X7948753Y-13733984D01*
X7948753Y-13733984D02*
X7939229Y-13724460D01*
X7939229Y-13724460D02*
X7948753Y-13714936D01*
X7948753Y-13714936D02*
X7948753Y-13733984D01*
X8024943Y-13533984D02*
X8158277Y-13533984D01*
X8158277Y-13533984D02*
X8072562Y-13733984D01*
X8272562Y-13533984D02*
X8291610Y-13533984D01*
X8291610Y-13533984D02*
X8310658Y-13543508D01*
X8310658Y-13543508D02*
X8320182Y-13553031D01*
X8320182Y-13553031D02*
X8329705Y-13572079D01*
X8329705Y-13572079D02*
X8339229Y-13610174D01*
X8339229Y-13610174D02*
X8339229Y-13657793D01*
X8339229Y-13657793D02*
X8329705Y-13695888D01*
X8329705Y-13695888D02*
X8320182Y-13714936D01*
X8320182Y-13714936D02*
X8310658Y-13724460D01*
X8310658Y-13724460D02*
X8291610Y-13733984D01*
X8291610Y-13733984D02*
X8272562Y-13733984D01*
X8272562Y-13733984D02*
X8253515Y-13724460D01*
X8253515Y-13724460D02*
X8243991Y-13714936D01*
X8243991Y-13714936D02*
X8234467Y-13695888D01*
X8234467Y-13695888D02*
X8224943Y-13657793D01*
X8224943Y-13657793D02*
X8224943Y-13610174D01*
X8224943Y-13610174D02*
X8234467Y-13572079D01*
X8234467Y-13572079D02*
X8243991Y-13553031D01*
X8243991Y-13553031D02*
X8253515Y-13543508D01*
X8253515Y-13543508D02*
X8272562Y-13533984D01*
X8463039Y-13533984D02*
X8482086Y-13533984D01*
X8482086Y-13533984D02*
X8501134Y-13543508D01*
X8501134Y-13543508D02*
X8510658Y-13553031D01*
X8510658Y-13553031D02*
X8520182Y-13572079D01*
X8520182Y-13572079D02*
X8529705Y-13610174D01*
X8529705Y-13610174D02*
X8529705Y-13657793D01*
X8529705Y-13657793D02*
X8520182Y-13695888D01*
X8520182Y-13695888D02*
X8510658Y-13714936D01*
X8510658Y-13714936D02*
X8501134Y-13724460D01*
X8501134Y-13724460D02*
X8482086Y-13733984D01*
X8482086Y-13733984D02*
X8463039Y-13733984D01*
X8463039Y-13733984D02*
X8443991Y-13724460D01*
X8443991Y-13724460D02*
X8434467Y-13714936D01*
X8434467Y-13714936D02*
X8424944Y-13695888D01*
X8424944Y-13695888D02*
X8415420Y-13657793D01*
X8415420Y-13657793D02*
X8415420Y-13610174D01*
X8415420Y-13610174D02*
X8424944Y-13572079D01*
X8424944Y-13572079D02*
X8434467Y-13553031D01*
X8434467Y-13553031D02*
X8443991Y-13543508D01*
X8443991Y-13543508D02*
X8463039Y-13533984D01*
X8615420Y-13733984D02*
X8615420Y-13600650D01*
X8615420Y-13619698D02*
X8624944Y-13610174D01*
X8624944Y-13610174D02*
X8643991Y-13600650D01*
X8643991Y-13600650D02*
X8672563Y-13600650D01*
X8672563Y-13600650D02*
X8691610Y-13610174D01*
X8691610Y-13610174D02*
X8701134Y-13629222D01*
X8701134Y-13629222D02*
X8701134Y-13733984D01*
X8701134Y-13629222D02*
X8710658Y-13610174D01*
X8710658Y-13610174D02*
X8729705Y-13600650D01*
X8729705Y-13600650D02*
X8758277Y-13600650D01*
X8758277Y-13600650D02*
X8777325Y-13610174D01*
X8777325Y-13610174D02*
X8786848Y-13629222D01*
X8786848Y-13629222D02*
X8786848Y-13733984D01*
X8882086Y-13733984D02*
X8882086Y-13600650D01*
X8882086Y-13619698D02*
X8891610Y-13610174D01*
X8891610Y-13610174D02*
X8910658Y-13600650D01*
X8910658Y-13600650D02*
X8939229Y-13600650D01*
X8939229Y-13600650D02*
X8958277Y-13610174D01*
X8958277Y-13610174D02*
X8967801Y-13629222D01*
X8967801Y-13629222D02*
X8967801Y-13733984D01*
X8967801Y-13629222D02*
X8977325Y-13610174D01*
X8977325Y-13610174D02*
X8996372Y-13600650D01*
X8996372Y-13600650D02*
X9024944Y-13600650D01*
X9024944Y-13600650D02*
X9043991Y-13610174D01*
X9043991Y-13610174D02*
X9053515Y-13629222D01*
X9053515Y-13629222D02*
X9053515Y-13733984D01*
X9443991Y-13524460D02*
X9272563Y-13781603D01*
X9701134Y-13533984D02*
X9720182Y-13533984D01*
X9720182Y-13533984D02*
X9739229Y-13543508D01*
X9739229Y-13543508D02*
X9748753Y-13553031D01*
X9748753Y-13553031D02*
X9758277Y-13572079D01*
X9758277Y-13572079D02*
X9767801Y-13610174D01*
X9767801Y-13610174D02*
X9767801Y-13657793D01*
X9767801Y-13657793D02*
X9758277Y-13695888D01*
X9758277Y-13695888D02*
X9748753Y-13714936D01*
X9748753Y-13714936D02*
X9739229Y-13724460D01*
X9739229Y-13724460D02*
X9720182Y-13733984D01*
X9720182Y-13733984D02*
X9701134Y-13733984D01*
X9701134Y-13733984D02*
X9682087Y-13724460D01*
X9682087Y-13724460D02*
X9672563Y-13714936D01*
X9672563Y-13714936D02*
X9663039Y-13695888D01*
X9663039Y-13695888D02*
X9653515Y-13657793D01*
X9653515Y-13657793D02*
X9653515Y-13610174D01*
X9653515Y-13610174D02*
X9663039Y-13572079D01*
X9663039Y-13572079D02*
X9672563Y-13553031D01*
X9672563Y-13553031D02*
X9682087Y-13543508D01*
X9682087Y-13543508D02*
X9701134Y-13533984D01*
X9853515Y-13714936D02*
X9863039Y-13724460D01*
X9863039Y-13724460D02*
X9853515Y-13733984D01*
X9853515Y-13733984D02*
X9843991Y-13724460D01*
X9843991Y-13724460D02*
X9853515Y-13714936D01*
X9853515Y-13714936D02*
X9853515Y-13733984D01*
X10053515Y-13733984D02*
X9939229Y-13733984D01*
X9996372Y-13733984D02*
X9996372Y-13533984D01*
X9996372Y-13533984D02*
X9977325Y-13562555D01*
X9977325Y-13562555D02*
X9958277Y-13581603D01*
X9958277Y-13581603D02*
X9939229Y-13591127D01*
X10177325Y-13533984D02*
X10196372Y-13533984D01*
X10196372Y-13533984D02*
X10215420Y-13543508D01*
X10215420Y-13543508D02*
X10224944Y-13553031D01*
X10224944Y-13553031D02*
X10234468Y-13572079D01*
X10234468Y-13572079D02*
X10243991Y-13610174D01*
X10243991Y-13610174D02*
X10243991Y-13657793D01*
X10243991Y-13657793D02*
X10234468Y-13695888D01*
X10234468Y-13695888D02*
X10224944Y-13714936D01*
X10224944Y-13714936D02*
X10215420Y-13724460D01*
X10215420Y-13724460D02*
X10196372Y-13733984D01*
X10196372Y-13733984D02*
X10177325Y-13733984D01*
X10177325Y-13733984D02*
X10158277Y-13724460D01*
X10158277Y-13724460D02*
X10148753Y-13714936D01*
X10148753Y-13714936D02*
X10139229Y-13695888D01*
X10139229Y-13695888D02*
X10129706Y-13657793D01*
X10129706Y-13657793D02*
X10129706Y-13610174D01*
X10129706Y-13610174D02*
X10139229Y-13572079D01*
X10139229Y-13572079D02*
X10148753Y-13553031D01*
X10148753Y-13553031D02*
X10158277Y-13543508D01*
X10158277Y-13543508D02*
X10177325Y-13533984D01*
X10415420Y-13533984D02*
X10377325Y-13533984D01*
X10377325Y-13533984D02*
X10358277Y-13543508D01*
X10358277Y-13543508D02*
X10348753Y-13553031D01*
X10348753Y-13553031D02*
X10329706Y-13581603D01*
X10329706Y-13581603D02*
X10320182Y-13619698D01*
X10320182Y-13619698D02*
X10320182Y-13695888D01*
X10320182Y-13695888D02*
X10329706Y-13714936D01*
X10329706Y-13714936D02*
X10339229Y-13724460D01*
X10339229Y-13724460D02*
X10358277Y-13733984D01*
X10358277Y-13733984D02*
X10396372Y-13733984D01*
X10396372Y-13733984D02*
X10415420Y-13724460D01*
X10415420Y-13724460D02*
X10424944Y-13714936D01*
X10424944Y-13714936D02*
X10434468Y-13695888D01*
X10434468Y-13695888D02*
X10434468Y-13648269D01*
X10434468Y-13648269D02*
X10424944Y-13629222D01*
X10424944Y-13629222D02*
X10415420Y-13619698D01*
X10415420Y-13619698D02*
X10396372Y-13610174D01*
X10396372Y-13610174D02*
X10358277Y-13610174D01*
X10358277Y-13610174D02*
X10339229Y-13619698D01*
X10339229Y-13619698D02*
X10329706Y-13629222D01*
X10329706Y-13629222D02*
X10320182Y-13648269D01*
X10501134Y-13533984D02*
X10624944Y-13533984D01*
X10624944Y-13533984D02*
X10558277Y-13610174D01*
X10558277Y-13610174D02*
X10586849Y-13610174D01*
X10586849Y-13610174D02*
X10605896Y-13619698D01*
X10605896Y-13619698D02*
X10615420Y-13629222D01*
X10615420Y-13629222D02*
X10624944Y-13648269D01*
X10624944Y-13648269D02*
X10624944Y-13695888D01*
X10624944Y-13695888D02*
X10615420Y-13714936D01*
X10615420Y-13714936D02*
X10605896Y-13724460D01*
X10605896Y-13724460D02*
X10586849Y-13733984D01*
X10586849Y-13733984D02*
X10529706Y-13733984D01*
X10529706Y-13733984D02*
X10510658Y-13724460D01*
X10510658Y-13724460D02*
X10501134Y-13714936D01*
X10701134Y-13533984D02*
X10701134Y-13572079D01*
X10777325Y-13533984D02*
X10777325Y-13572079D01*
X11072563Y-13810174D02*
X11063039Y-13800650D01*
X11063039Y-13800650D02*
X11043991Y-13772079D01*
X11043991Y-13772079D02*
X11034468Y-13753031D01*
X11034468Y-13753031D02*
X11024944Y-13724460D01*
X11024944Y-13724460D02*
X11015420Y-13676841D01*
X11015420Y-13676841D02*
X11015420Y-13638746D01*
X11015420Y-13638746D02*
X11024944Y-13591127D01*
X11024944Y-13591127D02*
X11034468Y-13562555D01*
X11034468Y-13562555D02*
X11043991Y-13543508D01*
X11043991Y-13543508D02*
X11063039Y-13514936D01*
X11063039Y-13514936D02*
X11072563Y-13505412D01*
X11234468Y-13600650D02*
X11234468Y-13733984D01*
X11186848Y-13524460D02*
X11139230Y-13667317D01*
X11139230Y-13667317D02*
X11263039Y-13667317D01*
X11491610Y-13733984D02*
X11491610Y-13533984D01*
X11577325Y-13733984D02*
X11577325Y-13629222D01*
X11577325Y-13629222D02*
X11567801Y-13610174D01*
X11567801Y-13610174D02*
X11548753Y-13600650D01*
X11548753Y-13600650D02*
X11520182Y-13600650D01*
X11520182Y-13600650D02*
X11501134Y-13610174D01*
X11501134Y-13610174D02*
X11491610Y-13619698D01*
X11701134Y-13733984D02*
X11682087Y-13724460D01*
X11682087Y-13724460D02*
X11672563Y-13714936D01*
X11672563Y-13714936D02*
X11663039Y-13695888D01*
X11663039Y-13695888D02*
X11663039Y-13638746D01*
X11663039Y-13638746D02*
X11672563Y-13619698D01*
X11672563Y-13619698D02*
X11682087Y-13610174D01*
X11682087Y-13610174D02*
X11701134Y-13600650D01*
X11701134Y-13600650D02*
X11729706Y-13600650D01*
X11729706Y-13600650D02*
X11748753Y-13610174D01*
X11748753Y-13610174D02*
X11758277Y-13619698D01*
X11758277Y-13619698D02*
X11767801Y-13638746D01*
X11767801Y-13638746D02*
X11767801Y-13695888D01*
X11767801Y-13695888D02*
X11758277Y-13714936D01*
X11758277Y-13714936D02*
X11748753Y-13724460D01*
X11748753Y-13724460D02*
X11729706Y-13733984D01*
X11729706Y-13733984D02*
X11701134Y-13733984D01*
X11882087Y-13733984D02*
X11863039Y-13724460D01*
X11863039Y-13724460D02*
X11853515Y-13705412D01*
X11853515Y-13705412D02*
X11853515Y-13533984D01*
X12034468Y-13724460D02*
X12015420Y-13733984D01*
X12015420Y-13733984D02*
X11977325Y-13733984D01*
X11977325Y-13733984D02*
X11958277Y-13724460D01*
X11958277Y-13724460D02*
X11948753Y-13705412D01*
X11948753Y-13705412D02*
X11948753Y-13629222D01*
X11948753Y-13629222D02*
X11958277Y-13610174D01*
X11958277Y-13610174D02*
X11977325Y-13600650D01*
X11977325Y-13600650D02*
X12015420Y-13600650D01*
X12015420Y-13600650D02*
X12034468Y-13610174D01*
X12034468Y-13610174D02*
X12043991Y-13629222D01*
X12043991Y-13629222D02*
X12043991Y-13648269D01*
X12043991Y-13648269D02*
X11948753Y-13667317D01*
X12120182Y-13724460D02*
X12139230Y-13733984D01*
X12139230Y-13733984D02*
X12177325Y-13733984D01*
X12177325Y-13733984D02*
X12196372Y-13724460D01*
X12196372Y-13724460D02*
X12205896Y-13705412D01*
X12205896Y-13705412D02*
X12205896Y-13695888D01*
X12205896Y-13695888D02*
X12196372Y-13676841D01*
X12196372Y-13676841D02*
X12177325Y-13667317D01*
X12177325Y-13667317D02*
X12148753Y-13667317D01*
X12148753Y-13667317D02*
X12129706Y-13657793D01*
X12129706Y-13657793D02*
X12120182Y-13638746D01*
X12120182Y-13638746D02*
X12120182Y-13629222D01*
X12120182Y-13629222D02*
X12129706Y-13610174D01*
X12129706Y-13610174D02*
X12148753Y-13600650D01*
X12148753Y-13600650D02*
X12177325Y-13600650D01*
X12177325Y-13600650D02*
X12196372Y-13610174D01*
X12272563Y-13810174D02*
X12282087Y-13800650D01*
X12282087Y-13800650D02*
X12301134Y-13772079D01*
X12301134Y-13772079D02*
X12310658Y-13753031D01*
X12310658Y-13753031D02*
X12320182Y-13724460D01*
X12320182Y-13724460D02*
X12329706Y-13676841D01*
X12329706Y-13676841D02*
X12329706Y-13638746D01*
X12329706Y-13638746D02*
X12320182Y-13591127D01*
X12320182Y-13591127D02*
X12310658Y-13562555D01*
X12310658Y-13562555D02*
X12301134Y-13543508D01*
X12301134Y-13543508D02*
X12282087Y-13514936D01*
X12282087Y-13514936D02*
X12272563Y-13505412D01*
X12634468Y-13810174D02*
X12624944Y-13800650D01*
X12624944Y-13800650D02*
X12605896Y-13772079D01*
X12605896Y-13772079D02*
X12596372Y-13753031D01*
X12596372Y-13753031D02*
X12586849Y-13724460D01*
X12586849Y-13724460D02*
X12577325Y-13676841D01*
X12577325Y-13676841D02*
X12577325Y-13638746D01*
X12577325Y-13638746D02*
X12586849Y-13591127D01*
X12586849Y-13591127D02*
X12596372Y-13562555D01*
X12596372Y-13562555D02*
X12605896Y-13543508D01*
X12605896Y-13543508D02*
X12624944Y-13514936D01*
X12624944Y-13514936D02*
X12634468Y-13505412D01*
X12710658Y-13600650D02*
X12710658Y-13733984D01*
X12710658Y-13619698D02*
X12720182Y-13610174D01*
X12720182Y-13610174D02*
X12739230Y-13600650D01*
X12739230Y-13600650D02*
X12767801Y-13600650D01*
X12767801Y-13600650D02*
X12786849Y-13610174D01*
X12786849Y-13610174D02*
X12796372Y-13629222D01*
X12796372Y-13629222D02*
X12796372Y-13733984D01*
X12920182Y-13733984D02*
X12901134Y-13724460D01*
X12901134Y-13724460D02*
X12891611Y-13714936D01*
X12891611Y-13714936D02*
X12882087Y-13695888D01*
X12882087Y-13695888D02*
X12882087Y-13638746D01*
X12882087Y-13638746D02*
X12891611Y-13619698D01*
X12891611Y-13619698D02*
X12901134Y-13610174D01*
X12901134Y-13610174D02*
X12920182Y-13600650D01*
X12920182Y-13600650D02*
X12948753Y-13600650D01*
X12948753Y-13600650D02*
X12967801Y-13610174D01*
X12967801Y-13610174D02*
X12977325Y-13619698D01*
X12977325Y-13619698D02*
X12986849Y-13638746D01*
X12986849Y-13638746D02*
X12986849Y-13695888D01*
X12986849Y-13695888D02*
X12977325Y-13714936D01*
X12977325Y-13714936D02*
X12967801Y-13724460D01*
X12967801Y-13724460D02*
X12948753Y-13733984D01*
X12948753Y-13733984D02*
X12920182Y-13733984D01*
X13043992Y-13600650D02*
X13120182Y-13600650D01*
X13072563Y-13533984D02*
X13072563Y-13705412D01*
X13072563Y-13705412D02*
X13082087Y-13724460D01*
X13082087Y-13724460D02*
X13101134Y-13733984D01*
X13101134Y-13733984D02*
X13120182Y-13733984D01*
X13339230Y-13600650D02*
X13339230Y-13800650D01*
X13339230Y-13610174D02*
X13358277Y-13600650D01*
X13358277Y-13600650D02*
X13396373Y-13600650D01*
X13396373Y-13600650D02*
X13415420Y-13610174D01*
X13415420Y-13610174D02*
X13424944Y-13619698D01*
X13424944Y-13619698D02*
X13434468Y-13638746D01*
X13434468Y-13638746D02*
X13434468Y-13695888D01*
X13434468Y-13695888D02*
X13424944Y-13714936D01*
X13424944Y-13714936D02*
X13415420Y-13724460D01*
X13415420Y-13724460D02*
X13396373Y-13733984D01*
X13396373Y-13733984D02*
X13358277Y-13733984D01*
X13358277Y-13733984D02*
X13339230Y-13724460D01*
X13548753Y-13733984D02*
X13529706Y-13724460D01*
X13529706Y-13724460D02*
X13520182Y-13705412D01*
X13520182Y-13705412D02*
X13520182Y-13533984D01*
X13710658Y-13733984D02*
X13710658Y-13629222D01*
X13710658Y-13629222D02*
X13701134Y-13610174D01*
X13701134Y-13610174D02*
X13682087Y-13600650D01*
X13682087Y-13600650D02*
X13643992Y-13600650D01*
X13643992Y-13600650D02*
X13624944Y-13610174D01*
X13710658Y-13724460D02*
X13691611Y-13733984D01*
X13691611Y-13733984D02*
X13643992Y-13733984D01*
X13643992Y-13733984D02*
X13624944Y-13724460D01*
X13624944Y-13724460D02*
X13615420Y-13705412D01*
X13615420Y-13705412D02*
X13615420Y-13686365D01*
X13615420Y-13686365D02*
X13624944Y-13667317D01*
X13624944Y-13667317D02*
X13643992Y-13657793D01*
X13643992Y-13657793D02*
X13691611Y-13657793D01*
X13691611Y-13657793D02*
X13710658Y-13648269D01*
X13777325Y-13600650D02*
X13853515Y-13600650D01*
X13805896Y-13533984D02*
X13805896Y-13705412D01*
X13805896Y-13705412D02*
X13815420Y-13724460D01*
X13815420Y-13724460D02*
X13834468Y-13733984D01*
X13834468Y-13733984D02*
X13853515Y-13733984D01*
X13996373Y-13724460D02*
X13977325Y-13733984D01*
X13977325Y-13733984D02*
X13939230Y-13733984D01*
X13939230Y-13733984D02*
X13920182Y-13724460D01*
X13920182Y-13724460D02*
X13910658Y-13705412D01*
X13910658Y-13705412D02*
X13910658Y-13629222D01*
X13910658Y-13629222D02*
X13920182Y-13610174D01*
X13920182Y-13610174D02*
X13939230Y-13600650D01*
X13939230Y-13600650D02*
X13977325Y-13600650D01*
X13977325Y-13600650D02*
X13996373Y-13610174D01*
X13996373Y-13610174D02*
X14005896Y-13629222D01*
X14005896Y-13629222D02*
X14005896Y-13648269D01*
X14005896Y-13648269D02*
X13910658Y-13667317D01*
X14177325Y-13733984D02*
X14177325Y-13533984D01*
X14177325Y-13724460D02*
X14158277Y-13733984D01*
X14158277Y-13733984D02*
X14120182Y-13733984D01*
X14120182Y-13733984D02*
X14101134Y-13724460D01*
X14101134Y-13724460D02*
X14091611Y-13714936D01*
X14091611Y-13714936D02*
X14082087Y-13695888D01*
X14082087Y-13695888D02*
X14082087Y-13638746D01*
X14082087Y-13638746D02*
X14091611Y-13619698D01*
X14091611Y-13619698D02*
X14101134Y-13610174D01*
X14101134Y-13610174D02*
X14120182Y-13600650D01*
X14120182Y-13600650D02*
X14158277Y-13600650D01*
X14158277Y-13600650D02*
X14177325Y-13610174D01*
X14253515Y-13810174D02*
X14263039Y-13800650D01*
X14263039Y-13800650D02*
X14282087Y-13772079D01*
X14282087Y-13772079D02*
X14291611Y-13753031D01*
X14291611Y-13753031D02*
X14301134Y-13724460D01*
X14301134Y-13724460D02*
X14310658Y-13676841D01*
X14310658Y-13676841D02*
X14310658Y-13638746D01*
X14310658Y-13638746D02*
X14301134Y-13591127D01*
X14301134Y-13591127D02*
X14291611Y-13562555D01*
X14291611Y-13562555D02*
X14282087Y-13543508D01*
X14282087Y-13543508D02*
X14263039Y-13514936D01*
X14263039Y-13514936D02*
X14253515Y-13505412D01*
M02*
